<?xml version="1.0" encoding="UTF-8" standalone="no"?>
<!-- Created with Inkscape (http://www.inkscape.org/) -->

<svg
   xmlns:dc="http://purl.org/dc/elements/1.1/"
   xmlns:cc="http://creativecommons.org/ns#"
   xmlns:rdf="http://www.w3.org/1999/02/22-rdf-syntax-ns#"
   xmlns:svg="http://www.w3.org/2000/svg"
   xmlns="http://www.w3.org/2000/svg"
   xmlns:sodipodi="http://sodipodi.sourceforge.net/DTD/sodipodi-0.dtd"
   xmlns:inkscape="http://www.inkscape.org/namespaces/inkscape"
   width="120"
   height="16"
   viewBox="0 0 31.75 4.2333335"
   version="1.1"
   id="svg8"
   inkscape:version="0.92.1 r15371"
   sodipodi:docname="Нейм.svg">
  <defs
     id="defs2" />
  <sodipodi:namedview
     id="base"
     pagecolor="#ffffff"
     bordercolor="#666666"
     borderopacity="1.0"
     inkscape:pageopacity="0.0"
     inkscape:pageshadow="2"
     inkscape:zoom="2.8"
     inkscape:cx="254.53829"
     inkscape:cy="12.566816"
     inkscape:document-units="mm"
     inkscape:current-layer="layer1"
     showgrid="false"
     units="px"
     inkscape:window-width="1920"
     inkscape:window-height="1001"
     inkscape:window-x="-9"
     inkscape:window-y="-9"
     inkscape:window-maximized="1" />
  <metadata
     id="metadata5">
    <rdf:RDF>
      <cc:Work
         rdf:about="">
        <dc:format>image/svg+xml</dc:format>
        <dc:type
           rdf:resource="http://purl.org/dc/dcmitype/StillImage" />
        <dc:title></dc:title>
      </cc:Work>
    </rdf:RDF>
  </metadata>
  <g
     inkscape:label="Layer 1"
     inkscape:groupmode="layer"
     id="layer1"
     transform="translate(0,-292.76665)">
    <g
       id="g103"
       transform="matrix(0.26828273,0,0,0.26828273,-57.234364,211.70588)">
      <path
         inkscape:connector-curvature="0"
         id="path89"
         style="fill:#c49e58;fill-rule:evenodd"
         d="m 329.5023,308.126 c 1.2033,0 2.179,0.9757 2.179,2.179 0,1.2033 -0.9757,2.179 -2.179,2.179 -1.2033,0 -2.179,-0.9757 -2.179,-2.179 0,-1.2033 0.9757,-2.179 2.179,-2.179 z m -113.9873,0 c 1.2033,0 2.179,0.9757 2.179,2.179 0,1.2033 -0.9757,2.179 -2.179,2.179 -1.2036,0 -2.179,-0.9757 -2.179,-2.179 0,-1.2033 0.9754,-2.179 2.179,-2.179 z" />
      <path
         inkscape:connector-curvature="0"
         id="path91"
         style="fill:#000000;fill-rule:evenodd"
         d="m 245.4514,302.3561 v 0.4311 c -0.3594,0.14 -0.7078,0.4167 -1.0491,0.8263 -0.3379,0.4096 -0.6219,0.9919 -0.8481,1.743 l -3.7982,12.3072 c -0.1545,-0.0144 -0.4062,-0.0215 -0.7582,-0.0215 -0.345,0 -0.593,0.007 -0.7475,0.0215 l -3.1694,-9.6123 -3.191,9.6123 c -0.1616,-0.0144 -0.413,-0.0215 -0.758,-0.0215 -0.3416,0 -0.5967,0.007 -0.7583,0.0215 l -4.8296,-13.4966 c -0.1687,-0.4779 -0.3773,-0.8229 -0.6217,-1.0386 -0.2443,-0.212 -0.4921,-0.3271 -0.7364,-0.3413 v -0.4311 h 5.8643 v 0.4311 c -0.4995,0.0717 -0.7475,0.3521 -0.7475,0.8408 0,0.2335 0.0612,0.557 0.1868,0.9703 l 3.1479,9.1162 2.1812,-6.4213 -1.0961,-3.3381 c -0.1471,-0.4207 -0.3161,-0.7152 -0.5102,-0.8768 -0.1939,-0.1655 -0.4204,-0.2625 -0.6792,-0.2911 v -0.4311 h 6.1914 v 0.4311 c -0.521,0.0142 -0.8946,0.0754 -1.1211,0.1831 -0.2299,0.1114 -0.345,0.3164 -0.345,0.6183 0,0.2585 0.072,0.5964 0.2121,1.0097 l 2.9573,9.0122 2.0447,-6.5078 c 0.3271,-1.0814 0.4924,-1.9151 0.4924,-2.5044 0,-0.6183 -0.1545,-1.0673 -0.4635,-1.3476 -0.3056,-0.2804 -0.7691,-0.4349 -1.3873,-0.4635 v -0.4311 z m 13.8016,11.9911 c 0,1.3187 0.0502,2.4111 0.1474,3.2734 h -11.9588 v -0.4311 c 0.4706,-0.0289 0.8192,-0.0862 1.042,-0.1726 0.2265,-0.0899 0.3773,-0.2552 0.4527,-0.4958 0.0791,-0.2444 0.1151,-0.6361 0.1151,-1.1858 v -10.6939 c 0,-0.55 -0.036,-0.9451 -0.1151,-1.1858 -0.0754,-0.2409 -0.2262,-0.4062 -0.4527,-0.496 -0.2228,-0.0862 -0.5714,-0.1438 -1.042,-0.1724 v -0.4311 h 11.5274 c -0.097,1.1928 -0.1471,2.2563 -0.1471,3.1906 0,0.629 0.0215,1.1177 0.0646,1.4627 h -0.4958 c -0.2194,-1.5381 -0.6038,-2.6161 -1.1645,-3.234 -0.557,-0.6146 -1.3473,-0.9236 -2.3714,-0.9236 h -0.8842 c -0.4456,0 -0.7653,0.036 -0.97,0.1078 -0.2049,0.0754 -0.3415,0.2157 -0.4099,0.424 -0.0717,0.205 -0.1077,0.5392 -0.1077,1.0026 v 5.3397 h 0.6863 c 0.7653,0 1.3439,-0.2801 1.743,-0.8371 0.3952,-0.557 0.6718,-1.2254 0.8263,-2.0052 h 0.4924 c -0.0397,0.6037 -0.0612,1.2792 -0.0612,2.0301 v 1.0316 c 0,0.7293 0.0431,1.7535 0.1258,3.0651 h -0.4958 c -0.3018,-1.9046 -1.1786,-2.8531 -2.6305,-2.8531 h -0.6863 v 5.4332 c 0,0.4597 0.036,0.7976 0.1077,1.0023 0.0684,0.2086 0.205,0.3486 0.4099,0.4241 0.2047,0.072 0.5244,0.108 0.97,0.108 h 1.0602 c 1.0205,0 1.8397,-0.3487 2.465,-1.0458 0.6253,-0.7007 1.0673,-1.8793 1.3261,-3.543 h 0.4957 c -0.043,0.4706 -0.0646,1.0744 -0.0646,1.8111 z m 8.6343,-12.2752 c 0.7438,0 1.3403,0.072 1.7859,0.2157 0.4456,0.1438 0.8983,0.3521 1.3617,0.6251 0.1548,0.0935 0.2948,0.1655 0.417,0.2228 0.1222,0.0541 0.2265,0.0828 0.309,0.0828 0.1329,0 0.2372,-0.0754 0.3056,-0.2265 0.0717,-0.1508 0.1255,-0.3915 0.1686,-0.7223 h 0.4961 c -0.072,0.9632 -0.1077,2.6016 -0.1077,4.9195 h -0.4924 c -0.0576,-0.7798 -0.2336,-1.5236 -0.5284,-2.228 -0.2945,-0.7044 -0.7115,-1.2756 -1.2504,-1.7104 -0.5425,-0.4349 -1.1715,-0.654 -1.8864,-0.654 -0.7007,0 -1.2722,0.1976 -1.7104,0.5893 -0.4386,0.3952 -0.6577,0.927 -0.6577,1.6028 0,0.5028 0.1077,0.945 0.3198,1.3186 0.2157,0.3773 0.5173,0.7186 0.9054,1.0276 0.3917,0.3093 0.9847,0.7259 1.7861,1.2543 l 0.6933,0.4813 c 0.8518,0.5571 1.5202,1.0423 2.0053,1.459 0.4886,0.417 0.8875,0.9057 1.1965,1.459 0.3089,0.5534 0.4637,1.1965 0.4637,1.9259 0,0.9201 -0.2373,1.6926 -0.7115,2.3216 -0.4745,0.6287 -1.1177,1.0995 -1.9332,1.4156 -0.8121,0.3163 -1.7141,0.4745 -2.7023,0.4745 -0.8087,0 -1.4768,-0.072 -2.0089,-0.2157 -0.5281,-0.1437 -1.0168,-0.3379 -1.4661,-0.5856 -0.316,-0.2013 -0.5604,-0.3056 -0.7256,-0.3056 -0.133,0 -0.2373,0.0754 -0.3056,0.2265 -0.0717,0.1508 -0.1259,0.3914 -0.169,0.7222 H 262.95 c 0.0575,-0.9056 0.0827,-2.846 0.0827,-5.8212 h 0.4958 c 0.1006,1.6132 0.4564,2.9177 1.0743,3.9166 0.6183,0.9956 1.5704,1.495 2.8534,1.495 0.7724,0 1.4119,-0.2086 1.9151,-0.6216 0.5068,-0.4133 0.7582,-1.01 0.7582,-1.7895 0,-0.8087 -0.2588,-1.4987 -0.7798,-2.0699 -0.5173,-0.5714 -1.3402,-1.2183 -2.4613,-1.9406 -0.8589,-0.5641 -1.5452,-1.0528 -2.0628,-1.4695 -0.521,-0.4169 -0.945,-0.9093 -1.2756,-1.4734 -0.3305,-0.5641 -0.4957,-1.2254 -0.4957,-1.9763 0,-0.8623 0.2191,-1.592 0.6573,-2.1884 0.4422,-0.5964 1.0279,-1.0386 1.7609,-1.326 0.733,-0.2875 1.5381,-0.4312 2.4148,-0.4312 z m 13.9814,0 c 0.7438,0 1.3402,0.072 1.7858,0.2157 0.4456,0.1438 0.8983,0.3521 1.3618,0.6251 0.1547,0.0935 0.2948,0.1655 0.4169,0.2228 0.1222,0.0541 0.2265,0.0828 0.309,0.0828 0.1329,0 0.2373,-0.0754 0.3056,-0.2265 0.0717,-0.1508 0.1256,-0.3915 0.1686,-0.7223 h 0.4961 c -0.072,0.9632 -0.1077,2.6016 -0.1077,4.9195 h -0.4924 c -0.0575,-0.7798 -0.2336,-1.5236 -0.5284,-2.228 -0.2945,-0.7044 -0.7115,-1.2756 -1.2503,-1.7104 -0.5426,-0.4349 -1.1716,-0.654 -1.8865,-0.654 -0.7007,0 -1.2722,0.1976 -1.7104,0.5893 -0.4385,0.3952 -0.6577,0.927 -0.6577,1.6028 0,0.5028 0.1078,0.945 0.3198,1.3186 0.2157,0.3773 0.5173,0.7186 0.9054,1.0276 0.3917,0.3093 0.9847,0.7259 1.7861,1.2543 l 0.6933,0.4813 c 0.8519,0.5571 1.5203,1.0423 2.0053,1.459 0.4887,0.417 0.8875,0.9057 1.1965,1.459 0.309,0.5534 0.4637,1.1965 0.4637,1.9259 0,0.9201 -0.2372,1.6926 -0.7115,2.3216 -0.4745,0.6287 -1.1177,1.0995 -1.9332,1.4156 -0.8121,0.3163 -1.7141,0.4745 -2.7023,0.4745 -0.8087,0 -1.4768,-0.072 -2.0089,-0.2157 -0.5281,-0.1437 -1.0168,-0.3379 -1.4661,-0.5856 -0.316,-0.2013 -0.5604,-0.3056 -0.7256,-0.3056 -0.133,0 -0.2373,0.0754 -0.3056,0.2265 -0.0717,0.1508 -0.1259,0.3914 -0.1689,0.7222 h -0.4958 c 0.0575,-0.9056 0.0827,-2.846 0.0827,-5.8212 h 0.4958 c 0.1007,1.6132 0.4564,2.9177 1.0744,3.9166 0.6182,0.9956 1.5704,1.495 2.8533,1.495 0.7725,0 1.4119,-0.2086 1.9151,-0.6216 0.5068,-0.4133 0.7583,-1.01 0.7583,-1.7895 0,-0.8087 -0.2588,-1.4987 -0.7798,-2.0699 -0.5174,-0.5714 -1.3403,-1.2183 -2.4614,-1.9406 -0.8589,-0.5641 -1.5451,-1.0528 -2.0627,-1.4695 -0.521,-0.4169 -0.9451,-0.9093 -1.2756,-1.4734 -0.3305,-0.5641 -0.4958,-1.2254 -0.4958,-1.9763 0,-0.8623 0.2191,-1.592 0.6573,-2.1884 0.4422,-0.5964 1.0279,-1.0386 1.7609,-1.326 0.7331,-0.2875 1.5381,-0.4312 2.4149,-0.4312 z m 21.0242,13.7376 c 0.1905,0.4779 0.406,0.8229 0.654,1.0386 0.2443,0.2117 0.4779,0.3268 0.7044,0.3413 v 0.4311 h -6.5472 v -0.4311 c 0.5463,-0.0289 0.9343,-0.097 1.1605,-0.205 0.2302,-0.1114 0.345,-0.3019 0.345,-0.5748 0,-0.2588 -0.0862,-0.6038 -0.2551,-1.0313 l -1.2935,-3.5359 h -4.7075 l -0.557,1.4839 c -0.3988,1.0386 -0.6001,1.8363 -0.6001,2.4004 0,0.5321 0.1619,0.902 0.4853,1.1103 0.3235,0.205 0.8014,0.3235 1.4301,0.3524 v 0.4311 h -4.3157 v -0.4311 c 0.7081,-0.1259 1.326,-0.8805 1.8544,-2.2638 l 4.9155,-12.613 h 1.495 z m -5.39,-4.4019 -2.1274,-5.8213 -2.2422,5.8213 z m 13.7693,-6.7663 v 5.3039 h 0.9272 c 1.1786,0 1.9871,-0.3127 2.429,-0.9343 0.4385,-0.6254 0.6576,-1.5058 0.6576,-2.6448 0,-1.1786 -0.2083,-2.0698 -0.629,-2.6736 -0.4167,-0.6035 -1.0996,-0.9054 -2.048,-0.9054 -0.3847,0 -0.6684,0.0502 -0.8518,0.1545 -0.1832,0.1006 -0.309,0.2803 -0.3773,0.5355 -0.0717,0.2551 -0.1077,0.6431 -0.1077,1.1642 z m 4.7899,12.9792 c -0.7616,-2.5979 -1.3654,-4.4521 -1.8039,-5.5698 -0.4383,-1.114 -0.9666,-1.6744 -1.5846,-1.6744 h -1.4014 v 4.9589 c 0,0.5497 0.0396,0.9414 0.1184,1.1858 0.0757,0.2406 0.2228,0.4059 0.4423,0.4958 0.2154,0.0864 0.5677,0.1437 1.0527,0.1726 v 0.4311 h -6.6549 v -0.4311 c 0.4706,-0.0289 0.8193,-0.0862 1.0421,-0.1726 0.2264,-0.0899 0.3772,-0.2552 0.4526,-0.4958 0.0791,-0.2444 0.1151,-0.6361 0.1151,-1.1858 v -10.6939 c 0,-0.55 -0.036,-0.9451 -0.1151,-1.1858 -0.0754,-0.2409 -0.2262,-0.4062 -0.4526,-0.496 -0.2228,-0.0862 -0.5715,-0.1438 -1.0421,-0.1724 v -0.4311 h 6.6549 c 1.9834,0.0141 3.4784,0.3447 4.4774,0.9881 1.0026,0.6466 1.502,1.5738 1.502,2.7811 0,1.0241 -0.3736,1.9224 -1.1211,2.6989 -0.7475,0.7761 -1.987,1.2648 -3.7119,1.4694 1.29,0.1114 2.2816,0.4638 2.9681,1.0531 0.69,0.5893 1.2612,1.5738 1.7212,2.9537 0.4598,1.3762 0.8048,2.1702 1.0384,2.3715 0.2301,0.2049 0.5246,0.3773 0.8841,0.5176 v 0.4311 z" />
    </g>
  </g>
</svg>
