<?xml version="1.0" encoding="UTF-8" standalone="no"?>
<!-- Created with Inkscape (http://www.inkscape.org/) -->

<svg
   xmlns:dc="http://purl.org/dc/elements/1.1/"
   xmlns:cc="http://creativecommons.org/ns#"
   xmlns:rdf="http://www.w3.org/1999/02/22-rdf-syntax-ns#"
   xmlns:svg="http://www.w3.org/2000/svg"
   xmlns="http://www.w3.org/2000/svg"
   xmlns:sodipodi="http://sodipodi.sourceforge.net/DTD/sodipodi-0.dtd"
   xmlns:inkscape="http://www.inkscape.org/namespaces/inkscape"
   width="300"
   height="24"
   viewBox="0 0 79.374998 6.3500002"
   version="1.1"
   id="svg8"
   inkscape:version="0.92.1 r15371"
   sodipodi:docname="Верхний узор.svg">
  <defs
     id="defs2" />
  <sodipodi:namedview
     id="base"
     pagecolor="#ffffff"
     bordercolor="#666666"
     borderopacity="1.0"
     inkscape:pageopacity="0.0"
     inkscape:pageshadow="2"
     inkscape:zoom="2.8"
     inkscape:cx="254.53829"
     inkscape:cy="12.566816"
     inkscape:document-units="mm"
     inkscape:current-layer="layer1"
     showgrid="false"
     units="px"
     inkscape:window-width="1920"
     inkscape:window-height="1001"
     inkscape:window-x="-9"
     inkscape:window-y="-9"
     inkscape:window-maximized="1" />
  <metadata
     id="metadata5">
    <rdf:RDF>
      <cc:Work
         rdf:about="">
        <dc:format>image/svg+xml</dc:format>
        <dc:type
           rdf:resource="http://purl.org/dc/dcmitype/StillImage" />
        <dc:title></dc:title>
      </cc:Work>
    </rdf:RDF>
  </metadata>
  <g
     inkscape:label="Layer 1"
     inkscape:groupmode="layer"
     id="layer1"
     transform="translate(0,-290.64998)">
    <path
       inkscape:connector-curvature="0"
       id="path10"
       style="fill:#c49e58;fill-rule:evenodd;stroke-width:0.37518391"
       d="m 34.573009,294.00054 c -0.51136,-0.14261 -1.10853,-0.096 -1.79151,0.13996 -0.0169,-0.0669 -0.0142,-0.14152 0.008,-0.22354 0.10026,-0.36328 0.17496,-0.69214 -0.29778,-0.85775 -0.24016,0.18625 -0.32514,0.46009 -0.25504,0.82182 -0.22452,-0.0815 -0.36799,0.0193 -0.43042,0.30266 0.10806,-0.0486 0.23517,-0.0207 0.31302,0.0688 0.0778,0.0893 0.0878,0.21921 0.0248,0.31951 -0.27651,0.45018 -0.68884,0.71019 -1.23698,0.77974 0.54878,-0.21877 0.85422,-0.5492 0.91631,-0.99139 -0.20215,-0.007 -0.36295,0.0475 -0.48241,0.16347 0.13514,-0.22124 0.15157,-0.45766 0.0495,-0.70958 -0.36067,0.0695 -0.53313,0.35713 -0.51772,0.86269 -0.001,-0.16661 -0.0481,-0.28946 -0.14095,-0.3687 -0.1975,0.10664 -0.26758,0.28778 -0.21006,0.54335 0.0339,0.33076 -0.13812,0.50114 -0.51656,0.51101 -0.29001,-3.9e-4 -0.44571,-0.13188 -0.46677,-0.39369 0.0776,-0.0834 0.0966,-0.18335 0.0569,-0.29981 -0.15743,-0.0685 -0.33046,-0.0685 -0.51944,-1.1e-4 -0.0717,-0.34457 0.0454,-0.53377 0.35129,-0.56762 -0.0857,0.0316 -0.13769,0.11869 -0.12507,0.2092 0.0128,0.0905 0.0866,0.15987 0.17772,0.16677 0.12308,0.0194 0.24695,-0.0299 0.32288,-0.12861 0.076,-0.0988 0.0919,-0.23122 0.0416,-0.34513 -0.0505,-0.11387 -0.15912,-0.19119 -0.28322,-0.2014 -0.26354,-0.0417 -0.52752,0.0723 -0.67789,0.29256 -0.1506,0.22035 -0.16047,0.50771 -0.0257,0.73795 -0.16081,-0.15663 -0.37786,-0.24225 -0.60236,-0.23737 -0.22445,0.004 -0.43755,0.0997 -0.59144,0.26311 0.2262,0.39256 0.52315,0.53985 0.89068,0.44201 -0.0719,0.26364 0.0311,0.47231 0.24271,0.5573 0.0275,-0.12238 0.10734,-0.22653 0.21813,-0.28525 0.11089,-0.0587 0.24185,-0.0661 0.35849,-0.0201 0.66118,0.22185 1.39077,0.16794 2.18883,-0.16197 0.21718,-0.12393 0.41284,-0.2466 0.58738,-0.36806 -0.10692,0.19473 -0.0846,0.43477 0.0562,0.60649 0.14081,0.17176 0.37187,0.24068 0.58374,0.17391 0.21419,-0.0142 0.38434,-0.18547 0.39564,-0.39977 0.0113,-0.21442 -0.13982,-0.40317 -0.3514,-0.43923 -0.13967,-0.0227 -0.2746,0.0621 -0.31449,0.1978 -0.0401,0.13584 0.0272,0.28015 0.15688,0.3368 0.0872,0.0186 0.16124,7.6e-4 0.22217,-0.0537 -0.0638,0.12167 -0.203,0.18324 -0.33597,0.14879 -0.13287,-0.0346 -0.22463,-0.15615 -0.22121,-0.29354 0.004,-0.35818 0.21686,-0.64864 0.63909,-0.87122 0.57621,-0.14409 1.05978,-0.18061 1.45094,-0.10961 -0.11557,-0.009 -0.23847,0.003 -0.36884,0.0322 0.13074,0.467 0.44849,0.7452 0.95335,0.83487 -0.0322,0.31553 0.0686,0.5391 0.30236,0.67087 0.27066,0.22226 0.28161,0.48304 0.0329,0.7824 0.45446,0.0369 0.71521,-0.14283 0.78222,-0.5391 0.36257,0.25662 0.77231,0.3093 1.22932,0.15784 0.003,-0.36318 -0.24492,-0.63058 -0.74287,-0.8021 0.81648,0.21089 1.44754,0.0245 1.89337,-0.55877 0.36033,0.0985 0.65609,0.0669 0.8872,-0.095 0.0433,0.0645 0.0576,0.27193 0.0427,0.41113 -0.1021,0.003 -0.16886,0.0441 -0.20045,0.12492 -0.0498,0.12238 -0.11004,0.21004 -0.18081,0.26302 -0.0346,0.0335 -0.0878,0.038 -0.12777,0.0113 -0.0397,-0.0269 -0.055,-0.0783 -0.0366,-0.1228 0.0723,-0.1538 0.0701,-0.30735 -0.007,-0.4602 -0.0363,0.0756 -0.10848,0.13258 -0.21685,0.17093 -0.23878,0.08 -0.33083,0.25757 -0.27628,0.53249 0.056,0.21866 0.23227,0.38614 0.45348,0.43094 0.22121,0.0447 0.44867,-0.0408 0.58536,-0.22056 -0.18456,0.35008 -0.10508,0.70136 0.23831,1.05351 l 0.003,0.003 0.003,-0.003 c 0.34349,-0.35215 0.42284,-0.70343 0.23844,-1.05351 0.1367,0.1797 0.36403,0.26521 0.58525,0.22056 0.22132,-0.0448 0.39754,-0.21228 0.45348,-0.43094 0.0546,-0.27492 -0.0374,-0.45255 -0.2762,-0.53249 -0.10848,-0.0383 -0.1807,-0.0953 -0.21695,-0.17093 -0.0767,0.15285 -0.0788,0.3064 -0.007,0.4602 0.0184,0.0445 0.003,0.0959 -0.0366,0.1228 -0.0397,0.0269 -0.0932,0.0224 -0.12776,-0.0113 -0.0708,-0.053 -0.13089,-0.14053 -0.1808,-0.26302 -0.0316,-0.0808 -0.0984,-0.12251 -0.20045,-0.12492 -0.0149,-0.13925 -7.5e-4,-0.3466 0.0427,-0.41113 0.23118,0.16197 0.52693,0.19356 0.88715,0.095 0.44583,0.58334 1.07693,0.76966 1.89341,0.55877 -0.49784,0.17152 -0.74542,0.43892 -0.74287,0.8021 0.45697,0.15146 0.86675,0.0988 1.22929,-0.15784 0.0671,0.39627 0.32779,0.57601 0.78223,0.5391 -0.24864,-0.29936 -0.23761,-0.56014 0.033,-0.7824 0.23373,-0.13174 0.33466,-0.35534 0.30246,-0.67087 0.50486,-0.0896 0.82252,-0.36787 0.95319,-0.83487 -0.12025,-0.0271 -0.23426,-0.0384 -0.3419,-0.0337 0.38979,-0.0689 0.87058,-0.0319 1.44278,0.11117 0.42219,0.22258 0.6351,0.51304 0.63904,0.87122 0.003,0.13741 -0.0882,0.25896 -0.22121,0.29354 -0.13287,0.0345 -0.27216,-0.0271 -0.33594,-0.14879 0.061,0.0545 0.13499,0.0722 0.22215,0.0537 0.1296,-0.0567 0.19697,-0.20099 0.15687,-0.3368 -0.04,-0.13571 -0.17473,-0.22046 -0.31449,-0.1978 -0.21152,0.036 -0.36264,0.22481 -0.35135,0.43923 0.0113,0.2143 0.1814,0.38614 0.3956,0.39977 0.21175,0.0668 0.44297,-0.003 0.58378,-0.17391 0.14081,-0.17172 0.16301,-0.41176 0.056,-0.60649 0.1745,0.12153 0.3703,0.24406 0.58734,0.36806 0.79818,0.32991 1.52776,0.38382 2.18894,0.16197 0.1167,-0.0459 0.24759,-0.0386 0.35853,0.0201 0.11075,0.0587 0.19056,0.16283 0.21814,0.28525 0.21159,-0.0849 0.31454,-0.29366 0.24266,-0.5573 0.36757,0.0978 0.66437,-0.0495 0.89069,-0.44201 -0.15386,-0.16346 -0.367,-0.25831 -0.5914,-0.26311 -0.22452,-0.004 -0.4416,0.0807 -0.6024,0.23737 0.13471,-0.23024 0.12492,-0.5176 -0.0257,-0.73795 -0.15037,-0.22026 -0.41432,-0.33428 -0.67788,-0.29256 -0.12408,0.01 -0.2328,0.0875 -0.28318,0.2014 -0.0505,0.11386 -0.0346,0.24631 0.0414,0.34513 0.076,0.0988 0.19996,0.14817 0.32299,0.12861 0.091,-0.007 0.16507,-0.0763 0.17772,-0.16677 0.0128,-0.0905 -0.0394,-0.17761 -0.12521,-0.2092 0.30597,0.0339 0.42305,0.22305 0.35136,0.56762 -0.18898,-0.0684 -0.36202,-0.0684 -0.51941,1.1e-4 -0.0397,0.11642 -0.0207,0.21641 0.0569,0.29981 -0.021,0.2618 -0.17674,0.39316 -0.46688,0.39369 -0.3783,-0.01 -0.55035,-0.18025 -0.51643,-0.51101 0.0576,-0.25557 -0.0128,-0.43668 -0.21003,-0.54335 -0.0929,0.0793 -0.13982,0.20209 -0.14095,0.3687 0.0154,-0.50556 -0.15709,-0.79314 -0.51784,-0.86269 -0.10195,0.25192 -0.0855,0.48834 0.0495,0.70958 -0.11939,-0.116 -0.28021,-0.17041 -0.48241,-0.16347 0.062,0.44219 0.36747,0.77262 0.91631,0.99139 -0.5481,-0.0695 -0.96042,-0.32956 -1.23693,-0.77974 -0.063,-0.10025 -0.053,-0.23019 0.0248,-0.31951 0.0778,-0.0895 0.20492,-0.11727 0.31297,-0.0688 -0.0624,-0.28342 -0.20597,-0.38423 -0.43048,-0.30266 0.0702,-0.36173 -0.0147,-0.63557 -0.25493,-0.82182 -0.47274,0.16561 -0.39808,0.49447 -0.2979,0.85775 0.0228,0.0821 0.0258,0.15665 0.009,0.22354 -0.69233,-0.2393 -1.2963,-0.28393 -1.81233,-0.13415 0.0919,-0.24578 0.11571,-0.54282 0.0713,-0.89132 -0.75145,0.0254 -1.18975,0.41762 -1.31483,1.17688 -0.0644,-0.8537 -0.36348,-1.08819 -0.89736,-0.70351 -0.14539,0.20481 -0.11912,0.37691 0.0787,0.51599 0.10904,0.17284 0.0291,0.34374 -0.23993,0.51284 -0.32532,0.43541 -0.76253,0.46613 -1.3115,0.0922 0.36816,-0.1245 0.66711,-0.31841 0.89707,-0.58206 0.18346,0.0225 0.35541,0.01 0.5161,-0.0394 -0.15897,-0.1625 -0.28053,-0.24365 -0.36487,-0.24312 0.17589,-0.27321 0.25704,-0.52185 0.2433,-0.74628 -0.39761,0.0654 -0.66489,0.1706 -0.80199,0.31557 0.0142,-0.17337 -0.004,-0.29291 -0.056,-0.35819 -0.1727,0.0963 -0.27565,0.19588 -0.30904,0.29906 -0.0483,-0.17292 -0.12394,-0.29118 -0.22664,-0.355 -0.39362,0.21854 -0.54049,0.55058 -0.44062,0.99585 -0.24845,0.0916 -0.35136,-0.0422 -0.30893,-0.40093 0.15177,-0.49636 0.54949,-0.82731 1.19305,-0.99269 -0.18062,-0.15634 -0.41286,-0.21652 -0.69694,-0.1808 0.0855,-0.28522 0.0834,-0.56897 -0.007,-0.85134 -0.2716,0.11132 -0.44145,0.31502 -0.5095,0.61141 0.0691,-0.31096 0.007,-0.55866 -0.18729,-0.74298 -0.0641,0.08 -0.11344,0.18856 -0.14806,0.32543 0.0207,-0.43187 -0.076,-0.77144 -0.28299,-1.01903 v 0 c -0.20707,0.24759 -0.30277,0.58716 -0.28203,1.01903 -0.0346,-0.13684 -0.0838,-0.24544 -0.14804,-0.32543 -0.1939,0.18432 -0.25622,0.43202 -0.18729,0.74298 -0.0679,-0.29639 -0.2378,-0.50016 -0.50954,-0.61141 -0.0899,0.28237 -0.092,0.56612 -0.007,0.85134 -0.28406,-0.0357 -0.51644,0.0245 -0.69703,0.1808 0.64353,0.16538 1.0413,0.49633 1.19317,0.99269 0.0424,0.35872 -0.0607,0.49251 -0.30907,0.40093 0.1,-0.44527 -0.0469,-0.77731 -0.44051,-0.99585 -0.10267,0.0638 -0.17833,0.18208 -0.22673,0.355 -0.0335,-0.10324 -0.13627,-0.20282 -0.30896,-0.29906 -0.0513,0.0652 -0.0701,0.18482 -0.056,0.35819 -0.13726,-0.14497 -0.40444,-0.25014 -0.80211,-0.31557 -0.0142,0.22443 0.0675,0.47307 0.24334,0.74628 -0.0844,-3.7e-4 -0.20589,0.0807 -0.36478,0.24312 0.16057,0.0489 0.33257,0.062 0.51603,0.0394 0.2299,0.26365 0.52885,0.45762 0.89707,0.58206 -0.54898,0.37402 -0.98622,0.34329 -1.31154,-0.0922 -0.26897,-0.1691 -0.34892,-0.34 -0.23993,-0.51284 0.19784,-0.1391 0.2241,-0.31118 0.0787,-0.51599 -0.53377,-0.38468 -0.83295,-0.15019 -0.8973,0.70351 -0.12521,-0.75926 -0.56345,-1.15149 -1.31482,-1.17688 -0.044,0.34574 -0.0208,0.64097 0.0692,0.88548 z m -7.37624,0.85824 -0.091,0.18709 C 11.316939,295.02747 0,294.94519 0,294.85878 c 0,-0.13613 25.639389,-0.18707 27.105769,-0.18707 z m 24.9814,0 0.091,0.18709 c 15.7888,-0.0184 27.10577,-0.10068 27.10577,-0.18709 0,-0.13613 -25.63939,-0.18707 -27.10577,-0.18707 z" />
  </g>
</svg>
