<?xml version="1.0" encoding="UTF-8" standalone="no"?>
<!-- Created with Inkscape (http://www.inkscape.org/) -->

<svg
   xmlns:dc="http://purl.org/dc/elements/1.1/"
   xmlns:cc="http://creativecommons.org/ns#"
   xmlns:rdf="http://www.w3.org/1999/02/22-rdf-syntax-ns#"
   xmlns:svg="http://www.w3.org/2000/svg"
   xmlns="http://www.w3.org/2000/svg"
   xmlns:sodipodi="http://sodipodi.sourceforge.net/DTD/sodipodi-0.dtd"
   xmlns:inkscape="http://www.inkscape.org/namespaces/inkscape"
   width="400"
   height="400"
   viewBox="0 0 105.83333 105.83334"
   version="1.1"
   id="svg8"
   inkscape:version="0.92.1 r15371"
   sodipodi:docname="Кнопка плей - основная.svg">
  <defs
     id="defs2" />
  <sodipodi:namedview
     id="base"
     pagecolor="#ffffff"
     bordercolor="#666666"
     borderopacity="1.0"
     inkscape:pageopacity="0.0"
     inkscape:pageshadow="2"
     inkscape:zoom="0.35"
     inkscape:cx="902.85714"
     inkscape:cy="585.71429"
     inkscape:document-units="mm"
     inkscape:current-layer="g721"
     showgrid="false"
     units="px"
     inkscape:window-width="1039"
     inkscape:window-height="792"
     inkscape:window-x="-9"
     inkscape:window-y="0"
     inkscape:window-maximized="0" />
  <metadata
     id="metadata5">
    <rdf:RDF>
      <cc:Work
         rdf:about="">
        <dc:format>image/svg+xml</dc:format>
        <dc:type
           rdf:resource="http://purl.org/dc/dcmitype/StillImage" />
        <dc:title></dc:title>
      </cc:Work>
    </rdf:RDF>
  </metadata>
  <g
     inkscape:label="Layer 1"
     inkscape:groupmode="layer"
     id="layer1"
     transform="translate(0,-191.16665)">
    <g
       id="g721"
       transform="matrix(0.26458333,0,0,0.26458333,525.51237,134.30147)">
      <g
         id="Layer1000"
         transform="matrix(4.1666494,0,0,4.1666494,-2945.6566,-576.61487)">
        <path
           inkscape:connector-curvature="0"
           id="path4394"
           style="fill:none"
           d="m 230.2733,237.9702 v 0 q 0,48.0002 48.0002,48.0002 v 0 q 48.0002,0 48.0002,-48.0002 v 0 q 0,-48.0002 -48.0002,-48.0002 v 0 q -48.0002,0 -48.0002,48.0002 z" />
        <path
           inkscape:connector-curvature="0"
           id="path4396"
           style="fill:#b3b3b3;fill-rule:evenodd"
           d="m 304.0205,263.717 c -6.5887,6.5896 -15.6932,10.6662 -25.7469,10.6662 -10.0538,0 -19.1583,-4.0766 -25.7469,-10.6662 -6.5896,-6.5886 -10.6663,-15.6931 -10.6663,-25.7469 0,-10.0538 4.0767,-19.1583 10.6663,-25.7469 6.5886,-6.5896 15.6931,-10.6662 25.7469,-10.6662 10.0537,0 19.1582,4.0766 25.7469,10.6662 6.5896,6.5886 10.6662,15.6931 10.6662,25.7469 0,10.0538 -4.0766,19.1583 -10.6662,25.7469 z m -12.7524,-25.7459 -10.3007,-5.9485 -10.3016,-5.9475 v 11.896 11.894 l 10.3016,-5.9466 z m -12.9945,31.7058 c 8.7561,0 16.6835,-3.5493 22.4205,-9.2863 5.7369,-5.7369 9.2863,-13.6644 9.2863,-22.4205 0,-8.7561 -3.5494,-16.6836 -9.2863,-22.4205 -5.737,-5.737 -13.6644,-9.2863 -22.4205,-9.2863 -8.7562,0 -16.6836,3.5493 -22.4206,9.2863 -5.7369,5.7369 -9.2863,13.6644 -9.2863,22.4205 0,8.7561 3.5494,16.6836 9.2863,22.4205 5.737,5.737 13.6644,9.2863 22.4206,9.2863 z" />
      </g>
    </g>
  </g>
</svg>
