<?xml version="1.0" encoding="UTF-8" standalone="no"?>
<!-- Created with Inkscape (http://www.inkscape.org/) -->

<svg
   xmlns:dc="http://purl.org/dc/elements/1.1/"
   xmlns:cc="http://creativecommons.org/ns#"
   xmlns:rdf="http://www.w3.org/1999/02/22-rdf-syntax-ns#"
   xmlns:svg="http://www.w3.org/2000/svg"
   xmlns="http://www.w3.org/2000/svg"
   xmlns:sodipodi="http://sodipodi.sourceforge.net/DTD/sodipodi-0.dtd"
   xmlns:inkscape="http://www.inkscape.org/namespaces/inkscape"
   width="160"
   height="160"
   viewBox="0 0 42.333332 42.333335"
   version="1.1"
   id="svg8"
   inkscape:version="0.92.1 r15371"
   sodipodi:docname="ShivD.svg">
  <defs
     id="defs2" />
  <sodipodi:namedview
     id="base"
     pagecolor="#ffffff"
     bordercolor="#ffffff"
     borderopacity="1.0"
     inkscape:pageopacity="0.0"
     inkscape:pageshadow="2"
     inkscape:zoom="0.35"
     inkscape:cx="-398.57143"
     inkscape:cy="788.57143"
     inkscape:document-units="mm"
     inkscape:current-layer="layer1"
     showgrid="false"
     units="px"
     inkscape:window-width="1600"
     inkscape:window-height="837"
     inkscape:window-x="-8"
     inkscape:window-y="-8"
     inkscape:window-maximized="1" />
  <metadata
     id="metadata5">
    <rdf:RDF>
      <cc:Work
         rdf:about="">
        <dc:format>image/svg+xml</dc:format>
        <dc:type
           rdf:resource="http://purl.org/dc/dcmitype/StillImage" />
        <dc:title></dc:title>
      </cc:Work>
    </rdf:RDF>
  </metadata>
  <g
     inkscape:label="Layer 1"
     inkscape:groupmode="layer"
     id="layer1"
     transform="translate(0,-254.66665)">
    <g
       id="g24"
       transform="matrix(1.1024363,0,0,1.1024363,2.2048726e-4,254.66665)">
      <path
         inkscape:connector-curvature="0"
         id="path10"
         style="fill:none"
         d="M 0,0 V 38.3998 H 38.3998 V 0 Z" />
      <path
         inkscape:connector-curvature="0"
         id="path12"
         style="fill:#b3b3b3;fill-rule:evenodd"
         d="M 6.2302,9.0535 19.1984,22.0217 32.1695,9.0535 32.2253,8.9921 c 0.6498,-0.714 1.5868,-1.163 2.6271,-1.163 1.9606,0 3.5474,1.5869 3.5474,3.5475 0,1.0402 -0.449,1.9773 -1.1629,2.6271 L 37.1755,14.0595 21.7028,29.535 c -1.3805,1.3804 -3.6283,1.3804 -5.0088,0 L 1.1628,14.0037 c -0.714,-0.6498 -1.163,-1.5869 -1.163,-2.6271 0,-1.9606 1.5869,-3.5475 3.5475,-3.5475 1.0709,0 2.033,0.4741 2.6829,1.2244 z" />
    </g>
  </g>
</svg>
