<?xml version="1.0" encoding="UTF-8" standalone="no"?>
<!-- Created with Inkscape (http://www.inkscape.org/) -->

<svg
   xmlns:dc="http://purl.org/dc/elements/1.1/"
   xmlns:cc="http://creativecommons.org/ns#"
   xmlns:rdf="http://www.w3.org/1999/02/22-rdf-syntax-ns#"
   xmlns:svg="http://www.w3.org/2000/svg"
   xmlns="http://www.w3.org/2000/svg"
   xmlns:sodipodi="http://sodipodi.sourceforge.net/DTD/sodipodi-0.dtd"
   xmlns:inkscape="http://www.inkscape.org/namespaces/inkscape"
   width="300"
   height="392"
   viewBox="0 0 79.374998 103.71667"
   version="1.1"
   id="svg8"
   inkscape:version="0.92.1 r15371"
   sodipodi:docname="Проекты-01.svg">
  <defs
     id="defs2" />
  <sodipodi:namedview
     id="base"
     pagecolor="#ffffff"
     bordercolor="#666666"
     borderopacity="1.0"
     inkscape:pageopacity="0.0"
     inkscape:pageshadow="2"
     inkscape:zoom="0.35"
     inkscape:cx="902.85714"
     inkscape:cy="585.71429"
     inkscape:document-units="mm"
     inkscape:current-layer="g4458"
     showgrid="false"
     units="px"
     inkscape:window-width="1039"
     inkscape:window-height="792"
     inkscape:window-x="-9"
     inkscape:window-y="0"
     inkscape:window-maximized="0" />
  <metadata
     id="metadata5">
    <rdf:RDF>
      <cc:Work
         rdf:about="">
        <dc:format>image/svg+xml</dc:format>
        <dc:type
           rdf:resource="http://purl.org/dc/dcmitype/StillImage" />
        <dc:title></dc:title>
      </cc:Work>
    </rdf:RDF>
  </metadata>
  <g
     inkscape:label="Layer 1"
     inkscape:groupmode="layer"
     id="layer1"
     transform="translate(0,-193.28332)">
    <g
       id="g721"
       transform="matrix(0.26458333,0,0,0.26458333,525.51237,134.30147)">
      <g
         id="g4458"
         transform="translate(-1235.5623,-815.70362)">
        <g
           id="Layer1001"
           transform="matrix(1.1306236,0,0,1.1306236,-384.78988,803.21608)">
          <path
             inkscape:connector-curvature="0"
             id="path4415"
             style="fill:none"
             d="M -323.2942,208.8394 V 554.9247 H -58.2301 V 208.8394 Z" />
          <path
             inkscape:connector-curvature="0"
             id="path4417"
             style="fill:#BABABA;fill-rule:evenodd"
             d="m -291.9374,252.6433 h 2.322 v -9.6949 -2.8596 h 2.8596 1.7376 v -31.2495 h -5.6177 z m 0.3346,279.9463 -3.8528,7.6666 -4.6996,8.9338 h -5.9562 l -4.6372,-8.7533 -4.0343,-7.8471 h -0.2419 v 22.3352 h -8.2695 v -41.5922 h 7.606 l 7.4246,14.6686 5.0099,10.2627 h 0.3629 l 5.0704,-10.5046 7.1231,-14.4267 h 7.607 v 41.5922 h -8.2714 v -22.3352 z m 15.695,-19.257 h 28.6739 v 7.4255 h -20.4044 v 9.5368 h 17.4473 v 7.4246 h -17.4473 v 9.7798 h 20.4044 v 7.4255 h -28.6739 z m 65.3753,28.2504 c 0,2.1737 -0.4108,4.0957 -1.2361,5.765 -0.8254,1.6703 -1.9318,3.0694 -3.3211,4.1962 -1.3883,1.1279 -2.9776,1.9718 -4.7679,2.5357 -1.7913,0.563 -3.6323,0.8449 -5.5241,0.8449 h -15.695 v -41.5922 h 15.7555 c 1.8928,0 3.7328,0.2712 5.525,0.8146 1.7903,0.5435 3.3689,1.3786 4.7377,2.5045 1.3679,1.1268 2.4645,2.5249 3.2899,4.1962 0.8253,1.6703 1.2361,3.6108 1.2361,5.8255 z m -8.3895,-13.3398 c 0,-1.3688 -0.2312,-2.5259 -0.6937,-3.4713 -0.4644,-0.9464 -1.0478,-1.721 -1.7717,-2.325 -0.723,-0.6029 -1.5288,-1.0351 -2.4342,-1.2966 -0.8957,-0.2624 -1.8108,-0.3922 -2.7367,-0.3922 h -6.2489 v 26.8621 h 6.2489 c 0.8849,0 1.7815,-0.1307 2.6752,-0.3922 0.9064,-0.2634 1.722,-0.6946 2.4654,-1.2985 0.7454,-0.603 1.3376,-1.3776 1.802,-2.325 0.4625,-0.9444 0.6937,-2.121 0.6937,-3.5298 z m 24.5684,-14.9106 v 41.5922 h -8.2695 v -41.5922 z m 31.27,33.0203 h -14.4881 l -2.7162,8.5719 h -8.8139 l 14.6092,-41.5922 h 8.4519 l 14.4862,41.5922 h -8.9934 z m -12.2539,-6.9426 h 10.0207 l -1.6303,-5.3123 -3.2605,-10.9866 h -0.24 l -3.2001,10.8061 z m -136.9087,-45.087 -1.2615,5.0441 -1.6469,6.6645 h -3.8869 l -4.5289,-17.7302 h 3.7572 l 1.5444,6.9992 1.1834,5.4821 h 0.1805 l 1.364,-5.5328 1.7502,-6.9485 h 3.2948 l 1.8517,7.3085 1.2869,5.1728 h 0.1551 l 1.1054,-5.2235 1.6215,-7.2578 h 3.7581 l -4.5815,17.7302 h -3.8333 l -1.6478,-6.6909 -1.2869,-5.0177 z m 13.3291,-6.0216 h 12.2237 v 3.166 h -8.6978 v 4.0654 h 7.4373 v 3.165 h -7.4373 v 4.1689 h 8.6978 v 3.1649 h -12.2237 z m 27.8436,12.6091 c 0,0.8586 -0.1707,1.6166 -0.5132,2.2781 -0.3434,0.6595 -0.8205,1.2098 -1.4283,1.6469 -0.6088,0.4371 -1.3259,0.7688 -2.1493,0.9912 -0.8225,0.2225 -1.7152,0.3337 -2.6762,0.3337 -1.2869,0 -2.4957,-0.1795 -3.6274,-0.5405 -1.1337,-0.361 -2.2391,-0.9942 -3.3211,-1.9035 l 1.9825,-2.5737 c 0.7717,0.601 1.5737,1.0595 2.404,1.3766 0.8332,0.3171 1.6615,0.4752 2.4849,0.4752 0.5659,0 1.0459,-0.0547 1.442,-0.1669 0.3942,-0.1102 0.7112,-0.2653 0.9512,-0.4634 0.241,-0.1971 0.4166,-0.4205 0.5279,-0.6683 0.1112,-0.2478 0.1668,-0.5025 0.1668,-0.76 0,-0.3932 -0.0985,-0.72 -0.2956,-0.9776 -0.1971,-0.2566 -0.481,-0.4761 -0.8478,-0.6556 -0.3708,-0.1796 -0.8069,-0.3435 -1.3142,-0.4898 -0.5054,-0.1454 -1.0683,-0.3034 -1.6859,-0.4761 -0.6859,-0.1707 -1.3425,-0.3795 -1.9679,-0.6293 -0.6263,-0.2498 -1.1805,-0.5668 -1.6605,-0.9522 -0.479,-0.3873 -0.8615,-0.8586 -1.1434,-1.4166 -0.2849,-0.5571 -0.4254,-1.2313 -0.4254,-2.0196 0,-0.7717 0.1444,-1.4839 0.4332,-2.1357 0.2917,-0.6517 0.6946,-1.2146 1.2127,-1.6849 0.519,-0.4722 1.1551,-0.841 1.8956,-1.1073 0.7435,-0.2654 1.5708,-0.3991 2.4801,-0.3991 1.08,-0.0175 2.162,0.0859 3.242,0.3093 1.081,0.2225 2.1279,0.6683 3.1386,1.3366 l -1.5434,2.8313 c -0.8225,-0.4975 -1.603,-0.839 -2.3406,-1.0283 -0.7375,-0.1893 -1.4673,-0.2839 -2.1883,-0.2839 -0.3425,0 -0.681,0.0439 -1.0156,0.1288 -0.3357,0.0858 -0.6352,0.2107 -0.9015,0.3737 -0.2654,0.1629 -0.481,0.3765 -0.6449,0.6429 -0.162,0.2663 -0.243,0.5795 -0.243,0.9395 0,0.361 0.0898,0.6644 0.2703,0.9142 0.1805,0.2488 0.442,0.4634 0.7893,0.6429 0.3434,0.1796 0.759,0.3386 1.2488,0.4762 0.4937,0.1365 1.0459,0.2741 1.6674,0.4117 1.8741,0.4117 3.2771,1.038 4.203,1.8781 0.9307,0.841 1.3932,1.9561 1.3932,3.3454 z m 15.416,0 c 0,0.8586 -0.1717,1.6166 -0.5142,2.2781 -0.3434,0.6595 -0.8205,1.2098 -1.4283,1.6469 -0.6098,0.4371 -1.3259,0.7688 -2.1493,0.9912 -0.8225,0.2225 -1.7142,0.3337 -2.6772,0.3337 -1.2859,0 -2.4947,-0.1795 -3.6274,-0.5405 -1.1317,-0.361 -2.2381,-0.9942 -3.3201,-1.9035 l 1.9825,-2.5737 c 0.7708,0.601 1.5737,1.0595 2.405,1.3766 0.8312,0.3171 1.6605,0.4752 2.4839,0.4752 0.5659,0 1.0459,-0.0547 1.442,-0.1669 0.3932,-0.1102 0.7113,-0.2653 0.9513,-0.4634 0.2409,-0.1971 0.4156,-0.4205 0.5268,-0.6683 0.1122,-0.2478 0.1678,-0.5025 0.1678,-0.76 0,-0.3932 -0.0995,-0.72 -0.2956,-0.9776 -0.1971,-0.2566 -0.481,-0.4761 -0.8498,-0.6556 -0.3688,-0.1796 -0.8049,-0.3435 -1.3112,-0.4898 -0.5064,-0.1454 -1.0693,-0.3034 -1.6859,-0.4761 -0.6879,-0.1707 -1.3435,-0.3795 -1.9698,-0.6293 -0.6244,-0.2498 -1.1796,-0.5668 -1.6586,-0.9522 -0.481,-0.3873 -0.8634,-0.8586 -1.1454,-1.4166 -0.2839,-0.5571 -0.4244,-1.2313 -0.4244,-2.0196 0,-0.7717 0.1444,-1.4839 0.4322,-2.1357 0.2917,-0.6517 0.6956,-1.2146 1.2137,-1.6849 0.52,-0.4722 1.1542,-0.841 1.8956,-1.1073 0.7425,-0.2654 1.5698,-0.3991 2.4791,-0.3991 1.082,-0.0175 2.163,0.0859 3.243,0.3093 1.081,0.2225 2.1269,0.6683 3.1396,1.3366 l -1.5434,2.8313 c -0.8244,-0.4975 -1.6049,-0.839 -2.3425,-1.0283 -0.7376,-0.1893 -1.4674,-0.2839 -2.1884,-0.2839 -0.3414,0 -0.681,0.0439 -1.0166,0.1288 -0.3327,0.0858 -0.6332,0.2107 -0.9005,0.3737 -0.2654,0.1629 -0.479,0.3765 -0.6429,0.6429 -0.163,0.2663 -0.243,0.5795 -0.243,0.9395 0,0.361 0.0898,0.6644 0.2693,0.9142 0.1805,0.2488 0.441,0.4634 0.7883,0.6429 0.3444,0.1796 0.76,0.3386 1.2488,0.4762 0.4947,0.1365 1.0469,0.2741 1.6684,0.4117 1.8742,0.4117 3.2771,1.038 4.203,1.8781 0.9317,0.841 1.3942,1.9561 1.3942,3.3454 z m 12.1456,1.4674 h -6.1747 l -1.1581,3.6537 h -3.7572 l 6.2275,-17.7302 h 3.602 l 6.1768,17.7302 h -3.8343 z m -5.2235,-2.9591 h 4.2713 l -0.6937,-2.2645 -1.3893,-4.685 h -0.1034 l -1.3639,4.607 z m 19.7897,-11.1174 c 0.8918,0 1.6606,0.1678 2.3045,0.5025 0.6429,0.3336 1.1747,0.7668 1.5952,1.2985 0.4195,0.5327 0.7297,1.1288 0.9258,1.7894 0.1971,0.6595 0.2956,1.3063 0.2956,1.9424 0,0.4625 -0.0634,0.9386 -0.1922,1.4293 -0.1287,0.4879 -0.317,0.9513 -0.5668,1.3884 -0.2478,0.438 -0.5522,0.8419 -0.9142,1.2088 -0.36,0.3697 -0.7707,0.6741 -1.2341,0.9151 l 3.1913,7.2558 h -3.8089 c -0.0693,-0.1883 -0.1766,-0.4585 -0.322,-0.8098 -0.1463,-0.3522 -0.3093,-0.7424 -0.4888,-1.1717 -0.1795,-0.4293 -0.3688,-0.879 -0.5658,-1.3503 -0.1981,-0.4722 -0.3864,-0.9229 -0.5659,-1.3512 -0.1805,-0.4283 -0.3434,-0.8196 -0.4898,-1.1708 -0.1453,-0.3522 -0.2605,-0.6224 -0.3463,-0.8107 h -3.1913 v 6.6645 h -3.526 v -17.7302 z m -4.3737,7.8997 h 3.5767 c 0.8224,0 1.441,-0.2185 1.8517,-0.6605 0.4127,-0.438 0.6186,-1.0039 0.6186,-1.6937 0,-0.6907 -0.2108,-1.2605 -0.6303,-1.7073 -0.4205,-0.4508 -1.0342,-0.6722 -1.84,-0.6722 h -3.5767 z m 140.261,-89.1007 h 10.9193 10.9193 l 0.199,2.8615 h -22.2367 z m -3.9923,57.2317 h 29.8231 8.9973 v -54.9468 -26.3723 h -7.5855 l -0.0312,-7.3895 h -6.6226 l -0.8205,-3.6274 h -3.8245 l -3.1991,-6.3669 -2.682,-0.8206 -0.9845,-4.484 -1.1463,4.484 -2.8986,1.2079 -2.1542,5.9796 h -8.2685 l -0.4761,3.6274 h -7.7349 l -0.007,2.8616 h 18.2961 v 2.8615 h -18.3029 l -0.007,2.8615 h 18.3098 v 2.8616 h -18.3166 l -0.007,2.8615 H -88.37 v 2.8615 h -18.3302 l -0.007,2.8616 h 18.3371 v 2.8615 h -18.3439 l -0.007,2.8615 h 6.8509 10.5173 23.5206 v 2.8616 h -23.5206 -10.5173 -6.8578 l -0.1161,49.1465 v 0.8313 h -3.1532 v -3.1542 h -3.8177 l -3.9591,-50.9047 -9.6207,-0.5717 -0.6351,-5.4392 h -1.3045 l -1.4059,-16.2999 -1.1551,16.2999 h -1.4147 l -0.5883,5.4392 -8.3641,0.5717 -4.165,50.9047 h -6.7455 v 5.1991 h -5.5757 l -1.0137,-16.0892 0.0283,0.0293 9e-4,-33.9276 0.2205,-10.5066 v -6.1143 l 0.0274,-0.3074 3.2176,-15.1398 4.5864,-14.1321 c 0.2576,-0.5932 0.5201,-1.1903 0.7893,-1.7903 l 6.9563,-14.0969 c 2.1591,-4.0948 4.5289,-8.4305 7.1026,-13.1096 l -1.1649,1.0742 0.8127,-1.6459 -9.447,9.6061 -0.7884,0.7278 5.2441,-14.9145 -11.5662,13.211 c 1.4752,-2.7737 2.3133,-5.9387 2.3133,-9.2997 0,-10.6959 -8.4646,-19.4122 -19.061,-19.82 v -13.3389 h -1.6225 v 13.3418 c -10.5632,0.442 -18.9897,9.1446 -18.9897,19.8171 0,3.5932 0.9561,6.9631 2.6274,9.8695 l -12.0647,-13.7808 5.244,14.9145 -10.5876,-9.7622 c 13.8755,25.2289 21.8299,40.4693 22.9001,61.8308 l 10e-4,47.2938 h -7.7797 v 1.2713 7.404 0.3435 h -2.0957 v -2.9094 -0.758 h -3.481 v 3.3591 h -3.5318 l -6.1865,-72.4642 h -7.0636 v -74.5716 l -26.7577,-18.5868 v -8.6822 h -27.4173 c 3.7669,1.6342 7.6997,3.5328 11.7896,5.6792 10.7924,5.6704 22.7049,13.0901 35.5638,21.9908 h 0.0302 v 48.2655 2.8596 92.0549 h -66.1801 v -14.7749 -3.5982 -2.5074 -7.1972 -161.8781 h -3.8792 -3.3161 v 122.9415 38.9366 7.1972 2.5074 3.5982 14.7749 h -19.8698 V 343.1382 c 0,-3.6567 2.9923,-6.6499 6.6509,-6.6499 h 10.3593 v -10.1379 h -10.3593 c -9.2344,0 -16.7887,7.5544 -16.7887,16.7878 v 125.3572 l 10.1378,1.4108 v -0.001 l 244.7884,34.0789 v 11.3144 l -134.7428,-24.4562 134.7428,30.2505 v 17.0423 c 0,3.6577 -2.9942,6.6509 -6.6509,6.6509 h -54.3525 v 10.1388 h 54.3525 c 9.2344,0 16.7887,-7.5543 16.7887,-16.7897 v -44.0391 -3.6303 -11.4335 -11.8383 h -8.7982 -30.2213 -31.3871 v -2.8615 z m 0.2,-2.8616 0.199,-2.8615 h 29.0251 l 0.199,2.8615 z m 0.399,-5.723 0.199,-2.8616 h 28.2271 l 0.199,2.8616 z m 0.399,-5.7231 0.1991,-2.8615 h 27.4289 l 0.1991,2.8615 z m 0.3991,-5.7231 0.2,-2.8615 h 26.6289 l 0.1991,2.8615 z m 0.4,-5.723 0.199,-2.8616 h 25.8309 l 0.199,2.8616 z m 0.399,-5.7231 0.1991,-2.8615 h 25.0328 l 0.199,2.8615 z m 0.3991,-5.7231 0.199,-2.8625 h 24.2347 l 0.1991,2.8625 z m 0.399,-5.724 0.199,-2.8616 h 23.4367 l 0.199,2.8616 z m 0.399,-5.7231 0.2,-2.8615 h 22.6367 l 0.199,2.8615 z M -276.3371,242.9484 h -8.6811 -1.7376 v 9.6949 h 0.6644 1.0732 1.7863 v 2.8586 13.5525 c 2.7923,0.6888 5.7202,1.5893 8.772,2.6947 h 26.9226 z m -6.8948,28.7919 v 114.8009 h 15.9292 v -11.4354 -2.8586 h 2.8606 16.1877 v -8.0188 -2.8605 h 2.8596 13.3788 v -7.9651 -2.8596 h 2.8596 6.3855 v -47.0518 c -12.25,-8.4227 -23.6171,-15.4687 -33.9491,-20.8952 -9.8393,-5.1669 -18.7224,-8.8558 -26.5119,-10.8559 z m 0,117.6624 v 1.9415 h 10.571 2.8596 v 2.8606 2.8586 2.8596 2.8605 h 7.8636 2.8606 v 2.8586 2.8596 2.8596 2.8596 h 18.6921 2.8596 v 2.8596 8.5777 h 14.7545 v -72.2554 h -6.3855 v 7.9651 1.279 1.5815 h -16.2384 v 8.0188 1.2264 1.6322 h -19.0473 v 11.4354 2.8615 h -2.8606 z m 0,4.8021 v 2.8586 h 10.571 v -2.8586 z m 0,5.7182 v 2.8605 h 10.571 v -2.8605 z m 0,5.7191 v 2.8596 h 21.2942 v -2.8596 h -7.8636 -2.8596 z m 0,5.7192 v 2.8596 h 21.2942 v -2.8596 z m 0,5.7192 v 2.8596 h 42.8469 v -2.8596 h -18.6921 -2.8606 z m 0,5.7191 v 2.8586 h 42.8469 v -2.8586 z m 0,5.7182 v 2.8596 h 60.461 v -2.8596 h -14.7545 -2.8596 z m 0,5.7202 v 2.8595 h 60.461 v -2.8595 z m 0,5.7182 v 2.8586 h 60.461 v -2.8586 z" />
        </g>
      </g>
    </g>
  </g>
</svg>
