<?xml version="1.0" encoding="UTF-8" standalone="no"?>
<!-- Created with Inkscape (http://www.inkscape.org/) -->

<svg
   xmlns:dc="http://purl.org/dc/elements/1.1/"
   xmlns:cc="http://creativecommons.org/ns#"
   xmlns:rdf="http://www.w3.org/1999/02/22-rdf-syntax-ns#"
   xmlns:svg="http://www.w3.org/2000/svg"
   xmlns="http://www.w3.org/2000/svg"
   xmlns:sodipodi="http://sodipodi.sourceforge.net/DTD/sodipodi-0.dtd"
   xmlns:inkscape="http://www.inkscape.org/namespaces/inkscape"
   width="300"
   height="392"
   viewBox="0 0 79.374998 103.71667"
   version="1.1"
   id="svg8"
   inkscape:version="0.92.1 r15371"
   sodipodi:docname="Проекты-02.svg">
  <defs
     id="defs2" />
  <sodipodi:namedview
     id="base"
     pagecolor="#ffffff"
     bordercolor="#666666"
     borderopacity="1.0"
     inkscape:pageopacity="0.0"
     inkscape:pageshadow="2"
     inkscape:zoom="0.35"
     inkscape:cx="902.85714"
     inkscape:cy="585.71429"
     inkscape:document-units="mm"
     inkscape:current-layer="g4458"
     showgrid="false"
     units="px"
     inkscape:window-width="1039"
     inkscape:window-height="792"
     inkscape:window-x="-9"
     inkscape:window-y="0"
     inkscape:window-maximized="0" />
  <metadata
     id="metadata5">
    <rdf:RDF>
      <cc:Work
         rdf:about="">
        <dc:format>image/svg+xml</dc:format>
        <dc:type
           rdf:resource="http://purl.org/dc/dcmitype/StillImage" />
        <dc:title></dc:title>
      </cc:Work>
    </rdf:RDF>
  </metadata>
  <g
     inkscape:label="Layer 1"
     inkscape:groupmode="layer"
     id="layer1"
     transform="translate(0,-193.28332)">
    <g
       id="g721"
       transform="matrix(0.26458333,0,0,0.26458333,525.51237,134.30147)">
      <g
         id="g4458"
         transform="translate(-1235.5623,-815.70362)">
        <g
           id="Layer1000"
           transform="matrix(1.1318017,0,0,1.1318017,-709.59704,802.56232)">
          <path
             inkscape:connector-curvature="0"
             id="path4410"
             style="fill:none"
             d="m -36.2511,208.8394 v 346.0853 h 265.064 V 208.8394 Z" />
          <path
             inkscape:connector-curvature="0"
             id="path4412"
             style="fill:#BABABA;fill-rule:evenodd"
             d="m 217.2662,545.0612 v -39.0615 l -18.739,14.0735 v 24.988 h -2.8605 v -22.8396 l -18.2015,13.6696 v 9.17 h -2.8595 v -7.0227 l -11.5535,8.6773 -2.242,-1.922 -0.2624,-0.2088 -0.0283,0.006 -4.1153,-3.4537 v 3.924 h -2.8595 v -6.3231 l -18.2015,-15.2745 v 21.5976 h -2.8605 V 521.0635 L 114.2813,505.789 v 39.2722 h -2.8596 v -41.6713 l -4.006,-3.362 -14.1954,10.8724 v 24.4211 9.7398 0.0897 h -5.8704 -4.6606 v -0.0185 L 64.2791,545.0612 H 53.0242 l -4.4899,0.0634 -2.1757,1.6673 h -9e-4 l -0.841,0.6439 -2.1767,1.6674 -0.001,-10e-4 -18.1584,-3.9513 h -44.3572 c -3.8167,0 -6.9368,-3.1201 -6.9368,-6.9358 v -7.1484 l 6.368,1.3815 0.001,-0.001 33.1481,7.1933 25.3977,5.5104 h -0.0059 l 3.9787,0.8635 29.5285,-22.6523 20.4512,-15.6882 0.4664,-0.3581 14.2774,-10.9524 3.924,3.2927 2.8596,2.4001 18.2014,15.2735 2.8605,2.4011 18.2015,15.2745 v -0.001 l 2.8595,2.3991 v 0.002 l 6.728,5.646 11.4735,-8.611 v -0.006 l 2.8595,-2.1455 v 0.006 l 18.2015,-13.6599 v -0.004 l 2.8605,-2.1464 v 0.004 l 18.739,-14.0628 1.802,-1.3532 0.52,-0.3893 v 9.2207 9.0685 6.2938 3.4401 16.3546 z m 2.322,-81.125 h 9.2246 v -5.8606 h -9.2246 z m -0.52,-67.5704 h 9.7446 v -5.8606 h -9.7446 z M 74.9379,326.3504 h 137.0862 c 9.2344,0 16.7887,7.5554 16.7887,16.7878 v 41.5064 h -9.7446 v -41.5845 c 0,-3.8157 -3.121,-6.9367 -6.9358,-6.9367 H 74.9379 Z M 30.0363,455.2746 h 7.6704 V 488.65 h 2.8596 v -33.3754 h 7.6724 v -57.2619 h -7.6724 v -6.6616 h -2.8596 v 6.6616 H 30.0363 Z M 210.8319,374.618 c 0,1.68 -0.3366,3.1659 -1.0078,4.4596 -0.6722,1.2927 -1.604,2.3679 -2.7962,3.2245 -1.1922,0.8566 -2.5952,1.5024 -4.2069,1.9395 -1.6127,0.4361 -3.3591,0.6547 -5.2401,0.6547 -2.5191,0 -4.887,-0.3522 -7.1046,-1.0576 -2.2166,-0.7054 -4.3825,-1.9484 -6.4987,-3.7289 l 3.8791,-5.0382 c 1.5113,1.1757 3.082,2.0742 4.7114,2.6957 1.6283,0.6215 3.2488,0.9317 4.8615,0.9317 1.1084,0 2.0489,-0.1092 2.8216,-0.3268 0.7727,-0.2185 1.3942,-0.521 1.8644,-0.9073 0.4703,-0.3864 0.8147,-0.8225 1.0322,-1.3103 0.2186,-0.4868 0.3278,-0.9825 0.3278,-1.4859 0,-0.7727 -0.1931,-1.4108 -0.5795,-1.9152 -0.3863,-0.5034 -0.9405,-0.9317 -1.6625,-1.2839 -0.7219,-0.3532 -1.5785,-0.6722 -2.5698,-0.9581 -0.9903,-0.2849 -2.0908,-0.5961 -3.2996,-0.9317 -1.3434,-0.3356 -2.6283,-0.7473 -3.8547,-1.2342 -1.2264,-0.4868 -2.3093,-1.1083 -3.2498,-1.8644 -0.9406,-0.7561 -1.6879,-1.6791 -2.242,-2.7708 -0.5542,-1.0917 -0.8313,-2.4098 -0.8313,-3.9552 0,-1.5113 0.2859,-2.9055 0.8478,-4.1816 0.5718,-1.2771 1.361,-2.3766 2.3767,-3.3006 1.0156,-0.9239 2.2586,-1.6459 3.7113,-2.1668 1.4527,-0.5201 3.0732,-0.7806 4.8538,-0.7806 2.1161,-0.0331 4.2323,0.1679 6.3484,0.6049 2.1162,0.4361 4.165,1.3093 6.1465,2.6196 l -3.0225,5.5426 c -1.6127,-0.9747 -3.1406,-1.6459 -4.5855,-2.0157 -1.4439,-0.3697 -2.8713,-0.5541 -4.282,-0.5541 -0.6722,0 -1.3357,0.0839 -1.9903,0.2517 -0.6547,0.1678 -1.243,0.4117 -1.763,0.7307 -0.521,0.3191 -0.9405,0.7386 -1.2595,1.2596 -0.3201,0.521 -0.4791,1.1337 -0.4791,1.839 0,0.7054 0.1766,1.3015 0.5288,1.7884 0.3532,0.4868 0.8654,0.9073 1.5454,1.2595 0.6713,0.3532 1.4859,0.6635 2.443,0.9327 0.9659,0.2683 2.0498,0.5366 3.2674,0.8059 3.6694,0.8059 6.4148,2.0322 8.2285,3.6781 1.8225,1.6459 2.7298,3.8294 2.7298,6.5495 z m -33.354,-16.2736 c -1.0751,-0.9073 -2.2342,-1.5366 -3.4762,-1.8898 -1.2429,-0.3522 -2.4527,-0.5288 -3.6283,-0.5288 -0.7718,0 -1.5445,0.1093 -2.3172,0.3278 -0.7727,0.2186 -1.4615,0.5795 -2.0654,1.083 -0.6049,0.5034 -1.1005,1.159 -1.4868,1.9649 -0.3864,0.8059 -0.5796,1.7805 -0.5796,2.922 v 10.1271 c 0,1.1425 0.1932,2.1083 0.5796,2.8976 0.3863,0.7893 0.8897,1.4362 1.5112,1.9396 0.6215,0.5034 1.3103,0.8732 2.0664,1.1083 0.7551,0.2351 1.52,0.3532 2.2918,0.3532 1.1756,0 2.36,-0.1688 3.5523,-0.5044 1.1922,-0.3356 2.3932,-0.9737 3.603,-1.9142 l 3.2742,5.3406 c -1.2761,1.0752 -2.8381,1.9142 -4.685,2.5191 -1.8479,0.6049 -3.7962,0.9064 -5.845,0.9064 -1.6459,0 -3.2577,-0.2352 -4.8372,-0.7044 -1.5786,-0.4703 -2.9894,-1.1679 -4.2313,-2.0918 -1.243,-0.923 -2.2508,-2.082 -3.0235,-3.4762 -0.7727,-1.3942 -1.1591,-3.0313 -1.1591,-4.9123 v -12.9993 c 0,-1.8469 0.3786,-3.4674 1.1337,-4.8616 0.7561,-1.3942 1.7464,-2.5611 2.9728,-3.5016 1.2263,-0.9405 2.6283,-1.6459 4.2069,-2.1161 1.5786,-0.4703 3.1913,-0.7054 4.8372,-0.7054 2.0147,0 3.9552,0.2683 5.8187,0.8059 1.8644,0.5375 3.4683,1.3941 4.8118,2.5698 z m -27.4094,-8.4139 v 34.7141 h -6.9026 v -34.7141 z m -20.7078,6.1973 v 28.5168 h -6.9026 v -28.5168 h -9.2198 v -6.1973 h 25.2923 v 6.1973 z m -31.0369,8.3133 2.923,-6.7513 3.4762,-7.7593 h 7.3563 l -10.4803,21.1108 v 13.6033 H 94.6964 V 371.0413 L 84.1157,349.9305 h 7.407 l 3.5766,7.9602 2.8723,6.5504 z m -33.5042,20.2035 v -34.7141 h 6.8011 v 28.5168 h 17.1809 v 6.1973 z m -13.2013,-7.1544 h -12.092 l -2.2674,7.1544 h -7.3563 l 12.1935,-34.7141 h 7.0538 l 12.092,34.7141 h -7.5075 z m -10.2276,-5.7943 h 8.3631 l -1.36,-4.4332 -2.721,-9.17 h -0.201 l -2.6703,9.0187 z M 5.4669,362.7777 v 21.8669 h -6.9016 v -34.7141 h 6.247 l 8.0616,11.8901 6.6002,10.0773 h 0.2019 v -21.9674 h 6.9017 v 34.7141 h -6.2812 l -8.8002,-13.0999 -5.727,-8.767 z m -20.0024,14.7125 h -12.092 l -2.2674,7.1544 h -7.3563 l 12.1935,-34.7141 h 7.0538 l 12.092,34.7141 h -7.5075 z m -10.2276,-5.7943 H -16.4 l -1.36,-4.4332 -2.721,-9.17 h -0.201 l -2.6703,9.0187 z m -0.1639,-39.2634 -1.2615,5.0441 -1.6479,6.6645 h -3.8859 l -4.5289,-17.7302 h 3.7562 l 1.5444,6.9992 1.1844,5.4821 h 0.1805 l 1.364,-5.5328 1.7503,-6.9485 h 3.2937 l 1.8527,7.3085 1.2859,5.1728 h 0.1561 l 1.1054,-5.2235 1.6215,-7.2578 h 3.7572 l -4.5806,17.7302 h -3.8333 l -1.6478,-6.6909 -1.2879,-5.0177 z m 13.3291,-6.0216 H 0.6258 v 3.166 H -8.072 v 4.0654 h 7.4363 v 3.165 H -8.072 v 4.1689 h 8.6978 v 3.1649 H -11.5979 Z M 16.2457,339.02 c 0,0.8586 -0.1717,1.6167 -0.5132,2.2781 -0.3434,0.6596 -0.8205,1.2098 -1.4293,1.6469 -0.6078,0.4371 -1.3259,0.7688 -2.1483,0.9912 -0.8235,0.2225 -1.7162,0.3337 -2.6762,0.3337 -1.2878,0 -2.4957,-0.1795 -3.6274,-0.5405 -1.1337,-0.361 -2.2401,-0.9951 -3.322,-1.9035 l 1.9825,-2.5737 c 0.7727,0.601 1.5746,1.0596 2.4049,1.3766 0.8332,0.3171 1.6615,0.4752 2.4849,0.4752 0.5659,0 1.0459,-0.0547 1.441,-0.1669 0.3952,-0.1102 0.7113,-0.2653 0.9513,-0.4634 0.241,-0.1971 0.4166,-0.4205 0.5278,-0.6683 0.1112,-0.2478 0.1678,-0.5024 0.1678,-0.76 0,-0.3932 -0.0985,-0.72 -0.2956,-0.9776 -0.1981,-0.2566 -0.481,-0.4761 -0.8488,-0.6556 -0.3698,-0.1795 -0.8069,-0.3434 -1.3132,-0.4898 -0.5054,-0.1454 -1.0683,-0.3034 -1.6859,-0.4761 -0.6859,-0.1707 -1.3425,-0.3795 -1.9679,-0.6293 -0.6263,-0.2497 -1.1805,-0.5668 -1.6605,-0.9522 -0.48,-0.3873 -0.8615,-0.8586 -1.1444,-1.4166 -0.2839,-0.5571 -0.4254,-1.2313 -0.4254,-2.0196 0,-0.7717 0.1454,-1.4839 0.4342,-2.1356 0.2907,-0.6518 0.6937,-1.2147 1.2127,-1.685 0.519,-0.4722 1.1551,-0.8419 1.8956,-1.1073 0.7435,-0.2654 1.5708,-0.4 2.4791,-0.4 1.0801,-0.0166 2.162,0.0868 3.2421,0.3102 1.0819,0.2225 2.1288,0.6683 3.1396,1.3367 l -1.5435,2.8312 c -0.8225,-0.4975 -1.603,-0.839 -2.3405,-1.0283 -0.7386,-0.1892 -1.4684,-0.2839 -2.1884,-0.2839 -0.3434,0 -0.682,0.0439 -1.0156,0.1288 -0.3356,0.0859 -0.6361,0.2107 -0.9015,0.3737 -0.2654,0.1629 -0.481,0.3766 -0.6449,0.6429 -0.162,0.2664 -0.2439,0.5795 -0.2439,0.9395 0,0.361 0.0907,0.6645 0.2712,0.9132 0.1795,0.2498 0.442,0.4644 0.7893,0.644 0.3434,0.1795 0.7581,0.3385 1.2478,0.4761 0.4937,0.1366 1.0469,0.2731 1.6684,0.4117 1.8732,0.4117 3.2771,1.0381 4.203,1.8781 0.9308,0.841 1.3932,1.9561 1.3932,3.3454 z m 15.416,0 c 0,0.8586 -0.1727,1.6167 -0.5142,2.2781 -0.3434,0.6596 -0.8205,1.2098 -1.4283,1.6469 -0.6098,0.4371 -1.3269,0.7688 -2.1493,0.9912 -0.8235,0.2225 -1.7152,0.3337 -2.6772,0.3337 -1.2868,0 -2.4947,-0.1795 -3.6274,-0.5405 -1.1327,-0.361 -2.239,-0.9951 -3.321,-1.9035 l 1.9834,-2.5737 c 0.7708,0.601 1.5728,1.0596 2.405,1.3766 0.8312,0.3171 1.6605,0.4752 2.4839,0.4752 0.5659,0 1.0459,-0.0547 1.4411,-0.1669 0.3941,-0.1102 0.7122,-0.2653 0.9512,-0.4634 0.241,-0.1971 0.4156,-0.4205 0.5268,-0.6683 0.1132,-0.2478 0.1688,-0.5024 0.1688,-0.76 0,-0.3932 -0.0995,-0.72 -0.2956,-0.9776 -0.198,-0.2566 -0.481,-0.4761 -0.8507,-0.6556 -0.3679,-0.1795 -0.8049,-0.3434 -1.3103,-0.4898 -0.5074,-0.1454 -1.0693,-0.3034 -1.6859,-0.4761 -0.6878,-0.1707 -1.3444,-0.3795 -1.9698,-0.6293 -0.6244,-0.2497 -1.1796,-0.5668 -1.6596,-0.9522 -0.481,-0.3873 -0.8624,-0.8586 -1.1454,-1.4166 -0.2829,-0.5571 -0.4244,-1.2313 -0.4244,-2.0196 0,-0.7717 0.1454,-1.4839 0.4332,-2.1356 0.2917,-0.6518 0.6947,-1.2147 1.2137,-1.685 0.52,-0.4722 1.1542,-0.8419 1.8957,-1.1073 0.7424,-0.2654 1.5698,-0.4 2.479,-0.4 1.081,-0.0166 2.162,0.0868 3.2421,0.3102 1.081,0.2225 2.1278,0.6683 3.1396,1.3367 l -1.5435,2.8312 c -0.8234,-0.4975 -1.6039,-0.839 -2.3415,-1.0283 -0.7386,-0.1892 -1.4674,-0.2839 -2.1884,-0.2839 -0.3424,0 -0.6819,0.0439 -1.0166,0.1288 -0.3327,0.0859 -0.6341,0.2107 -0.9005,0.3737 -0.2654,0.1629 -0.479,0.3766 -0.6429,0.6429 -0.163,0.2664 -0.2439,0.5795 -0.2439,0.9395 0,0.361 0.0897,0.6645 0.2702,0.9132 0.1795,0.2498 0.441,0.4644 0.7883,0.644 0.3444,0.1795 0.7601,0.3385 1.2488,0.4761 0.4937,0.1366 1.0459,0.2731 1.6684,0.4117 1.8732,0.4117 3.2771,1.0381 4.203,1.8781 0.9317,0.841 1.3942,1.9561 1.3942,3.3454 z m 12.1447,1.4674 h -6.1748 l -1.1581,3.6537 h -3.7562 l 6.2275,-17.7302 h 3.602 l 6.1768,17.7302 h -3.8343 z m -5.2236,-2.9591 h 4.2723 l -0.6946,-2.2645 -1.3883,-4.685 h -0.1044 l -1.363,4.607 z m 19.7908,-11.1174 c 0.8917,0 1.6605,0.1669 2.3034,0.5025 0.643,0.3337 1.1757,0.7668 1.5952,1.2986 0.4205,0.5327 0.7298,1.1278 0.9268,1.7893 0.1971,0.6595 0.2957,1.3063 0.2957,1.9425 0,0.4624 -0.0644,0.9385 -0.1932,1.4293 -0.1278,0.4878 -0.3161,0.9512 -0.5659,1.3883 -0.2488,0.438 -0.5522,0.842 -0.9151,1.2088 -0.3591,0.3698 -0.7698,0.6742 -1.2332,0.9142 l 3.1903,7.2567 h -3.8079 c -0.0702,-0.1883 -0.1766,-0.4585 -0.3229,-0.8097 -0.1454,-0.3523 -0.3083,-0.7425 -0.4888,-1.1718 -0.1786,-0.4293 -0.3678,-0.879 -0.5649,-1.3503 -0.1991,-0.4722 -0.3873,-0.9229 -0.5659,-1.3512 -0.1805,-0.4283 -0.3434,-0.8195 -0.4898,-1.1708 -0.1463,-0.3522 -0.2614,-0.6224 -0.3473,-0.8107 h -3.1913 v 6.6645 h -3.5259 v -17.7302 z m -4.3748,7.8997 h 3.5767 c 0.8234,0 1.442,-0.2185 1.8527,-0.6605 0.4117,-0.438 0.6186,-1.0039 0.6186,-1.6937 0,-0.6907 -0.2117,-1.2605 -0.6303,-1.7073 -0.4215,-0.4508 -1.0351,-0.6722 -1.841,-0.6722 H 53.9988 Z M 8.9753,488.65 h 7.6704 v 8.891 h 2.8596 v -8.891 h 7.6714 v -68.3831 h -7.6714 v -8.7768 h -2.8596 v 8.7768 H 8.9753 Z m 144.5694,-9.208 v -30.0759 h -7.6714 v -21.902 h -2.8596 v 21.902 h -7.6705 v 17.4727 l -39.7121,-27.4983 -5.2704,6.1163 -8.7456,10.1495 -53.2345,61.7839 -22.2649,-3.0996 V 411.4901 h -18.2014 v 54.7116 h -2.8606 v -63.1743 h -21.3049 v 47.6305 57.736 2.7172 5.002 10e-4 l 10.1378,1.4117 v -0.002 l 57.5604,8.0129 1.6147,-1.8752 10.6364,-12.3447 -10e-4,-10e-4 49.5232,-57.4745 3.7113,-4.3075 0.0058,0.005 14.4843,10.0295 v -9e-4 l 2.8596,1.9805 18.2014,12.6032 2.8605,1.9806 7.1749,4.9679 11.0266,7.6353 2.8595,1.9796 6.8627,4.7523 0.002,0.001 11.3369,-14.1292 v -0.004 l 2.8595,-3.564 v 0.004 l 18.2015,-22.6854 v -0.005 l 2.8605,-3.5649 v 0.005 l 13.7194,-17.0989 0.2644,-0.3298 2.2303,1.7893 -0.0898,-0.0809 8.7544,7.0235 2.6654,-17.336 2.7415,-17.8277 -16.8101,6.5406 -16.8102,6.5397 11.0891,8.8958 -31.6759,39.478 v -41.6537 h -7.6714 v -29.4514 h -2.8596 v 29.4514 h -7.6705 v 53.9584 z m -63.184,-38.3648 v -13.6131 h -7.6714 v -29.4514 h -2.8596 v 29.4514 h -7.6704 v 34.7365 z m -39.2624,45.5659 v -75.153 h 7.6704 v -13.4774 h 2.8596 v 13.4774 h 7.6714 v 54.0286 z m 166.1679,2.6586 v -47.1816 l -4.5796,-3.6742 -14.1594,17.6472 v 47.2695 z m -18.739,17.6356 -2.8605,2.1464 -18.2015,13.6579 -2.8595,2.1454 -8.851,6.6421 h 10e-4 l -2.3493,1.762 -7.0022,-5.8762 -2.8595,-2.3991 -18.2015,-15.2745 -2.8605,-2.4001 -18.2014,-15.2745 -2.8596,-2.3991 -3.7016,-3.1064 -64.3323,49.2627 h -9e-4 l -79.6381,-14.695 v 0.0341 7.7036 9.2695 c 0,9.2344 7.5543,16.7887 16.7877,16.7887 h 222.7313 8.7563 16.7887 v -16.7887 -20.7742 -50.5661 h -9.2246 v 24.3392 l -0.52,0.3902 -1.802,1.3522 z m -2.8605,-1.4283 v -45.8509 l -18.2015,22.6854 v 36.8234 z m -21.061,15.8033 v -35.4048 l -10.9018,13.5867 -2.2303,-1.7893 v -0.001 l -5.0694,-3.5103 v 29.4885 l 7.1017,5.9592 z m -21.061,-0.0303 v -29.069 l -18.2015,-12.6032 v 26.3977 z m -21.062,-17.6745 V 477.6293 L 114.2813,465.026 v 23.3069 z m -21.061,-17.6746 v -22.8874 l -14.0023,-9.6959 -4.1991,4.8733 v 35.8409 l 12.7622,-9.7729 0.0352,0.0449 1.8458,-1.3884 z m -21.061,10.3202 V 461.542 l -1.8986,2.203 10e-4,10e-4 -16.1604,18.7556 v 27.5792 z m -44.0021,50.5388 h -9e-4 z m 25.9441,-19.8707 v 8.4002 h 18.058 v -22.2308 z" />
        </g>
      </g>
    </g>
  </g>
</svg>
