<?xml version="1.0" encoding="UTF-8" standalone="no"?>
<!-- Created with Inkscape (http://www.inkscape.org/) -->

<svg
   xmlns:dc="http://purl.org/dc/elements/1.1/"
   xmlns:cc="http://creativecommons.org/ns#"
   xmlns:rdf="http://www.w3.org/1999/02/22-rdf-syntax-ns#"
   xmlns:svg="http://www.w3.org/2000/svg"
   xmlns="http://www.w3.org/2000/svg"
   xmlns:sodipodi="http://sodipodi.sourceforge.net/DTD/sodipodi-0.dtd"
   xmlns:inkscape="http://www.inkscape.org/namespaces/inkscape"
   width="300"
   height="392"
   viewBox="0 0 79.374998 103.71667"
   version="1.1"
   id="svg8"
   inkscape:version="0.92.1 r15371"
   sodipodi:docname="Проекты-05.svg">
  <defs
     id="defs2" />
  <sodipodi:namedview
     id="base"
     pagecolor="#ffffff"
     bordercolor="#666666"
     borderopacity="1.0"
     inkscape:pageopacity="0.0"
     inkscape:pageshadow="2"
     inkscape:zoom="0.35"
     inkscape:cx="902.85714"
     inkscape:cy="585.71429"
     inkscape:document-units="mm"
     inkscape:current-layer="g4458"
     showgrid="false"
     units="px"
     inkscape:window-width="1039"
     inkscape:window-height="792"
     inkscape:window-x="-9"
     inkscape:window-y="0"
     inkscape:window-maximized="0" />
  <metadata
     id="metadata5">
    <rdf:RDF>
      <cc:Work
         rdf:about="">
        <dc:format>image/svg+xml</dc:format>
        <dc:type
           rdf:resource="http://purl.org/dc/dcmitype/StillImage" />
        <dc:title></dc:title>
      </cc:Work>
    </rdf:RDF>
  </metadata>
  <g
     inkscape:label="Layer 1"
     inkscape:groupmode="layer"
     id="layer1"
     transform="translate(0,-193.28332)">
    <g
       id="g721"
       transform="matrix(0.26458333,0,0,0.26458333,525.51237,134.30147)">
      <g
         id="g4458"
         transform="translate(-1235.5623,-815.70362)">
        <g
           id="Layer1003"
           transform="matrix(1.127519,0,0,1.127519,-1680.6249,804.54731)">
          <path
             inkscape:connector-curvature="0"
             id="path4425"
             style="fill:none"
             d="m 824.8187,208.8394 v 346.0853 h 265.064 V 208.8394 Z" />
          <path
             inkscape:connector-curvature="0"
             id="path4427"
             style="fill:#BABABA;fill-rule:evenodd"
             d="m 968.8826,307.271 v 30.0592 h -1.4312 V 307.271 Z M 860.4361,408.3095 c -3.8196,-2.96 -6.2773,-7.5924 -6.2773,-12.7983 0,-5.205 2.4577,-9.8374 6.2773,-12.7974 3.8186,2.96 6.2782,7.5924 6.2782,12.7974 0,5.2059 -2.4596,9.8383 -6.2782,12.7983 z m -1.4918,136.8414 v -64.1391 c -2.4069,-4.3045 -8.9085,-6.2889 -11.1056,-10.1681 -2.4215,-4.2752 -2.5562,-9.2217 -0.7971,-13.4286 5.7543,0.8361 12.5037,6.045 12.5027,12.2618 h 1.8079 c -0.003,-6.2168 6.7465,-11.4257 12.5018,-12.2618 1.759,4.2069 1.6234,9.1534 -0.7971,13.4286 -2.244,3.9611 -8.9739,5.9465 -11.251,10.4442 v 63.863 h 30.6963 v 9.7739 h -50.8949 c -9.2343,0 -16.7887,-7.5543 -16.7887,-16.7887 V 433.8087 401.8206 343.1382 c 0,-9.2334 7.5544,-16.7878 16.7887,-16.7878 h 82.004 v 9.773 h -81.7181 c -3.8147,0 -6.9358,3.122 -6.9358,6.9367 v 58.7605 h 8.5836 c -0.1502,0.4449 -0.2849,0.8956 -0.401,1.3503 h -8.1826 v 2.8615 h 7.6821 c -0.0897,0.9483 -0.1083,1.9064 -0.0517,2.8645 0.162,2.7386 0.9405,5.4889 2.3855,8.0411 l 0.1892,0.32 c -0.5034,0.3474 -0.9151,0.8381 -1.1668,1.4449 -1.0859,2.5972 -1.5757,5.4343 -1.4079,8.2783 0.162,2.7396 0.9405,5.4899 2.3855,8.0421 0.1317,0.2322 0.2712,0.4566 0.4175,0.6742 -0.0683,0.039 -0.1356,0.081 -0.2,0.1249 -3.3854,-0.3805 -6.7962,-0.7395 -10.2334,-1.0791 v 5.6197 c 2.6401,0.1815 5.2831,0.3873 7.928,0.6156 -0.2868,1.5025 -0.3883,3.044 -0.2976,4.5874 0.0176,0.2947 0.042,0.5903 0.0732,0.884 -2.5718,-0.1659 -5.1387,-0.3132 -7.7036,-0.4381 v 92.2032 c 0,3.8157 3.1201,6.9358 6.9358,6.9358 z m 2.4079,-81.6098 c 1.6371,-5.3133 9.2831,-7.285 11.7047,-11.5603 2.4205,-4.2742 2.5561,-9.2207 0.7971,-13.4276 -5.7553,0.8351 -12.5047,6.044 -12.5018,12.2608 z m -1.8079,0 c -1.6371,-5.3133 -9.2841,-7.285 -11.7056,-11.5603 -2.4215,-4.2742 -2.5562,-9.2207 -0.7971,-13.4276 5.7543,0.8351 12.5037,6.044 12.5027,12.2608 z m 0,-18.5848 c -1.6371,-5.3143 -9.2841,-7.2851 -11.7056,-11.5593 -2.4215,-4.2743 -2.5562,-9.2217 -0.7971,-13.4287 5.7543,0.8362 12.5037,6.046 12.5027,12.2608 z m 1.8079,0 c 1.6371,-5.3143 9.2831,-7.2851 11.7047,-11.5593 2.4205,-4.2743 2.5561,-9.2217 0.7971,-13.4287 -5.7553,0.8362 -12.5047,6.046 -12.5018,12.2608 z m 0,-18.0853 c 1.6371,-5.3124 9.2831,-7.2841 11.7047,-11.5594 2.4205,-4.2742 2.5561,-9.2216 0.7971,-13.4276 -5.7553,0.8351 -12.5047,6.045 -12.5018,12.2608 z m -1.8079,0 c -1.6371,-5.3124 -9.2841,-7.2841 -11.7056,-11.5594 -2.4215,-4.2742 -2.5562,-9.2216 -0.7971,-13.4276 5.7543,0.8351 12.5037,6.045 12.5027,12.2608 z m 231.3452,123.5366 c -0.761,0.9269 -1.6049,1.6967 -2.5318,2.3084 -0.9268,0.6117 -1.8859,1.1083 -2.8791,1.4888 -0.9922,0.3805 -1.9932,0.6537 -3.003,0.8195 -1.0088,0.1649 -1.96,0.2478 -2.8537,0.2478 -1.5883,0 -3.1688,-0.2312 -4.7406,-0.6946 -1.5717,-0.4634 -2.9776,-1.1503 -4.2186,-2.0596 -1.241,-0.9102 -2.2508,-2.0517 -3.0284,-3.4254 -0.7776,-1.3727 -1.1659,-2.9864 -1.1659,-4.8392 v -12.6578 c 0,-1.8196 0.3717,-3.4333 1.1171,-4.8392 0.7444,-1.4068 1.7367,-2.5815 2.9777,-3.524 1.241,-0.9434 2.6556,-1.6546 4.244,-2.1347 1.5883,-0.48 3.2264,-0.72 4.9142,-0.72 1.9854,0 3.9211,0.2732 5.807,0.8196 1.8859,0.5453 3.4908,1.398 4.8148,2.5561 l -3.326,5.2616 c -1.0585,-0.8937 -2.2332,-1.5142 -3.524,-1.8615 -1.2907,-0.3473 -2.5142,-0.521 -3.6732,-0.521 -0.7942,0 -1.5796,0.1073 -2.3572,0.322 -0.7775,0.2156 -1.4722,0.5707 -2.0849,1.0673 -0.6117,0.4966 -1.1171,1.1415 -1.5142,1.9357 -0.3971,0.7941 -0.5951,1.7542 -0.5951,2.8791 v 9.9768 c 0,1.1249 0.1815,2.0771 0.5454,2.8547 0.3649,0.7776 0.8439,1.4147 1.44,1.9103 0.5951,0.4966 1.2742,0.8605 2.0352,1.0927 0.761,0.2312 1.5386,0.3473 2.3327,0.3473 0.6615,0 1.3815,-0.0917 2.1591,-0.2732 0.7776,-0.1824 1.5473,-0.5873 2.3083,-1.2166 v -5.7074 h -4.964 v -5.808 h 11.7642 z m -51.0256,-17.0248 v 21.542 h -6.8002 V 520.725 h 6.1543 l 7.9417,11.7144 6.5026,9.9271 h 0.199 V 520.725 h 6.8002 v 34.1998 h -6.1885 l -8.6695,-12.9057 -5.6421,-8.6363 z m -13.7496,-12.6578 v 34.1998 h -6.8002 V 520.725 Z m -13.3018,23.2298 c 0,1.7873 -0.3395,3.3669 -1.0176,4.7406 -0.6781,1.3737 -1.5883,2.523 -2.7298,3.4498 -1.1415,0.9269 -2.4489,1.6215 -3.9221,2.085 -1.4722,0.4634 -2.9864,0.6946 -4.5416,0.6946 H 987.6967 V 520.725 h 12.9545 c 1.5552,0 3.0693,0.2234 4.5416,0.6702 1.4732,0.4469 2.7718,1.1337 3.8967,2.0606 1.1249,0.9258 2.0273,2.0761 2.7054,3.4488 0.6781,1.3737 1.0176,2.9708 1.0176,4.7904 z m -6.8997,-10.9691 c 0,-1.1249 -0.1902,-2.0771 -0.5707,-2.8547 -0.3805,-0.7775 -0.8606,-1.4146 -1.4557,-1.9103 -0.5961,-0.4966 -1.2576,-0.8527 -2.002,-1.0673 -0.7366,-0.2156 -1.4898,-0.3229 -2.2508,-0.3229 h -5.1367 v 22.0883 h 5.1367 c 0.7278,0 1.4644,-0.1073 2.2011,-0.3229 0.7444,-0.2147 1.4146,-0.5708 2.0263,-1.0674 0.6127,-0.4956 1.1006,-1.1327 1.4811,-1.9103 0.3805,-0.7775 0.5707,-1.7454 0.5707,-2.9034 z m -31.1217,14.8911 h -11.9135 l -2.2332,7.048 h -7.247 l 12.012,-34.1998 h 6.9494 l 11.9125,34.1998 h -7.3963 z m -10.0764,-5.7084 h 8.2392 l -1.3395,-4.3679 -2.681,-9.0344 h -0.1981 l -2.6313,8.8851 z m -22.981,-21.4434 c 1.72,0 3.201,0.3229 4.442,0.9688 1.241,0.6449 2.2664,1.48 3.0772,2.5064 0.8107,1.0254 1.4068,2.1756 1.7873,3.4498 0.3805,1.2732 0.5708,2.523 0.5708,3.7474 0,0.8937 -0.1239,1.8118 -0.3727,2.7542 -0.2478,0.9435 -0.6117,1.8371 -1.0917,2.6811 -0.4801,0.8439 -1.0674,1.6215 -1.762,2.3327 -0.6947,0.7112 -1.4889,1.2986 -2.3825,1.762 l 6.1552,13.9974 h -7.3465 c -0.1327,-0.3639 -0.3395,-0.8849 -0.6205,-1.5639 -0.281,-0.6781 -0.5961,-1.4313 -0.9434,-2.2576 -0.3473,-0.8274 -0.7113,-1.6967 -1.0918,-2.606 -0.3805,-0.9102 -0.7444,-1.7785 -1.0917,-2.6059 -0.3473,-0.8273 -0.6624,-1.5805 -0.9434,-2.2586 -0.281,-0.679 -0.5044,-1.2 -0.6703,-1.5639 h -6.1543 v 12.8559 h -6.8002 V 520.725 Z m -8.4383,15.2384 h 6.8987 c 1.5884,0 2.7806,-0.4215 3.5747,-1.2732 0.7942,-0.844 1.1913,-1.9367 1.1913,-3.2684 0,-1.3317 -0.4059,-2.4323 -1.2166,-3.2928 -0.8108,-0.8683 -1.9932,-1.2985 -3.5494,-1.2985 h -6.8987 z m -19.3585,-9.1329 v 28.0943 h -6.8002 v -28.0943 h -9.0831 v -6.1055 h 24.9167 v 6.1055 z m 87.7173,-25.2055 -1.2615,5.044 -1.6479,6.6636 h -3.8859 L 990.33,495.6024 h 3.7562 l 1.5444,7.0002 1.1844,5.4811 h 0.1805 l 1.3639,-5.5319 1.7503,-6.9494 h 3.2938 l 1.8527,7.3085 1.2859,5.1728 h 0.1561 l 1.1054,-5.2236 1.6215,-7.2577 h 3.7571 l -4.5806,17.7302 h -3.8332 l -1.6479,-6.6899 -1.2878,-5.0177 z m 13.3291,-6.0226 h 12.2237 v 3.1659 h -8.6978 v 4.0655 h 7.4373 v 3.1649 h -7.4373 v 4.1689 h 8.6978 v 3.165 h -12.2237 z m 27.8436,12.6101 c 0,0.8575 -0.1708,1.6156 -0.5132,2.2771 -0.3434,0.6605 -0.8205,1.2098 -1.4283,1.6468 -0.6088,0.4371 -1.3269,0.7688 -2.1494,0.9913 -0.8234,0.2224 -1.7161,0.3346 -2.6761,0.3346 -1.2869,0 -2.4957,-0.1805 -3.6274,-0.5405 -1.1337,-0.3619 -2.2401,-0.9951 -3.3221,-1.9044 l 1.9835,-2.5737 c 0.7717,0.601 1.5737,1.0595 2.404,1.3776 0.8332,0.3161 1.6615,0.4751 2.4849,0.4751 0.5659,0 1.0459,-0.0556 1.441,-0.1678 0.3951,-0.1103 0.7122,-0.2654 0.9513,-0.4634 0.2409,-0.1961 0.4166,-0.4196 0.5278,-0.6683 0.1122,-0.2478 0.1678,-0.5025 0.1678,-0.7591 0,-0.3941 -0.099,-0.721 -0.2956,-0.9776 -0.1981,-0.2575 -0.481,-0.4761 -0.8488,-0.6566 -0.3698,-0.1795 -0.8059,-0.3434 -1.3132,-0.4888 -0.5054,-0.1453 -1.0684,-0.3044 -1.6859,-0.4761 -0.6859,-0.1717 -1.3425,-0.3805 -1.9679,-0.6302 -0.6263,-0.2488 -1.1805,-0.5669 -1.6605,-0.9513 -0.48,-0.3873 -0.8615,-0.8595 -1.1444,-1.4166 -0.2839,-0.5581 -0.4254,-1.2312 -0.4254,-2.0196 0,-0.7727 0.1454,-1.4839 0.4341,-2.1356 0.2908,-0.6517 0.6937,-1.2157 1.2128,-1.6849 0.519,-0.4722 1.1551,-0.842 1.8956,-1.1084 0.7434,-0.2653 1.5708,-0.399 2.4801,-0.399 1.08,-0.0175 2.161,0.0859 3.241,0.3093 1.082,0.2234 2.1289,0.6683 3.1396,1.3376 l -1.5434,2.8303 c -0.8225,-0.4966 -1.603,-0.8391 -2.3406,-1.0283 -0.7385,-0.1893 -1.4673,-0.283 -2.1883,-0.283 -0.3434,0 -0.682,0.043 -1.0157,0.1288 -0.3356,0.0859 -0.6361,0.2108 -0.9014,0.3737 -0.2654,0.1629 -0.481,0.3766 -0.6449,0.6429 -0.162,0.2654 -0.2439,0.5786 -0.2439,0.9396 0,0.36 0.091,0.6644 0.2712,0.9132 0.1805,0.2488 0.4419,0.4634 0.7893,0.6439 0.3434,0.1785 0.759,0.3385 1.2488,0.4761 0.4927,0.1366 1.0459,0.2732 1.6673,0.4107 1.8733,0.4118 3.2772,1.0381 4.2031,1.8781 0.9307,0.841 1.3932,1.9571 1.3932,3.3465 z m 15.416,0 c 0,0.8575 -0.1718,1.6156 -0.5142,2.2771 -0.3434,0.6605 -0.8205,1.2098 -1.4283,1.6468 -0.6098,0.4371 -1.3269,0.7688 -2.1494,0.9913 -0.8234,0.2224 -1.7151,0.3346 -2.6771,0.3346 -1.2859,0 -2.4947,-0.1805 -3.6274,-0.5405 -1.1327,-0.3619 -2.2391,-0.9951 -3.3201,-1.9044 l 1.9825,-2.5737 c 0.7708,0.601 1.5727,1.0595 2.4049,1.3776 0.8313,0.3161 1.6606,0.4751 2.484,0.4751 0.5659,0 1.0459,-0.0556 1.441,-0.1678 0.3942,-0.1103 0.7122,-0.2654 0.9522,-0.4634 0.24,-0.1961 0.4147,-0.4196 0.5269,-0.6683 0.1122,-0.2478 0.1678,-0.5025 0.1678,-0.7591 0,-0.3941 -0.1,-0.721 -0.2956,-0.9776 -0.1981,-0.2575 -0.481,-0.4761 -0.8508,-0.6566 -0.3678,-0.1795 -0.8039,-0.3434 -1.3103,-0.4888 -0.5073,-0.1453 -1.0692,-0.3044 -1.6858,-0.4761 -0.6879,-0.1717 -1.3445,-0.3805 -1.9699,-0.6302 -0.6244,-0.2488 -1.1795,-0.5669 -1.6595,-0.9513 -0.48,-0.3873 -0.8625,-0.8595 -1.1454,-1.4166 -0.2829,-0.5581 -0.4244,-1.2312 -0.4244,-2.0196 0,-0.7727 0.1454,-1.4839 0.4332,-2.1356 0.2917,-0.6517 0.6946,-1.2157 1.2137,-1.6849 0.52,-0.4722 1.1541,-0.842 1.8956,-1.1084 0.7425,-0.2653 1.5698,-0.399 2.4791,-0.399 1.082,-0.0175 2.162,0.0859 3.242,0.3093 1.081,0.2234 2.1279,0.6683 3.1396,1.3376 l -1.5434,2.8303 c -0.8235,-0.4966 -1.604,-0.8391 -2.3415,-1.0283 -0.7376,-0.1893 -1.4674,-0.283 -2.1884,-0.283 -0.3424,0 -0.682,0.043 -1.0166,0.1288 -0.3327,0.0859 -0.6332,0.2108 -0.9005,0.3737 -0.2654,0.1629 -0.479,0.3766 -0.643,0.6429 -0.1629,0.2654 -0.2439,0.5786 -0.2439,0.9396 0,0.36 0.09,0.6644 0.2703,0.9132 0.1805,0.2488 0.441,0.4634 0.7883,0.6439 0.3444,0.1785 0.76,0.3385 1.2488,0.4761 0.4937,0.1366 1.0459,0.2732 1.6683,0.4107 1.8742,0.4118 3.2772,1.0381 4.2031,1.8781 0.9317,0.841 1.3942,1.9571 1.3942,3.3465 z m 12.1446,1.4663 h -6.1747 l -1.1571,3.6538 h -3.7572 l 6.2275,-17.7302 h 3.602 l 6.1767,17.7302 h -3.8342 z m -5.2225,-2.9581 h 4.2713 l -0.6937,-2.2654 -1.3893,-4.685 h -0.1044 l -1.3629,4.6069 z m 19.7897,-11.1183 c 0.8918,0 1.6606,0.1678 2.3045,0.5024 0.6419,0.3347 1.1746,0.7669 1.5942,1.2996 0.4205,0.5317 0.7297,1.1278 0.9268,1.7883 0.1971,0.6605 0.2956,1.3064 0.2956,1.9435 0,0.4624 -0.064,0.9385 -0.1931,1.4293 -0.1279,0.4878 -0.3162,0.9512 -0.5659,1.3873 -0.2488,0.4381 -0.5522,0.842 -0.9152,1.2098 -0.359,0.3688 -0.7697,0.6732 -1.2332,0.9142 l 3.1913,7.2558 h -3.8088 c -0.07,-0.1883 -0.1766,-0.4586 -0.322,-0.8098 -0.1463,-0.3522 -0.3093,-0.7415 -0.4888,-1.1708 -0.1795,-0.4292 -0.3688,-0.879 -0.5659,-1.3512 -0.199,-0.4722 -0.3873,-0.922 -0.5658,-1.3503 -0.1805,-0.4293 -0.3434,-0.8205 -0.4898,-1.1717 -0.1463,-0.3522 -0.2615,-0.6215 -0.3473,-0.8098 h -3.1903 v 6.6636 h -3.527 v -17.7302 z m -4.3737,7.8997 h 3.5766 c 0.8225,0 1.441,-0.2185 1.8518,-0.6595 0.4117,-0.4391 0.6185,-1.004 0.6185,-1.6937 0,-0.6908 -0.2107,-1.2615 -0.6302,-1.7074 -0.4205,-0.4517 -1.0352,-0.6732 -1.8401,-0.6732 h -3.5766 z M 877.3545,401.8206 h 46.2568 v 1.3503 h -45.8558 c -0.1161,-0.4557 -0.2507,-0.9054 -0.401,-1.3503 z m 0.9015,4.2118 h 45.3553 v 22.584 0.6585 c -6.3377,0.4839 -12.7867,1.1796 -19.1781,2.041 -9.7299,1.3103 -19.3399,3.005 -28.2338,4.9172 -0.2078,-0.2097 -0.442,-0.3892 -0.6947,-0.5356 0.1464,-0.2176 0.2859,-0.442 0.4176,-0.6742 1.4449,-2.5522 2.2235,-5.3025 2.3854,-8.0421 0.1678,-2.844 -0.3219,-5.6811 -1.4078,-8.2783 -0.2517,-0.6068 -0.6634,-1.0975 -1.1669,-1.4458 l 0.1893,-0.3191 c 1.4449,-2.5522 2.2235,-5.3025 2.3854,-8.0421 0.0566,-0.9581 0.0381,-1.9152 -0.0517,-2.8635 z m 66.5636,25.4455 H 989.85 c -6.3192,1.5903 -12.6686,3.4772 -19.0483,5.6587 -11.7486,4.0167 -23.6035,9.0373 -35.557,15.0579 l 0.1132,0.2244 c -18.1409,-4.8655 -37.3082,-8.9183 -57.5009,-12.1603 -0.0751,-0.321 -0.1581,-0.64 -0.2488,-0.9561 8.6158,-1.8332 17.8843,-3.4596 27.2641,-4.7221 12.1047,-1.6303 28.6612,-2.9923 39.9473,-3.1025 z m -18.3468,-2.8615 v -26.7958 -97.4112 l 29.6398,-14.895 29.6426,-14.8959 14.4687,7.2714 v -17.018 -2.8616 -2.8615 -8.6958 h 2.8615 v 8.6958 h 8.5846 v -8.6958 h 2.8615 v 8.6958 h 45.1182 v -8.6958 h -5.723 v -2.8615 h 5.723 v -5.7231 h -5.723 v -2.8615 h 5.723 2.8616 8.5846 2.8615 5.724 v 2.8615 h -5.724 v 5.7231 h 5.724 v 2.8615 h -5.724 v 8.6958 h 5.724 v 2.8615 2.8616 h -5.724 v 33.4788 l 12.0569,6.0587 h -12.0569 -2.8615 -8.5846 -2.8616 -32.9169 -12.2013 -2.8615 -8.5846 -2.8615 -32.7725 l 29.6397,-14.895 3.1328,-1.5746 2.8615,-1.4381 8.5846,-4.3133 v -10e-4 l 2.8615,-1.4381 v 10e-4 l 12.2013,-6.1318 29.6417,14.8959 3.2752,1.6459 v -26.2884 h -45.1182 v 12.6852 l -2.8615,1.44 v -14.1252 h -8.5846 v 18.4453 l -0.011,0.006 0.011,0.005 -38.4556,19.3517 -0.0107,1.7298 h -0.009 v 1.4371 95.9741 23.5479 3.2479 h -23.9469 l -0.1444,-0.0996 c -1.5903,0.0157 -3.1981,0.0488 -4.8226,0.0996 z m -48.1543,16.7574 c 36.9618,5.9807 74.3569,16.3634 112.1851,31.151 33.474,-8.8285 66.6007,-14.1183 99.3791,-15.8706 v 5.7885 c -30.9696,1.0653 -62.4045,5.0967 -94.3067,12.091 2.0585,0.8254 4.1181,1.6625 6.1786,2.5132 -2.239,-0.8137 -4.4752,-1.6108 -6.7094,-2.3961 -26.0328,5.7347 -52.3769,13.4393 -79.0302,23.1215 24.7128,-10.2071 49.2422,-18.5419 73.5881,-25.0084 -37.996,-12.9906 -75.3589,-21.941 -112.0837,-26.8534 0.442,-1.4302 0.7025,-2.8898 0.7883,-4.3454 z m -30.8535,60.782 c -2.5356,-1.9659 -4.1679,-5.0421 -4.1679,-8.4978 0,-3.4556 1.6323,-6.5308 4.1679,-8.4977 2.5357,1.9669 4.1689,5.0421 4.1689,8.4977 0,3.4557 -1.6332,6.5319 -4.1689,8.4978 z m 41.5884,10.3642 c 0.9219,-2.9942 5.2313,-4.1055 6.5952,-6.5134 1.364,-2.4088 1.4401,-5.1962 0.4498,-7.566 -3.243,0.4703 -7.046,3.4059 -7.045,6.9085 z m -0.5162,-31.1208 c -2.1512,-1.6683 -3.5366,-4.2772 -3.5366,-7.2109 0,-2.9337 1.3854,-5.5435 3.5366,-7.2109 2.1523,1.6674 3.5377,4.2772 3.5377,7.2109 0,2.9337 -1.3854,5.5426 -3.5377,7.2109 z m -0.5024,10.4588 c -0.922,-2.9932 -5.2313,-4.1045 -6.5953,-6.5133 -1.3639,-2.4089 -1.44,-5.1963 -0.4488,-7.5661 3.2421,0.4713 7.0451,3.406 7.0441,6.9085 z m 1.0186,0 c 0.9219,-2.9932 5.2313,-4.1045 6.5952,-6.5133 1.364,-2.4089 1.4401,-5.1963 0.4498,-7.5661 -3.243,0.4713 -7.046,3.406 -7.045,6.9085 z m -1.0186,10.1905 c -0.922,-2.9942 -5.2313,-4.1055 -6.5953,-6.5133 -1.3639,-2.4089 -1.44,-5.1963 -0.4488,-7.567 3.2421,0.4712 7.0451,3.4069 7.0441,6.9094 z m 1.0186,0 c 0.9219,-2.9942 5.2313,-4.1055 6.5952,-6.5133 1.364,-2.4089 1.4401,-5.1963 0.4498,-7.567 -3.243,0.4712 -7.046,3.4069 -7.045,6.9094 z m -1.0186,10.4715 c -0.922,-2.9942 -5.2313,-4.1055 -6.5953,-6.5134 -1.3639,-2.4088 -1.44,-5.1962 -0.4488,-7.566 3.2421,0.4703 7.0451,3.4059 7.0441,6.9085 z m -17.1097,13.6793 c 0.7122,-2.3112 4.0391,-3.1688 5.0918,-5.0284 1.0537,-1.8595 1.1123,-4.0118 0.3474,-5.8411 -2.5035,0.3629 -5.4402,2.6293 -5.4392,5.3338 z m -0.398,-24.0259 c -1.6616,-1.2879 -2.7308,-3.3025 -2.7308,-5.568 0,-2.2644 1.0692,-4.2791 2.7308,-5.5669 1.6605,1.2878 2.7308,3.3025 2.7308,5.5669 0,2.2655 -1.0703,4.2801 -2.7308,5.568 z m -0.3883,8.0743 c -0.7123,-2.3113 -4.0382,-3.1688 -5.0919,-5.0284 -1.0527,-1.8596 -1.1122,-4.0118 -0.3463,-5.8411 2.5034,0.3629 5.4391,2.6293 5.4382,5.3338 z m 0.7863,0 c 0.7122,-2.3113 4.0391,-3.1688 5.0918,-5.0284 1.0537,-1.8596 1.1123,-4.0118 0.3474,-5.8411 -2.5035,0.3629 -5.4402,2.6293 -5.4392,5.3338 z m -0.7863,7.8675 c -0.7123,-2.3122 -4.0382,-3.1688 -5.0919,-5.0284 -1.0527,-1.8595 -1.1122,-4.0118 -0.3463,-5.8421 2.5034,0.3639 5.4391,2.6303 5.4382,5.3338 z m 0.7863,0 c 0.7122,-2.3122 4.0391,-3.1688 5.0918,-5.0284 1.0537,-1.8595 1.1123,-4.0118 0.3474,-5.8421 -2.5035,0.3639 -5.4402,2.6303 -5.4392,5.3338 z m -0.7863,8.0841 c -0.7123,-2.3112 -4.0382,-3.1688 -5.0919,-5.0284 -1.0527,-1.8595 -1.1122,-4.0118 -0.3463,-5.8411 2.5034,0.3629 5.4391,2.6293 5.4382,5.3338 z m -22.065,0.2888 c 1.0869,-3.5279 6.1651,-4.8372 7.7719,-7.6753 1.6079,-2.8381 1.6966,-6.1221 0.5288,-8.9163 -3.8206,0.5551 -8.3026,4.0147 -8.3007,8.1417 z m -1.201,0 c -1.0868,-3.5279 -6.165,-4.8372 -7.7719,-7.6753 -1.6078,-2.8381 -1.6966,-6.1221 -0.5288,-8.9163 3.8206,0.5551 8.3017,4.0147 8.3007,8.1417 z m 0,12.3398 c -1.0868,-3.5279 -6.165,-4.8372 -7.7719,-7.6753 -1.6078,-2.8381 -1.6966,-6.1221 -0.5288,-8.9153 3.8206,0.5541 8.3017,4.0128 8.3007,8.1407 z m 1.201,0 c 1.0869,-3.5279 6.1651,-4.8372 7.7719,-7.6753 1.6079,-2.8381 1.6966,-6.1221 0.5288,-8.9153 -3.8206,0.5541 -8.3026,4.0128 -8.3007,8.1407 z m 0,-24.3469 c 1.0869,-3.5289 6.1651,-4.8382 7.7719,-7.6763 1.6079,-2.8381 1.6966,-6.1231 0.5288,-8.9163 -3.8206,0.5551 -8.3026,4.0147 -8.3007,8.1417 z m -1.201,0 c -1.0868,-3.5289 -6.165,-4.8382 -7.7719,-7.6763 -1.6078,-2.8381 -1.6966,-6.1231 -0.5288,-8.9163 3.8206,0.5551 8.3017,4.0147 8.3007,8.1417 z m 53.7828,-118.0546 v -6.6216 h 6.1797 v -9.5437 h 6.1796 v 16.1643 h -6.1796 v 10e-4 z m 39.1161,53.1994 c 14.5847,4.0557 28.4953,8.6441 41.7307,13.7681 10.1486,-9.3758 20.6571,-17.2297 31.5198,-23.5586 8.7768,-5.1133 17.7907,-9.2334 27.0348,-12.3574 h -34.5188 c -11.1271,1.9815 -22.3567,4.9104 -33.6789,8.7807 -10.6052,3.6255 -21.303,8.0821 -32.0876,13.3672 z m 45.1464,15.1076 c 2.3055,0.9162 4.5894,1.8508 6.8529,2.8001 16.3184,-5.3006 33.3647,-9.3866 51.1388,-12.2618 6.7621,-7.3162 13.6647,-13.5135 20.7039,-18.5877 5.0606,-3.6479 10.1915,-6.7163 15.3916,-9.2061 h -27.2602 l -2.5122,0.6576 c -11.894,3.2088 -23.4152,8.0607 -34.5579,14.5525 -10.2364,5.9631 -20.1557,13.3125 -29.7569,22.0454 z m 102.5196,-37.2555 c -7.445,2.7601 -14.7477,6.7211 -21.902,11.8774 -5.8645,4.2274 -11.6373,9.2597 -17.3155,15.0959 13.4754,-1.9805 27.3636,-3.2752 41.6625,-3.8849 v -23.0884 z m 2.445,-2.8615 v -36.9756 h -3.8684 V 307.271 h -58.4688 v 30.0592 h 55.6072 v 2.8616 h -55.6072 v 30.0592 h 55.6072 v 2.8616 h -55.6072 v 30.0583 h 55.6072 v 2.8615 h -55.6072 v 22.584 h 55.6072 z m -27.3714,-136.018 8.5846,4.3143 v -32.0408 h -8.5846 z m 0,-33.4496 h 8.5846 v -8.6958 h -8.5846 z m 0,-11.5573 h 8.5846 v -5.7231 h -8.5846 z m -93.6287,92.6003 v 30.0592 h -1.4312 v -30.0592 z m 0,32.9208 v 30.0583 h -1.4312 v -30.0583 z m 0,32.9198 v 22.584 h -1.4312 v -22.584 z m 55.8014,-98.7614 v 30.0592 h -8.5856 V 307.271 Z m 0,32.9208 v 30.0592 h -8.5856 v -30.0592 z m 0,32.9208 v 30.0583 h -8.5856 v -30.0583 z m 0,32.9198 v 22.584 h -8.5856 v -22.584 z m -11.4471,-98.7614 v 30.0592 h -5.7231 V 307.271 Z m 0,32.9208 v 30.0592 h -5.7231 v -30.0592 z m 0,32.9208 v 30.0583 h -5.7231 v -30.0583 z m 0,32.9198 v 22.584 h -5.7231 v -22.584 z m -8.5846,-98.7614 v 30.0592 h -5.7231 V 307.271 Z m 0,32.9208 v 30.0592 h -5.7231 v -30.0592 z m 0,32.9208 v 30.0583 h -5.7231 v -30.0583 z m 0,32.9198 v 22.584 h -5.7231 v -22.584 z m -8.5846,-98.7614 v 30.0592 h -5.7231 V 307.271 Z m 0,32.9208 v 30.0592 h -5.7231 v -30.0592 z m 0,32.9208 v 30.0583 h -5.7231 v -30.0583 z m 0,32.9198 v 22.584 h -5.7231 v -22.584 z m -8.5846,-98.7614 v 30.0592 h -4.2928 V 307.271 Z m 0,32.9208 v 30.0592 h -4.2928 v -30.0592 z m 0,32.9208 v 30.0583 h -4.2928 v -30.0583 z m 0,32.9198 v 22.584 h -4.2928 v -22.584 z m -7.1543,-98.7614 v 30.0592 h -2.8616 V 307.271 Z m 0,32.9208 v 30.0592 h -2.8616 v -30.0592 z m 0,32.9208 v 30.0583 h -2.8616 v -30.0583 z m 0,32.9198 v 22.584 h -2.8616 v -22.584 z m -5.7231,-98.7614 v 30.0592 h -2.8615 V 307.271 Z m 0,32.9208 v 30.0592 h -2.8615 v -30.0592 z m 0,32.9208 v 30.0583 h -2.8615 v -30.0583 z m 0,32.9198 v 22.584 h -2.8615 v -22.584 z" />
        </g>
      </g>
    </g>
  </g>
</svg>
