<?xml version="1.0" encoding="UTF-8" standalone="no"?>
<!-- Created with Inkscape (http://www.inkscape.org/) -->

<svg
   xmlns:dc="http://purl.org/dc/elements/1.1/"
   xmlns:cc="http://creativecommons.org/ns#"
   xmlns:rdf="http://www.w3.org/1999/02/22-rdf-syntax-ns#"
   xmlns:svg="http://www.w3.org/2000/svg"
   xmlns="http://www.w3.org/2000/svg"
   xmlns:sodipodi="http://sodipodi.sourceforge.net/DTD/sodipodi-0.dtd"
   xmlns:inkscape="http://www.inkscape.org/namespaces/inkscape"
   width="300"
   height="392"
   viewBox="0 0 79.374998 103.71667"
   version="1.1"
   id="svg8"
   inkscape:version="0.92.1 r15371"
   sodipodi:docname="Проекты-04.svg">
  <defs
     id="defs2" />
  <sodipodi:namedview
     id="base"
     pagecolor="#ffffff"
     bordercolor="#666666"
     borderopacity="1.0"
     inkscape:pageopacity="0.0"
     inkscape:pageshadow="2"
     inkscape:zoom="0.35"
     inkscape:cx="902.85714"
     inkscape:cy="585.71429"
     inkscape:document-units="mm"
     inkscape:current-layer="g4458"
     showgrid="false"
     units="px"
     inkscape:window-width="1039"
     inkscape:window-height="792"
     inkscape:window-x="-9"
     inkscape:window-y="0"
     inkscape:window-maximized="0" />
  <metadata
     id="metadata5">
    <rdf:RDF>
      <cc:Work
         rdf:about="">
        <dc:format>image/svg+xml</dc:format>
        <dc:type
           rdf:resource="http://purl.org/dc/dcmitype/StillImage" />
        <dc:title></dc:title>
      </cc:Work>
    </rdf:RDF>
  </metadata>
  <g
     inkscape:label="Layer 1"
     inkscape:groupmode="layer"
     id="layer1"
     transform="translate(0,-193.28332)">
    <g
       id="g721"
       transform="matrix(0.26458333,0,0,0.26458333,525.51237,134.30147)">
      <g
         id="g4458"
         transform="translate(-1235.5623,-815.70362)">
        <g
           id="Layer1002"
           transform="matrix(1.1317974,0,0,1.1317974,-1359.3001,802.35816)">
          <path
             inkscape:connector-curvature="0"
             id="path4420"
             style="fill:none"
             d="m 537.7941,208.8394 v 346.0853 h 265.064 V 208.8394 Z" />
          <path
             inkscape:connector-curvature="0"
             id="path4422"
             style="fill:#BABABA;fill-rule:evenodd"
             d="m 544.5854,534.7311 h 14.3282 v 6.0978 h -14.3282 v 13.931 H 537.794 V 520.602 h 23.5479 v 6.0977 H 544.5854 Z M 659.1648,336.1243 h 127.0129 c 3.8157,0 6.9367,3.1221 6.9367,6.9368 v 41.1337 h 9.7437 v -41.0556 c 0,-9.2334 -7.5563,-16.7878 -16.7877,-16.7878 H 659.1648 Z m 133.9496,58.54 h 9.7437 v -5.844 h -9.7437 z m -136.8892,16.4482 h 53.3555 v -6.2645 c 0,-1.5854 1.2966,-2.882 2.882,-2.882 h 34.4701 c 1.5864,0 2.883,1.2966 2.883,2.882 v 6.2645 2.8616 h -40.2351 -53.3555 z m 76.0351,0 h 14.6071 v -4.886 c 0,-0.8439 -0.6897,-1.5327 -1.5327,-1.5327 h -13.0744 z m -27.591,56.0492 H 537.795 l 0.0225,7.7797 166.8518,-0.0381 z m -87.9211,-7.7797 h 36.6155 V 326.3504 h -36.6155 z m 8.4753,-97.3175 h 19.5917 v 2.8615 h -19.5917 z m 0,4.7377 h 19.5917 v 2.8615 h -19.5917 z m -3.6245,-11.2803 h 26.9139 v 46.4645 H 621.599 Z m 13.4569,66.3792 c 2.442,0 4.4216,1.9795 4.4216,4.4215 0,2.4421 -1.9796,4.4216 -4.4216,4.4216 -2.442,0 -4.4215,-1.9795 -4.4215,-4.4216 0,-2.442 1.9795,-4.4215 4.4215,-4.4215 z m 0,-4.9758 c 5.1904,0 9.3973,4.207 9.3973,9.3973 0,5.1904 -4.2069,9.3973 -9.3973,9.3973 -5.1903,0 -9.3973,-4.2069 -9.3973,-9.3973 0,-5.1903 4.207,-9.3973 9.3973,-9.3973 z m -57.7848,42.4567 h 36.6155 V 326.3504 h -36.6155 z m 8.4753,-97.3175 h 19.5917 v 2.8615 h -19.5917 z m 0,4.7377 h 19.5917 v 2.8615 h -19.5917 z m -3.6244,-11.2803 h 26.9138 v 46.4645 H 582.122 Z m 13.4569,66.3792 c 2.442,0 4.4215,1.9795 4.4215,4.4215 0,2.4421 -1.9795,4.4216 -4.4215,4.4216 -2.442,0 -4.4216,-1.9795 -4.4216,-4.4216 0,-2.442 1.9796,-4.4215 4.4216,-4.4215 z m 0,-4.9758 c 5.1903,0 9.3973,4.207 9.3973,9.3973 0,5.1904 -4.207,9.3973 -9.3973,9.3973 -5.1904,0 -9.3973,-4.2069 -9.3973,-9.3973 0,-5.1903 4.2069,-9.3973 9.3973,-9.3973 z M 537.794,459.382 h 36.6156 V 326.3504 H 537.794 v 96.0824 h 9.7525 c 1.479,-3.2489 4.7533,-5.5075 8.5563,-5.5075 5.1904,0 9.3973,4.207 9.3973,9.3973 0,5.1904 -4.2069,9.3973 -9.3973,9.3973 -3.8069,0 -7.086,-2.2634 -8.5622,-5.5191 l -9.7466,-0.0195 z m 8.4754,-92.5798 h 19.5917 v 2.8615 h -19.5917 z m 0,-4.7377 h 19.5917 v 2.8615 h -19.5917 z m -3.6245,-6.5426 h 26.9138 v 46.4645 h -26.9138 z m 13.4579,66.3792 c 2.442,0 4.4216,1.9795 4.4216,4.4215 0,2.4421 -1.9796,4.4216 -4.4216,4.4216 -2.442,0 -4.4216,-1.9795 -4.4216,-4.4216 0,-2.442 1.9796,-4.4215 4.4216,-4.4215 z M 782.201,554.9248 h 2.8596 v -54.4579 h 14.9379 v 54.4579 h 2.8596 10e-4 V 414.3292 h -10e-4 v -8.5319 c 0,-2.1084 -1.724,-3.8323 -3.8323,-3.8323 h -41.681 c -2.1084,0 -3.8323,1.7239 -3.8323,3.8323 v 11.0383 h -97.2873 v 42.5464 h 90.3798 v 44.5484 50.9944 h 2.8606 v -50.9944 -29.6105 h 14.9379 v 29.6105 50.9944 h 2.8596 v -50.9944 -14.6726 h 14.9379 v 14.6726 z m 15.7477,-150.231 h -13.0745 v 6.4187 h 14.6062 v -4.886 c 0,-0.8439 -0.6888,-1.5327 -1.5317,-1.5327 z m -82.8957,62.4679 h -7.6646 v 7.7446 h 7.6646 z m 10.3905,0 h -7.6655 v 7.7446 h 7.6655 z m 17.3312,0 h -14.6062 v 7.7446 h 14.6062 z m -193.6565,34.4633 -1.2615,5.044 -1.6468,6.6636 h -3.887 l -4.5289,-17.7302 h 3.7572 l 1.5444,7.0002 1.1835,5.4811 h 0.1805 l 1.3639,-5.5319 1.7503,-6.9494 h 3.2947 l 1.8518,7.3085 1.2868,5.1728 h 0.1552 l 1.1053,-5.2236 1.6215,-7.2577 h 3.7582 l -4.5806,17.7302 h -3.8342 l -1.6479,-6.6899 -1.2869,-5.0177 z m 13.3291,-6.0226 h 12.2237 v 3.1659 h -8.6977 v 4.0655 h 7.4372 v 3.1649 h -7.4372 v 4.1689 h 8.6977 v 3.165 h -12.2237 z m 27.8436,12.6101 c 0,0.8575 -0.1707,1.6156 -0.5131,2.2771 -0.3435,0.6605 -0.8206,1.2098 -1.4284,1.6468 -0.6088,0.4371 -1.3259,0.7688 -2.1493,0.9913 -0.8224,0.2224 -1.7152,0.3346 -2.6762,0.3346 -1.2868,0 -2.4956,-0.1805 -3.6274,-0.5405 -1.1336,-0.3619 -2.239,-0.9951 -3.321,-1.9044 l 1.9825,-2.5737 c 0.7717,0.601 1.5737,1.0595 2.4039,1.3776 0.8332,0.3161 1.6615,0.4751 2.485,0.4751 0.5658,0 1.0459,-0.0556 1.442,-0.1678 0.3941,-0.1103 0.7112,-0.2654 0.9512,-0.4634 0.241,-0.1961 0.4166,-0.4196 0.5278,-0.6683 0.1112,-0.2478 0.1669,-0.5025 0.1669,-0.7591 0,-0.3941 -0.0986,-0.721 -0.2957,-0.9776 -0.197,-0.2575 -0.481,-0.4761 -0.8478,-0.6566 -0.3707,-0.1795 -0.8068,-0.3434 -1.3142,-0.4888 -0.5053,-0.1453 -1.0683,-0.3044 -1.6859,-0.4761 -0.6858,-0.1717 -1.3424,-0.3805 -1.9678,-0.6302 -0.6264,-0.2488 -1.1805,-0.5669 -1.6605,-0.9513 -0.4791,-0.3873 -0.8615,-0.8595 -1.1435,-1.4166 -0.2849,-0.5581 -0.4254,-1.2312 -0.4254,-2.0196 0,-0.7727 0.1444,-1.4839 0.4332,-2.1356 0.2917,-0.6517 0.6947,-1.2157 1.2127,-1.6849 0.5191,-0.4722 1.1552,-0.842 1.8957,-1.1084 0.7434,-0.2653 1.5708,-0.399 2.48,-0.399 1.0801,-0.0175 2.1621,0.0859 3.2421,0.3093 1.081,0.2234 2.1278,0.6683 3.1396,1.3376 l -1.5445,2.8303 c -0.8224,-0.4966 -1.6029,-0.8391 -2.3405,-1.0283 -0.7376,-0.1893 -1.4674,-0.283 -2.1884,-0.283 -0.3424,0 -0.6809,0.043 -1.0156,0.1288 -0.3356,0.0859 -0.6351,0.2108 -0.9015,0.3737 -0.2653,0.1629 -0.481,0.3766 -0.6449,0.6429 -0.1619,0.2654 -0.2429,0.5786 -0.2429,0.9396 0,0.36 0.0907,0.6644 0.2703,0.9132 0.1804,0.2488 0.4419,0.4634 0.7892,0.6439 0.3435,0.1785 0.7591,0.3385 1.2488,0.4761 0.4937,0.1366 1.0459,0.2732 1.6674,0.4107 1.8742,0.4118 3.2772,1.0381 4.203,1.8781 0.9308,0.841 1.3932,1.9571 1.3932,3.3465 z m 15.416,0 c 0,0.8575 -0.1717,1.6156 -0.5141,2.2771 -0.3435,0.6605 -0.8205,1.2098 -1.4284,1.6468 -0.6097,0.4371 -1.3258,0.7688 -2.1493,0.9913 -0.8224,0.2224 -1.7142,0.3346 -2.6771,0.3346 -1.2859,0 -2.4947,-0.1805 -3.6274,-0.5405 -1.1318,-0.3619 -2.2381,-0.9951 -3.3201,-1.9044 l 1.9825,-2.5737 c 0.7707,0.601 1.5737,1.0595 2.4049,1.3776 0.8313,0.3161 1.6605,0.4751 2.484,0.4751 0.5658,0 1.0459,-0.0556 1.442,-0.1678 0.3931,-0.1103 0.7112,-0.2654 0.9512,-0.4634 0.241,-0.1961 0.4156,-0.4196 0.5269,-0.6683 0.1122,-0.2478 0.1678,-0.5025 0.1678,-0.7591 0,-0.3941 -0.0996,-0.721 -0.2957,-0.9776 -0.197,-0.2575 -0.4809,-0.4761 -0.8497,-0.6566 -0.3688,-0.1795 -0.8049,-0.3434 -1.3113,-0.4888 -0.5063,-0.1453 -1.0693,-0.3044 -1.6859,-0.4761 -0.6878,-0.1717 -1.3434,-0.3805 -1.9698,-0.6302 -0.6244,-0.2488 -1.1795,-0.5669 -1.6586,-0.9513 -0.4809,-0.3873 -0.8634,-0.8595 -1.1454,-1.4166 -0.2839,-0.5581 -0.4244,-1.2312 -0.4244,-2.0196 0,-0.7727 0.1444,-1.4839 0.4323,-2.1356 0.2917,-0.6517 0.6956,-1.2157 1.2136,-1.6849 0.5201,-0.4722 1.1542,-0.842 1.8957,-1.1084 0.7425,-0.2653 1.5698,-0.399 2.4791,-0.399 1.082,-0.0175 2.163,0.0859 3.243,0.3093 1.081,0.2234 2.1269,0.6683 3.1396,1.3376 l -1.5435,2.8303 c -0.8244,-0.4966 -1.6049,-0.8391 -2.3425,-1.0283 -0.7376,-0.1893 -1.4673,-0.283 -2.1883,-0.283 -0.3415,0 -0.681,0.043 -1.0166,0.1288 -0.3327,0.0859 -0.6332,0.2108 -0.9005,0.3737 -0.2654,0.1629 -0.4791,0.3766 -0.643,0.6429 -0.1629,0.2654 -0.2429,0.5786 -0.2429,0.9396 0,0.36 0.0897,0.6644 0.2693,0.9132 0.1805,0.2488 0.4409,0.4634 0.7883,0.6439 0.3444,0.1785 0.76,0.3385 1.2488,0.4761 0.4946,0.1366 1.0468,0.2732 1.6683,0.4107 1.8742,0.4118 3.2772,1.0381 4.203,1.8781 0.9318,0.841 1.3942,1.9571 1.3942,3.3465 z m 12.1457,1.4663 h -6.1748 l -1.1581,3.6538 h -3.7571 l 6.2274,-17.7302 h 3.6021 l 6.1767,17.7302 h -3.8342 z m -5.2236,-2.9581 h 4.2723 l -0.6946,-2.2654 -1.3893,-4.685 h -0.1034 l -1.364,4.6069 z m 19.7898,-11.1183 c 0.8917,0 1.6605,0.1678 2.3044,0.5024 0.643,0.3347 1.1747,0.7669 1.5952,1.2996 0.4195,0.5317 0.7298,1.1278 0.9259,1.7883 0.1971,0.6605 0.2956,1.3064 0.2956,1.9435 0,0.4624 -0.0634,0.9385 -0.1922,1.4293 -0.1288,0.4878 -0.3171,0.9512 -0.5668,1.3873 -0.2479,0.4381 -0.5523,0.842 -0.9142,1.2098 -0.36,0.3688 -0.7708,0.6732 -1.2342,0.9142 l 3.1913,7.2558 h -3.8089 c -0.0692,-0.1883 -0.1766,-0.4586 -0.3219,-0.8098 -0.1454,-0.3522 -0.3093,-0.7415 -0.4888,-1.1708 -0.1795,-0.4292 -0.3688,-0.879 -0.5659,-1.3512 -0.198,-0.4722 -0.3863,-0.922 -0.5659,-1.3503 -0.1804,-0.4293 -0.3434,-0.8205 -0.4897,-1.1717 -0.1454,-0.3522 -0.2605,-0.6215 -0.3464,-0.8098 h -3.1913 v 6.6636 h -3.5259 v -17.7302 z m -4.3738,7.8997 h 3.5767 c 0.8225,0 1.441,-0.2185 1.8518,-0.6595 0.4127,-0.4391 0.6185,-1.004 0.6185,-1.6937 0,-0.6908 -0.2107,-1.2615 -0.6302,-1.7074 -0.4205,-0.4517 -1.0342,-0.6732 -1.8401,-0.6732 h -3.5767 z m 77.9093,17.0999 h 23.5478 v 6.0977 h -16.7565 v 7.8334 h 14.3282 v 6.0977 h -14.3282 v 8.0314 h 16.7565 v 6.0977 h -23.5478 z m -7.7837,8.2792 c -1.0575,-0.8927 -2.1981,-1.5122 -3.4205,-1.8585 -1.2235,-0.3474 -2.4128,-0.521 -3.5699,-0.521 -0.76,0 -1.52,0.1073 -2.281,0.3219 -0.76,0.2157 -1.4371,0.5708 -2.0322,1.0664 -0.5952,0.4956 -1.082,1.1405 -1.4625,1.9337 -0.3795,0.7932 -0.5698,1.7513 -0.5698,2.8752 v 9.9641 c 0,1.124 0.1903,2.0742 0.5698,2.8509 0.3805,0.7766 0.8761,1.4127 1.4878,1.9093 0.6108,0.4956 1.2888,0.8585 2.0323,1.0897 0.7434,0.2322 1.4956,0.3474 2.2556,0.3474 1.1571,0 2.322,-0.1649 3.4948,-0.4956 1.1736,-0.3308 2.3551,-0.9581 3.5454,-1.884 l 3.2215,5.2548 c -1.2556,1.0576 -2.7922,1.8839 -4.6098,2.4791 -1.8176,0.5951 -3.7347,0.8927 -5.7514,0.8927 -1.6195,0 -3.2059,-0.2313 -4.7591,-0.6947 -1.5532,-0.4624 -2.9416,-1.1483 -4.164,-2.0566 -1.2235,-0.9093 -2.2147,-2.0498 -2.9747,-3.4216 -0.7601,-1.3707 -1.1405,-2.9825 -1.1405,-4.8333 v -12.7905 c 0,-1.8176 0.3717,-3.4128 1.1161,-4.7845 0.7434,-1.3708 1.7181,-2.5201 2.9249,-3.445 1.2059,-0.9259 2.5855,-1.6195 4.1396,-2.082 1.5532,-0.4634 3.1396,-0.6946 4.7592,-0.6946 1.9825,0 3.8918,0.2644 5.726,0.7931 1.8342,0.5288 3.4118,1.3718 4.7337,2.5289 z m -46.7006,4.3631 v 21.5156 h -6.7914 V 520.602 h 6.1475 l 7.9319,11.6998 6.4948,9.9154 h 0.198 V 520.602 h 6.7914 v 34.1579 h -6.1797 l -8.6597,-12.89 -5.6352,-8.6256 z m -19.6805,14.4755 h -11.8988 l -2.2303,7.0401 h -7.2382 l 11.9973,-34.1579 h 6.9407 l 11.8978,34.1579 h -7.3865 z m -10.0646,-5.7007 h 8.2294 l -1.3385,-4.363 -2.6772,-9.0227 h -0.198 l -2.6274,8.8744 z m -35.3472,-8.7748 v 21.5156 h -6.7914 V 520.602 h 6.1475 l 7.9319,11.6998 6.4948,9.9154 h 0.198 V 520.602 h 6.7914 v 34.1579 h -6.1797 l -8.6597,-12.89 -5.6353,-8.6256 z M 572.6456,520.602 v 34.1579 h -6.7923 V 520.602 Z" />
        </g>
      </g>
    </g>
  </g>
</svg>
