<?xml version="1.0" encoding="UTF-8" standalone="no"?>
<!-- Created with Inkscape (http://www.inkscape.org/) -->

<svg
   xmlns:dc="http://purl.org/dc/elements/1.1/"
   xmlns:cc="http://creativecommons.org/ns#"
   xmlns:rdf="http://www.w3.org/1999/02/22-rdf-syntax-ns#"
   xmlns:svg="http://www.w3.org/2000/svg"
   xmlns="http://www.w3.org/2000/svg"
   xmlns:sodipodi="http://sodipodi.sourceforge.net/DTD/sodipodi-0.dtd"
   xmlns:inkscape="http://www.inkscape.org/namespaces/inkscape"
   width="300"
   height="392"
   viewBox="0 0 79.374998 103.71667"
   version="1.1"
   id="svg8"
   inkscape:version="0.92.1 r15371"
   sodipodi:docname="Проекты-03.svg">
  <defs
     id="defs2" />
  <sodipodi:namedview
     id="base"
     pagecolor="#ffffff"
     bordercolor="#666666"
     borderopacity="1.0"
     inkscape:pageopacity="0.0"
     inkscape:pageshadow="2"
     inkscape:zoom="0.35"
     inkscape:cx="902.85714"
     inkscape:cy="585.71429"
     inkscape:document-units="mm"
     inkscape:current-layer="g4458"
     showgrid="false"
     units="px"
     inkscape:window-width="1039"
     inkscape:window-height="792"
     inkscape:window-x="-9"
     inkscape:window-y="0"
     inkscape:window-maximized="0" />
  <metadata
     id="metadata5">
    <rdf:RDF>
      <cc:Work
         rdf:about="">
        <dc:format>image/svg+xml</dc:format>
        <dc:type
           rdf:resource="http://purl.org/dc/dcmitype/StillImage" />
        <dc:title></dc:title>
      </cc:Work>
    </rdf:RDF>
  </metadata>
  <g
     inkscape:label="Layer 1"
     inkscape:groupmode="layer"
     id="layer1"
     transform="translate(0,-193.28332)">
    <g
       id="g721"
       transform="matrix(0.26458333,0,0,0.26458333,525.51237,134.30147)">
      <g
         id="g4458"
         transform="translate(-1235.5623,-815.70362)">
        <g
           id="Layer1004"
           transform="matrix(1.1318013,0,0,1.1318013,-1034.4498,802.56266)">
          <path
             inkscape:connector-curvature="0"
             id="path4430"
             style="fill:none"
             d="M 250.7717,208.8394 V 554.9247 H 515.8358 V 208.8394 Z" />
          <path
             inkscape:connector-curvature="0"
             id="path4432"
             style="fill:#BABABA;fill-rule:evenodd"
             d="m 498.9738,554.9247 h -9.0939 -9.169 -176.4726 v -92.1008 -15.9701 h 211.5974 v 43.3649 47.8441 0.0732 l -0.004,0.3102 h 0.004 v 16.4785 H 499.0479 Z M 395.6113,400.0194 c -5.2002,0 -9.4149,4.2148 -9.4149,9.4149 0,5.2001 4.2147,9.4149 9.4149,9.4149 3.8137,0 7.0967,-2.2664 8.5768,-5.526 L 506.091,413.289 v 0.007 h 9.7447 v -70.1578 c 0,-9.2334 -7.5553,-16.7878 -16.7878,-16.7878 h -6.0323 v 9.773 h 6.1397 c 3.8157,0 6.9357,3.122 6.9357,6.9367 v 62.4845 H 404.1881 c -1.4801,-3.2587 -4.7641,-5.5251 -8.5768,-5.5251 z m 0,4.9933 c -2.442,0 -4.4226,1.9796 -4.4226,4.4216 0,2.443 1.9806,4.4226 4.4226,4.4226 2.443,0 4.4225,-1.9796 4.4225,-4.4226 0,-2.442 -1.9795,-4.4216 -4.4225,-4.4216 z m 90.7602,-74.5764 0.8225,-1.8996 0.9776,-2.1834 h 2.0703 l -2.9494,5.9406 v 3.8284 H 485.35 v -3.8284 l -2.9776,-5.9406 h 2.0849 l 1.0069,2.24 0.8078,1.843 z m -4.9347,4.3952 c -0.2176,0.2654 -0.4595,0.4849 -0.723,0.6595 -0.2644,0.1747 -0.5395,0.3171 -0.8224,0.4254 -0.2839,0.1083 -0.5708,0.1873 -0.8576,0.2342 -0.2888,0.0468 -0.56,0.0712 -0.8156,0.0712 -0.4537,0 -0.9054,-0.0673 -1.3542,-0.199 -0.4478,-0.1317 -0.8508,-0.3288 -1.2049,-0.5883 -0.3532,-0.2596 -0.6439,-0.5864 -0.8654,-0.9786 -0.2215,-0.3912 -0.3327,-0.8527 -0.3327,-1.3825 v -3.6157 c 0,-0.519 0.1073,-0.9805 0.319,-1.3815 0.2127,-0.401 0.4966,-0.7376 0.8508,-1.0068 0.3541,-0.2693 0.759,-0.4732 1.2117,-0.6098 0.4547,-0.1366 0.922,-0.2059 1.404,-0.2059 0.5678,0 1.121,0.0781 1.6595,0.2342 0.5386,0.1551 0.9971,0.399 1.3747,0.7298 l -0.9493,1.5034 c -0.3025,-0.2556 -0.6381,-0.4322 -1.0069,-0.5317 -0.3688,-0.0995 -0.719,-0.1493 -1.0498,-0.1493 -0.2263,0 -0.4507,0.0322 -0.6731,0.0927 -0.2225,0.0605 -0.4205,0.1639 -0.5952,0.3044 -0.1746,0.1415 -0.32,0.3259 -0.4332,0.5532 -0.1131,0.2254 -0.1697,0.5015 -0.1697,0.8225 v 2.8498 c 0,0.32 0.0527,0.5932 0.1561,0.8156 0.1034,0.2205 0.241,0.4049 0.4107,0.5454 0.1698,0.1415 0.3639,0.2458 0.5815,0.3122 0.2176,0.0663 0.44,0.0995 0.6664,0.0995 0.1892,0 0.3961,-0.0263 0.6166,-0.078 0.2224,-0.0518 0.4419,-0.1679 0.6595,-0.3474 v -1.6312 h -1.4176 v -1.6586 h 3.3601 z m -8.5778,-1.8283 c 0,0.5268 -0.0995,0.9932 -0.2976,1.3893 -0.198,0.3971 -0.4663,0.7337 -0.8058,1.0068 -0.3396,0.2742 -0.7405,0.481 -1.1962,0.6166 -0.4575,0.1366 -0.9405,0.2059 -1.4507,0.2059 -0.5103,0 -0.9942,-0.0693 -1.4508,-0.2059 -0.4566,-0.1356 -0.8556,-0.3424 -1.1961,-0.6166 -0.3405,-0.2741 -0.6078,-0.6097 -0.8059,-1.0068 -0.198,-0.3971 -0.2976,-0.8605 -0.2976,-1.3893 v -3.5874 c 0,-0.52 0.1044,-0.9786 0.3122,-1.3757 0.2078,-0.3961 0.4849,-0.7278 0.8342,-0.9922 0.3493,-0.2634 0.7512,-0.4644 1.202,-0.5961 0.4527,-0.1317 0.92,-0.1981 1.402,-0.1981 0.4819,0 0.9473,0.0713 1.401,0.2127 0.4537,0.1415 0.8537,0.3474 1.2029,0.6166 0.3493,0.2693 0.6264,0.6059 0.8342,1.0069 0.2078,0.401 0.3122,0.8634 0.3122,1.3825 z m -1.9425,-3.1903 c 0,-0.322 -0.0527,-0.5942 -0.1561,-0.8157 -0.1034,-0.2224 -0.2419,-0.4039 -0.4117,-0.5454 -0.1698,-0.1414 -0.361,-0.2458 -0.5737,-0.3122 -0.2127,-0.0663 -0.4322,-0.0995 -0.6595,-0.0995 -0.2273,0 -0.4488,0.0332 -0.6664,0.0995 -0.2175,0.0664 -0.4107,0.1708 -0.5814,0.3122 -0.1688,0.1415 -0.3074,0.324 -0.4108,0.5454 -0.1034,0.2225 -0.1561,0.4947 -0.1561,0.8157 v 2.8498 c 0,0.32 0.0527,0.5951 0.1561,0.8224 0.1034,0.2254 0.241,0.4118 0.4108,0.5532 0.1697,0.1415 0.3639,0.243 0.5814,0.3044 0.2176,0.0615 0.4391,0.0927 0.6664,0.0927 0.2273,0 0.4468,-0.0312 0.6595,-0.0927 0.2127,-0.0614 0.4049,-0.1629 0.5737,-0.3044 0.1707,-0.1414 0.3083,-0.3268 0.4117,-0.5532 0.1034,-0.2263 0.1561,-0.5014 0.1561,-0.8224 z m -12.8891,6.3094 v -9.769 h 1.9142 v 8.0245 h 4.8353 v 1.7445 z m -1.6586,-3.1191 c 0,0.5268 -0.0995,0.9932 -0.2975,1.3893 -0.1981,0.3971 -0.4664,0.7337 -0.8059,1.0068 -0.3395,0.2742 -0.7405,0.481 -1.1961,0.6166 -0.4576,0.1366 -0.9405,0.2059 -1.4508,0.2059 -0.5102,0 -0.9942,-0.0693 -1.4508,-0.2059 -0.4566,-0.1356 -0.8556,-0.3424 -1.1961,-0.6166 -0.3405,-0.2741 -0.6078,-0.6097 -0.8059,-1.0068 -0.198,-0.3971 -0.2975,-0.8605 -0.2975,-1.3893 v -3.5874 c 0,-0.52 0.1044,-0.9786 0.3122,-1.3757 0.2078,-0.3961 0.4849,-0.7278 0.8341,-0.9922 0.3493,-0.2634 0.7513,-0.4644 1.202,-0.5961 0.4527,-0.1317 0.92,-0.1981 1.402,-0.1981 0.482,0 0.9474,0.0713 1.401,0.2127 0.4537,0.1415 0.8537,0.3474 1.203,0.6166 0.3493,0.2693 0.6263,0.6059 0.8341,1.0069 0.2079,0.401 0.3122,0.8634 0.3122,1.3825 z m -1.9424,-3.1903 c 0,-0.322 -0.0527,-0.5942 -0.1561,-0.8157 -0.1035,-0.2224 -0.242,-0.4039 -0.4118,-0.5454 -0.1697,-0.1414 -0.3609,-0.2458 -0.5736,-0.3122 -0.2127,-0.0663 -0.4322,-0.0995 -0.6596,-0.0995 -0.2273,0 -0.4487,0.0332 -0.6663,0.0995 -0.2176,0.0664 -0.4108,0.1708 -0.5815,0.3122 -0.1688,0.1415 -0.3073,0.324 -0.4107,0.5454 -0.1035,0.2225 -0.1561,0.4947 -0.1561,0.8157 v 2.8498 c 0,0.32 0.0526,0.5951 0.1561,0.8224 0.1034,0.2254 0.2409,0.4118 0.4107,0.5532 0.1698,0.1415 0.3639,0.243 0.5815,0.3044 0.2176,0.0615 0.439,0.0927 0.6663,0.0927 0.2274,0 0.4469,-0.0312 0.6596,-0.0927 0.2127,-0.0614 0.4049,-0.1629 0.5736,-0.3044 0.1708,-0.1414 0.3083,-0.3268 0.4118,-0.5532 0.1034,-0.2263 0.1561,-0.5014 0.1561,-0.8224 z m -13.1018,0.1561 v 6.1533 h -1.9425 v -9.769 h 1.7581 l 2.2683,3.3464 1.8576,2.8352 h 0.0566 v -6.1816 h 1.9425 v 9.769 h -1.7669 l -2.4771,-3.6869 -1.6117,-2.4664 z m -5.5865,6.1533 v -4.084 h -3.6011 v 4.084 h -1.9424 v -9.769 h 1.9424 v 3.9415 h 3.6011 v -3.9415 h 1.9708 v 9.769 z m -7.7417,-7.4012 c -0.3024,-0.2556 -0.6283,-0.4332 -0.9775,-0.5317 -0.3493,-0.0995 -0.6908,-0.1493 -1.0215,-0.1493 -0.2176,0 -0.4352,0.0322 -0.6517,0.0927 -0.2166,0.0615 -0.4118,0.1639 -0.5815,0.3044 -0.1698,0.1415 -0.3103,0.3268 -0.4186,0.5532 -0.1073,0.2263 -0.1629,0.5015 -0.1629,0.8225 v 2.8498 c 0,0.32 0.0546,0.5941 0.1629,0.8156 0.1073,0.2215 0.2508,0.4039 0.4254,0.5454 0.1746,0.1415 0.3688,0.2458 0.5815,0.3122 0.2127,0.0663 0.4273,0.0995 0.6449,0.0995 0.3307,0 0.6644,-0.0488 1,-0.1424 0.3356,-0.0937 0.6732,-0.2742 1.0137,-0.5386 l 0.921,1.5025 c -0.3591,0.3034 -0.7991,0.5395 -1.3181,0.7093 -0.52,0.1697 -1.0683,0.2556 -1.6449,0.2556 -0.4634,0 -0.9171,-0.0673 -1.361,-0.199 -0.443,-0.1317 -0.841,-0.3288 -1.1913,-0.5883 -0.3483,-0.2596 -0.6341,-0.5864 -0.8507,-0.9786 -0.2166,-0.3922 -0.3259,-0.8527 -0.3259,-1.3825 v -3.6576 c 0,-0.52 0.1064,-0.9766 0.319,-1.3688 0.2118,-0.3922 0.4918,-0.721 0.8362,-0.9854 0.3444,-0.2644 0.7405,-0.4625 1.1844,-0.5952 0.4439,-0.1317 0.8976,-0.198 1.361,-0.198 0.5668,0 1.1142,0.0751 1.6381,0.2263 0.5239,0.1503 0.9756,0.3922 1.3532,0.723 z m -13.9096,-2.3678 h 6.7348 v 1.7434 h -4.7923 v 2.241 h 4.0977 v 1.7435 h -4.0977 v 2.2966 h 4.7923 v 1.7445 h -6.7348 z m -3.601,1.7434 v 8.0256 h -1.9425 v -8.0256 h -2.5952 v -1.7434 h 7.1182 v 1.7434 z m -17.2229,1.8732 v 6.1534 h -1.9425 v -9.7691 h 1.7581 l 2.2684,3.3465 1.8576,2.8351 h 0.0566 v -6.1816 h 1.9424 v 9.7691 h -1.7668 l -2.4772,-3.687 -1.6117,-2.4664 z m -3.5728,3.0343 c 0,0.5268 -0.0995,0.9931 -0.2975,1.3893 -0.1981,0.397 -0.4664,0.7336 -0.8059,1.0068 -0.3395,0.2742 -0.7405,0.481 -1.1961,0.6166 -0.4576,0.1366 -0.9405,0.2059 -1.4508,0.2059 -0.5102,0 -0.9942,-0.0693 -1.4508,-0.2059 -0.4566,-0.1356 -0.8556,-0.3424 -1.1961,-0.6166 -0.3405,-0.2741 -0.6078,-0.6098 -0.8059,-1.0068 -0.198,-0.3971 -0.2975,-0.8606 -0.2975,-1.3893 v -3.5875 c 0,-0.52 0.1044,-0.9785 0.3122,-1.3756 0.2078,-0.3961 0.4849,-0.7278 0.8341,-0.9922 0.3493,-0.2634 0.7513,-0.4644 1.202,-0.5961 0.4527,-0.1317 0.92,-0.1981 1.402,-0.1981 0.482,0 0.9474,0.0712 1.401,0.2127 0.4537,0.1415 0.8537,0.3473 1.203,0.6166 0.3493,0.2693 0.6263,0.6059 0.8341,1.0069 0.2079,0.4009 0.3122,0.8634 0.3122,1.3824 z m -1.9424,-3.1904 c 0,-0.3219 -0.0527,-0.5941 -0.1561,-0.8156 -0.1035,-0.2224 -0.242,-0.4039 -0.4118,-0.5454 -0.1697,-0.1414 -0.3609,-0.2458 -0.5736,-0.3122 -0.2127,-0.0663 -0.4322,-0.0995 -0.6596,-0.0995 -0.2273,0 -0.4488,0.0332 -0.6663,0.0995 -0.2176,0.0664 -0.4108,0.1708 -0.5815,0.3122 -0.1688,0.1415 -0.3073,0.3239 -0.4107,0.5454 -0.1035,0.2224 -0.1561,0.4946 -0.1561,0.8156 v 2.8499 c 0,0.32 0.0526,0.5951 0.1561,0.8224 0.1034,0.2254 0.2409,0.4117 0.4107,0.5532 0.1698,0.1415 0.3639,0.2429 0.5815,0.3044 0.2175,0.0615 0.439,0.0927 0.6663,0.0927 0.2274,0 0.4469,-0.0312 0.6596,-0.0927 0.2127,-0.0615 0.4049,-0.1629 0.5736,-0.3044 0.1708,-0.1415 0.3083,-0.3268 0.4118,-0.5532 0.1034,-0.2263 0.1561,-0.5015 0.1561,-0.8224 z m -7.4578,-3.4596 v 9.7691 h -1.9425 v -9.7691 z m -5.8274,1.7435 v 8.0256 H 372.52 v -8.0256 h -2.5952 v -1.7435 h 7.1182 v 1.7435 z m -6.6929,6.0118 h -3.402 l -0.6381,2.0138 h -2.0703 l 3.4313,-9.7691 h 1.9845 l 3.403,9.7691 h -2.1123 z m -2.8781,-1.6302 h 2.3542 l -0.3834,-1.2479 -0.7649,-2.5805 h -0.0576 l -0.7512,2.5386 z m -6.167,-1.602 -0.9054,1.8 -1.1034,2.0986 h -1.3991 l -1.0898,-2.0557 -0.9473,-1.8429 h -0.0566 v 5.246 h -1.9425 v -9.7691 h 1.7864 l 1.7444,3.445 1.1767,2.4108 h 0.0848 l 1.1913,-2.4674 1.6732,-3.3884 h 1.7864 v 9.7691 h -1.9425 v -5.246 z m -11.5281,-4.5231 c 0.4917,0 0.9152,0.0917 1.2693,0.2761 0.3542,0.1835 0.6478,0.4235 0.8791,0.7162 0.2312,0.2917 0.4019,0.6214 0.5102,0.9853 0.1083,0.364 0.163,0.721 0.163,1.0703 0,0.2556 -0.0352,0.5181 -0.1064,0.7873 -0.0712,0.2693 -0.1756,0.5249 -0.3122,0.7659 -0.1366,0.24 -0.3054,0.4625 -0.5034,0.6664 -0.1981,0.2019 -0.4244,0.3707 -0.68,0.5034 l 1.7581,3.9982 h -2.0986 c -0.0381,-0.1044 -0.0976,-0.2527 -0.1776,-0.4469 -0.08,-0.1922 -0.1707,-0.4088 -0.2693,-0.6449 -0.0985,-0.2351 -0.2029,-0.4858 -0.3112,-0.7444 -0.1083,-0.2595 -0.2127,-0.5083 -0.3122,-0.7444 -0.0995,-0.2361 -0.1893,-0.4527 -0.2693,-0.6449 -0.08,-0.1941 -0.1444,-0.3424 -0.1912,-0.4468 h -1.7591 v 3.6723 h -1.9425 v -9.7691 z m -2.4108,4.3523 h 1.9718 c 0.4537,0 0.7932,-0.1209 1.0205,-0.3639 0.2254,-0.241 0.3405,-0.5522 0.3405,-0.9327 0,-0.3805 -0.1171,-0.6946 -0.3473,-0.9405 -0.2322,-0.2478 -0.5708,-0.3717 -1.0137,-0.3717 h -1.9718 z m -3.5581,2.2977 c 0,0.5268 -0.0995,0.9931 -0.2976,1.3893 -0.198,0.397 -0.4663,0.7336 -0.8058,1.0068 -0.3396,0.2742 -0.7405,0.481 -1.1962,0.6166 -0.4575,0.1366 -0.9405,0.2059 -1.4507,0.2059 -0.5103,0 -0.9942,-0.0693 -1.4508,-0.2059 -0.4566,-0.1356 -0.8556,-0.3424 -1.1961,-0.6166 -0.3405,-0.2741 -0.6078,-0.6098 -0.8059,-1.0068 -0.1981,-0.3971 -0.2976,-0.8606 -0.2976,-1.3893 v -3.5875 c 0,-0.52 0.1044,-0.9785 0.3122,-1.3756 0.2078,-0.3961 0.4849,-0.7278 0.8342,-0.9922 0.3493,-0.2634 0.7512,-0.4644 1.202,-0.5961 0.4527,-0.1317 0.92,-0.1981 1.402,-0.1981 0.4819,0 0.9473,0.0712 1.401,0.2127 0.4536,0.1415 0.8537,0.3473 1.2029,0.6166 0.3493,0.2693 0.6264,0.6059 0.8342,1.0069 0.2078,0.4009 0.3122,0.8634 0.3122,1.3824 z m -1.9425,-3.1904 c 0,-0.3219 -0.0527,-0.5941 -0.1561,-0.8156 -0.1034,-0.2224 -0.2419,-0.4039 -0.4117,-0.5454 -0.1698,-0.1414 -0.361,-0.2458 -0.5737,-0.3122 -0.2127,-0.0663 -0.4322,-0.0995 -0.6595,-0.0995 -0.2273,0 -0.4488,0.0332 -0.6664,0.0995 -0.2175,0.0664 -0.4107,0.1708 -0.5814,0.3122 -0.1688,0.1415 -0.3074,0.3239 -0.4108,0.5454 -0.1034,0.2224 -0.1561,0.4946 -0.1561,0.8156 v 2.8499 c 0,0.32 0.0527,0.5951 0.1561,0.8224 0.1034,0.2254 0.241,0.4117 0.4108,0.5532 0.1697,0.1415 0.3639,0.2429 0.5814,0.3044 0.2176,0.0615 0.4391,0.0927 0.6664,0.0927 0.2273,0 0.4468,-0.0312 0.6595,-0.0927 0.2127,-0.0615 0.4049,-0.1629 0.5737,-0.3044 0.1707,-0.1415 0.3083,-0.3268 0.4117,-0.5532 0.1034,-0.2263 0.1561,-0.5015 0.1561,-0.8224 z m -11.2725,0.5815 h 4.0977 v 1.7435 h -4.0977 v 3.9845 h -1.9424 v -9.7691 h 6.7348 v 1.7435 h -4.7924 z m -9.5709,-0.4254 v 6.1534 h -1.9425 v -9.7691 h 1.7581 l 2.2683,3.3465 1.8576,2.8351 h 0.0566 v -6.1816 h 1.9425 v 9.7691 h -1.7669 l -2.4771,-3.687 -1.6117,-2.4664 z m -3.9269,-3.6157 v 9.7691 h -1.9425 v -9.7691 z m 9.3914,22.0503 -1.2605,5.0441 -1.6479,6.6635 h -3.8869 l -4.5289,-17.7292 h 3.7572 l 1.5444,6.9992 1.1835,5.4811 h 0.1805 l 1.3639,-5.5318 1.7503,-6.9485 h 3.2947 l 1.8517,7.3075 1.2869,5.1728 h 0.1551 l 1.1054,-5.2235 1.6215,-7.2568 h 3.7582 l -4.5806,17.7292 h -3.8343 l -1.6478,-6.6899 -1.2869,-5.0177 z m 13.3291,-6.0216 h 12.2247 v 3.165 h -8.6988 v 4.0664 h 7.4373 v 3.164 h -7.4373 v 4.1689 h 8.6988 v 3.1649 h -12.2247 z m 27.8436,12.6091 c 0,0.8586 -0.1707,1.6157 -0.5132,2.2781 -0.3434,0.6595 -0.8205,1.2088 -1.4283,1.6459 -0.6088,0.4381 -1.3259,0.7688 -2.1493,0.9922 -0.8225,0.2225 -1.7152,0.3337 -2.6762,0.3337 -1.2868,0 -2.4957,-0.1805 -3.6274,-0.5405 -1.1327,-0.361 -2.2391,-0.9952 -3.321,-1.9035 l 1.9824,-2.5737 c 0.7718,0.601 1.5747,1.0586 2.404,1.3766 0.8332,0.3171 1.6615,0.4752 2.4849,0.4752 0.5659,0 1.0459,-0.0557 1.442,-0.1678 0.3942,-0.1103 0.7113,-0.2644 0.9513,-0.4635 0.241,-0.1961 0.4166,-0.4195 0.5278,-0.6673 0.1112,-0.2488 0.1668,-0.5025 0.1668,-0.76 0,-0.3942 -0.0985,-0.721 -0.2956,-0.9776 -0.1971,-0.2576 -0.481,-0.4761 -0.8478,-0.6566 -0.3708,-0.1786 -0.8069,-0.3425 -1.3142,-0.4888 -0.5054,-0.1454 -1.0683,-0.3044 -1.6849,-0.4761 -0.6869,-0.1708 -1.3435,-0.3805 -1.9688,-0.6303 -0.6264,-0.2488 -1.1806,-0.5668 -1.6596,-0.9512 -0.48,-0.3873 -0.8625,-0.8586 -1.1444,-1.4166 -0.2849,-0.5581 -0.4254,-1.2313 -0.4254,-2.0196 0,-0.7727 0.1444,-1.4839 0.4332,-2.1357 0.2917,-0.6517 0.6946,-1.2146 1.2127,-1.6849 0.519,-0.4722 1.1552,-0.842 1.8957,-1.1083 0.7434,-0.2644 1.5707,-0.399 2.48,-0.399 1.08,-0.0166 2.162,0.0858 3.242,0.3102 1.0811,0.2225 2.1279,0.6674 3.1396,1.3366 l -1.5434,2.8313 c -0.8234,-0.4975 -1.604,-0.84 -2.3415,-1.0293 -0.7376,-0.1883 -1.4674,-0.2829 -2.1884,-0.2829 -0.3424,0 -0.681,0.0439 -1.0156,0.1288 -0.3356,0.0858 -0.6352,0.2107 -0.9015,0.3736 -0.2654,0.163 -0.481,0.3766 -0.6449,0.643 -0.1619,0.2663 -0.2429,0.5795 -0.2429,0.9395 0,0.36 0.0907,0.6644 0.2702,0.9132 0.1805,0.2488 0.442,0.4634 0.7893,0.6439 0.3434,0.1796 0.7591,0.3386 1.2488,0.4761 0.4937,0.1366 1.0469,0.2732 1.6674,0.4108 1.8742,0.4117 3.2771,1.039 4.203,1.8791 0.9308,0.841 1.3932,1.9561 1.3932,3.3454 z m 15.416,0 c 0,0.8586 -0.1717,1.6157 -0.5142,2.2781 -0.3424,0.6595 -0.8195,1.2088 -1.4283,1.6459 -0.6088,0.4381 -1.3259,0.7688 -2.1493,0.9922 -0.8225,0.2225 -1.7142,0.3337 -2.6771,0.3337 -1.2859,0 -2.4947,-0.1805 -3.6275,-0.5405 -1.1317,-0.361 -2.2381,-0.9952 -3.32,-1.9035 l 1.9825,-2.5737 c 0.7717,0.601 1.5737,1.0586 2.4049,1.3766 0.8312,0.3171 1.6605,0.4752 2.4849,0.4752 0.5649,0 1.0449,-0.0557 1.441,-0.1678 0.3932,-0.1103 0.7113,-0.2644 0.9513,-0.4635 0.241,-0.1961 0.4156,-0.4195 0.5268,-0.6673 0.1122,-0.2488 0.1688,-0.5025 0.1688,-0.76 0,-0.3942 -0.1005,-0.721 -0.2966,-0.9776 -0.1971,-0.2576 -0.481,-0.4761 -0.8498,-0.6566 -0.3687,-0.1786 -0.8049,-0.3425 -1.3112,-0.4888 -0.5064,-0.1454 -1.0693,-0.3044 -1.6849,-0.4761 -0.6888,-0.1708 -1.3445,-0.3805 -1.9708,-0.6303 -0.6244,-0.2488 -1.1796,-0.5668 -1.6586,-0.9512 -0.481,-0.3873 -0.8634,-0.8586 -1.1454,-1.4166 -0.2839,-0.5581 -0.4244,-1.2313 -0.4244,-2.0196 0,-0.7727 0.1444,-1.4839 0.4322,-2.1357 0.2917,-0.6517 0.6957,-1.2146 1.2137,-1.6849 0.52,-0.4722 1.1552,-0.842 1.8957,-1.1083 0.7424,-0.2644 1.5698,-0.399 2.4791,-0.399 1.0819,-0.0166 2.1629,0.0858 3.243,0.3102 1.081,0.2225 2.1268,0.6674 3.1395,1.3366 l -1.5434,2.8313 c -0.8244,-0.4975 -1.6049,-0.84 -2.3425,-1.0293 -0.7376,-0.1883 -1.4674,-0.2829 -2.1883,-0.2829 -0.3415,0 -0.681,0.0439 -1.0167,0.1288 -0.3326,0.0858 -0.6331,0.2107 -0.9005,0.3736 -0.2653,0.163 -0.479,0.3766 -0.6429,0.643 -0.1629,0.2663 -0.2429,0.5795 -0.2429,0.9395 0,0.36 0.0897,0.6644 0.2692,0.9132 0.1805,0.2488 0.441,0.4634 0.7883,0.6439 0.3444,0.1796 0.7601,0.3386 1.2489,0.4761 0.4946,0.1366 1.0468,0.2732 1.6683,0.4108 1.8742,0.4117 3.2771,1.039 4.203,1.8791 0.9317,0.841 1.3942,1.9561 1.3942,3.3454 z m 12.1457,1.4664 h -6.1748 l -1.1581,3.6537 h -3.7572 l 6.2275,-17.7292 h 3.602 l 6.1768,17.7292 h -3.8333 z m -5.2236,-2.9581 h 4.2723 l -0.6946,-2.2655 -1.3884,-4.684 h -0.1044 l -1.3639,4.607 z m 19.7898,-11.1174 c 0.8917,0 1.6605,0.1669 2.3044,0.5025 0.643,0.3336 1.1747,0.7658 1.5952,1.2985 0.4195,0.5327 0.7298,1.1279 0.9259,1.7893 0.197,0.6596 0.2956,1.3054 0.2956,1.9425 0,0.4625 -0.0634,0.9386 -0.1922,1.4293 -0.1288,0.4879 -0.3171,0.9513 -0.5669,1.3874 -0.2478,0.438 -0.5522,0.842 -0.9141,1.2098 -0.36,0.3697 -0.7708,0.6732 -1.2342,0.9141 l 3.1913,7.2558 h -3.8089 c -0.0693,-0.1883 -0.1766,-0.4575 -0.322,-0.8088 -0.1453,-0.3522 -0.3083,-0.7424 -0.4887,-1.1717 -0.1796,-0.4293 -0.3688,-0.8791 -0.5659,-1.3503 -0.1981,-0.4732 -0.3864,-0.9229 -0.5659,-1.3512 -0.1805,-0.4293 -0.3434,-0.8196 -0.4897,-1.1718 -0.1454,-0.3512 -0.2605,-0.6214 -0.3464,-0.8097 h -3.1913 v 6.6635 h -3.5259 v -17.7292 z m -4.3738,7.8987 h 3.5767 c 0.8224,0 1.441,-0.2175 1.8517,-0.6595 0.4127,-0.438 0.6186,-1.0039 0.6186,-1.6937 0,-0.6907 -0.2108,-1.2615 -0.6303,-1.7073 -0.4205,-0.4508 -1.0341,-0.6732 -1.84,-0.6732 h -3.5767 z m -54.7965,24.4992 v 36.5628 h -8.8499 v -36.5628 h -11.8208 v -7.9456 h 32.4281 v 7.9456 z m -26.6143,-7.9456 v 44.5084 h -8.8499 v -44.5084 z m -67.1821,56.7097 -3.4684,2.6069 v 9.6617 l 34.4711,-25.7909 -0.004,-83.6732 -7.7807,0.0351 0.042,79.677 z m 1.2117,19.7927 -4.6801,3.5162 v 7.608 2.0507 l 50.6071,-37.8419 -10e-4,-9e-4 h 10e-4 l -0.005,-92.3203 -7.7797,0.038 0.041,88.25 z m 6.6002,-46.3309 -0.041,-70.6261 7.7797,-0.0312 0.005,74.5676 h -0.002 l 9e-4,0.001 -19.0229,14.2247 v -9.6587 l 4.6801,-3.5172 z M 357.1752,421.9 c 2.442,0 4.4226,1.9805 4.4226,4.4225 0,2.442 -1.9806,4.4226 -4.4226,4.4226 -2.443,0 -4.4225,-1.9806 -4.4225,-4.4226 0,-2.442 1.9795,-4.4225 4.4225,-4.4225 z m 0,-4.9923 c 5.2001,0 9.4149,4.2147 9.4149,9.4148 0,5.2002 -4.2148,9.4149 -9.4149,9.4149 -3.8157,0 -7.1016,-2.2684 -8.5797,-5.5318 l -34.8623,-0.0293 -62.9616,47.1084 v -9.6577 -0.1015 l 10.1378,-7.568 v 0.0498 l 49.9915,-37.5746 h 37.6975 c 1.48,-3.2586 4.764,-5.525 8.5768,-5.525 z m 158.6605,5.525 v 7.7777 h -9.7447 v -0.0351 l -117.5482,0.0361 c -1.48,3.2596 -4.763,5.526 -8.5768,5.526 -5.1991,0 -9.4149,-4.2147 -9.4149,-9.4149 0,-5.2001 4.2158,-9.4148 9.4149,-9.4148 3.8128,0 7.0968,2.2664 8.5768,5.525 h 97.3165 20.2317 z M 379.966,421.9 c -2.442,0 -4.4216,1.9805 -4.4216,4.4225 0,2.442 1.9796,4.4226 4.4216,4.4226 2.443,0 4.4226,-1.9806 4.4226,-4.4226 0,-2.442 -1.9796,-4.4225 -4.4226,-4.4225 z m 108.149,14.5291 h -7.6646 v 7.7446 h 7.6646 z m 10.3895,0 h -7.6646 v 7.7446 h 7.6646 z m 17.3312,0 h -14.6053 v 7.7446 h 14.6053 z M 250.8448,554.9247 h 14.9379 v -0.1542 -34.2154 -31.2974 h -14.9379 z m 50.5339,-95.5428 h -14.9379 v 32.4652 63.0776 h 14.9379 v -87.006 z m -17.7985,35.8906 v -20.9527 h -14.9379 v 38.837 41.7679 h 14.9379 z m 64.267,-40.2439 h 20.4356 v 2.8615 h -20.4356 z m -38.2332,0 h 7.8968 v 2.8615 h -7.8968 z m 0,80.5561 h 7.8968 v 2.8615 h -7.8968 z m 0,-4.7377 h 7.8968 v 2.8616 h -7.8968 z m 0,-18.9526 h 7.8968 v 2.8615 h -7.8968 z m 0,33.1666 h 7.8968 v 2.8616 h -7.8968 z m 0,-4.7376 h 7.8968 v 2.8615 h -7.8968 z m 0,-14.215 h 7.8968 v 2.8615 h -7.8968 z m 0,-4.7377 h 7.8968 v 2.8615 h -7.8968 z m 0,-4.7386 h 7.8968 v 2.8615 h -7.8968 z m 0,-9.4764 h 7.8968 v 2.8616 h -7.8968 z m 0,-4.7386 h 7.8968 v 2.8615 h -7.8968 z m 0,-4.7377 h 7.8968 v 2.8615 h -7.8968 z m 0,-4.7387 h 7.8968 v 2.8616 h -7.8968 z m 0,-4.7376 h 7.8968 v 2.8615 h -7.8968 z m 0,-4.7387 h 7.8968 v 2.8615 h -7.8968 z m 0,-4.7377 h 7.8968 v 2.8616 h -7.8968 z m 0,-4.7386 h 7.8968 v 2.8615 h -7.8968 z m 0,-4.7387 h 7.8968 v 2.8625 h -7.8968 z m 0,-4.7376 h 7.8968 v 2.8615 h -7.8968 z m 0,-4.7387 h 7.8968 v 2.8615 h -7.8968 z m 44.3611,85.2879 h 31.232 v 2.8616 h -31.232 z m 0,-4.7376 h 31.232 v 2.8615 h -31.232 z m -5.1299,-4.7387 h 154.2984 v 2.8615 H 489.8799 348.8452 Z m -7.127,9.4763 h 9.3954 v 2.8616 h -9.3954 z m 0,-4.7376 h 9.3954 v 2.8615 h -9.3954 z m -7.7845,-4.7387 h 12.05 v 2.8615 h -12.05 z m 14.6959,-4.7377 h 89.372 v 2.8616 h -89.372 z m -23.2981,0 h 20.4366 v 2.8616 h -20.4366 z m 19.2102,-4.7386 h 9.3954 v 2.8615 h -9.3954 z m 4.3718,-4.7377 h 9.3954 v 2.8615 h -9.3954 z m 4.3709,-4.7386 h 9.3944 v 2.8615 h -9.3944 z m 18.0765,-4.7377 h 124.4382 v 2.8615 H 371.3609 Z m -14.9116,0 h 12.0501 v 2.8615 h -12.0501 z m 25.505,-4.7387 h 34.077 v 2.8616 h -34.077 z m 0,-4.7386 h 29.8105 v 2.8615 h -29.8105 z m 0,-4.7377 h 41.2635 v 2.8615 h -41.2635 z m -5.4645,-4.7387 h 31.232 v 2.8616 h -31.232 z m 0,-4.7376 h 31.232 v 2.8615 h -31.232 z m -6.7923,18.9526 h 9.3953 v 2.8616 h -9.3953 z m 0,-4.7386 h 9.3953 v 2.8615 h -9.3953 z m 0,-4.7377 h 9.3953 v 2.8615 h -9.3953 z m -5.4636,-4.7387 h 9.3944 v 2.8616 h -9.3944 z m 0,-4.7376 h 9.3944 v 2.8615 h -9.3944 z m 17.7204,-4.7387 h 34.077 v 2.8615 h -34.077 z m 0,-4.7377 h 29.8105 v 2.8616 h -29.8105 z m 0,-4.7386 h 41.2635 v 2.8615 h -41.2635 z m -5.4645,-4.7387 h 31.232 v 2.8625 h -31.232 z m 0,-4.7376 h 31.232 v 2.8615 h -31.232 z m -5.6508,-4.7387 h 132.3046 v 2.8615 H 370.839 Z m -1.1415,23.6913 h 9.3953 v 2.8615 h -9.3953 z m 0,-4.7377 h 9.3953 v 2.8616 h -9.3953 z m 0,-4.7386 h 9.3953 v 2.8615 h -9.3953 z m -5.4636,-4.7387 h 9.3944 v 2.8625 h -9.3944 z m 0,-4.7376 h 9.3944 v 2.8615 h -9.3944 z m -7.7846,-4.7387 h 12.0501 v 2.8615 h -12.0501 z m 14.695,-4.7445 h 89.3729 v 2.8615 h -89.3729 z" />
        </g>
      </g>
    </g>
  </g>
</svg>
