<?xml version="1.0" encoding="UTF-8" standalone="no"?>
<!-- Created with Inkscape (http://www.inkscape.org/) -->

<svg
   xmlns:dc="http://purl.org/dc/elements/1.1/"
   xmlns:cc="http://creativecommons.org/ns#"
   xmlns:rdf="http://www.w3.org/1999/02/22-rdf-syntax-ns#"
   xmlns:svg="http://www.w3.org/2000/svg"
   xmlns="http://www.w3.org/2000/svg"
   xmlns:sodipodi="http://sodipodi.sourceforge.net/DTD/sodipodi-0.dtd"
   xmlns:inkscape="http://www.inkscape.org/namespaces/inkscape"
   width="1560"
   height="510"
   viewBox="0 0 211.66666 69.320835"
   version="1.1"
   id="svg8"
   inkscape:version="0.92.1 r15371"
   sodipodi:docname="00-03.svg">
  <defs
     id="defs2" />
  <sodipodi:namedview
     id="base"
     pagecolor="#ffffff"
     bordercolor="#666666"
     borderopacity="1.0"
     inkscape:pageopacity="0.0"
     inkscape:pageshadow="2"
     inkscape:zoom="0.35"
     inkscape:cx="680"
     inkscape:cy="540"
     inkscape:document-units="mm"
     inkscape:current-layer="g721"
     showgrid="false"
     units="px"
     inkscape:window-width="1039"
     inkscape:window-height="792"
     inkscape:window-x="-9"
     inkscape:window-y="0"
     inkscape:window-maximized="0" />
  <metadata
     id="metadata5">
    <rdf:RDF>
      <cc:Work
         rdf:about="">
        <dc:format>image/svg+xml</dc:format>
        <dc:type
           rdf:resource="http://purl.org/dc/dcmitype/StillImage" />
        <dc:title></dc:title>
      </cc:Work>
    </rdf:RDF>
  </metadata>
  <g
     inkscape:label="Layer 1"
     inkscape:groupmode="layer"
     id="layer1"
     transform="translate(0,-227.67915)">
    <g
       id="g721"
       transform="matrix(0.26458333,0,0,0.26458333,525.51237,134.30147)">
      <g
         id="Layer1005"
         transform="translate(-76.17971,531.17842)">
        <g
           id="Layer1006">
          <path
             inkscape:connector-curvature="0"
             id="path608"
             style="fill:#f0f0f0;fill-rule:evenodd;stroke-width:0.91901451"
             d="m -1800.137,-119.42208 -4.3659,-0.78944 0.1392,5.51712 4.9025,2.22135 -2.9832,5.37357 4.3618,9.529359 -2.5502,5.30225 6.5172,-1.50516 5.2915,-4.15514 1.4712,8.59793 -7.8197,12.25184 1.5916,16.83745 3.5574,-1.71948 -4.7681,13.82796 -8.3531,-22.3542 -2.0688,0.64496 -5.7574,15.5477 -8.0986,1.21751 -1.5725,-4.9431 -16.205,-7.16519 -4.0815,0.0718 -10.3441,-4.44169 -6.5889,-3.29494 4.2449,13.75507 7.0958,-0.35832 0.5068,4.01223 0.011,1.21806 3.9201,7.30874 -2.2241,11.1856 -27.5816,9.85533 -0.8573,3.27472 -12.1593,4.48525 32.3705,-6.72452 v -9e-5 l 24.1127,-8.92179 10.3362,-8.46238 17.062,11.81356 24.2967,-5.82609 8.5673,-10.32237 3.4043,1.56223 11.4161,-17.3963 7.9005,-9.41098 2.2121,11.34542 1.8471,-0.48956 10e-5,-2.8e-4 3.7286,-2.00382 0.7388,0.81967 2.7225,-8.92179 1.2936,-0.26642 -0.2458,8.1886 0.8064,-0.21367 3.6511,-0.96791 -12.2319,26.91022 -14.5619,19.14684 -26.7089,10.2825804 22.1247,-2.2576604 42.594,-5.71939 44.2496,-3.3113 33.5373,4.96396 56.3166,3.91592 44.6925,0.6894504 19.4203,4.89973 9.7869,-3.93339 10.2346,-5.2677904 27.242,-0.90311 13.6964,2.25765 -7.977,-2.70917 18.8136,-2.8596 1.0535,2.10702 -6.3213,1.95677 15.0508,-0.60214 17.3086,-5.41833 -10.6862,7.52545 66.3199,-6.07919 31.7414,-19.11992 -37.1053,-17.47 -24.6213,-27.82353 -10.9035,26.23262 4.5152,-4.81637 6.773,-4.0637 3.0101,-5.56895 -3.7626,24.83407 4.6657,-2.25756 1.2041,15.20124 -22.2753,6.62241 -2.4081,-8.27793 -5.4183,4.66575 -7.2244,-1.50507 4.8161,-14.44884 -4.3646,4.66574 -18.5126,-2.8596 -17.2282,-3.18668 -8.9456,6.06062 -8.307,8.60648 -12.8495,6.44064 -7.6007,3.01023 -17.2332,1.4298 -13.4705,-5.04199 -21.8241,-2.1072 -9.6703,1.27936 -9.7454,2.40809 -7.8265,-2.74666 -1.8436,-0.97847 -1.9943,0.37633 -0.7149,-1.54275 -2.22,-1.80577 -10.5356,-5.60645 -3.8004,-1.99426 -1.3546,-2.97255 -5.9074,-3.27362 -2.7467,-3.46184 -7.375,13.39528 -28.7472,3.46202 -28.7472,-13.39528 -22.7267,-12.79323 -6.472,-6.92331 -15.4073,-0.96138 -6.2009,-4.74708 -7.7804,-2.29303 -15.0274,-15.61939 -26.7257,-19.345619 -19.8886,-18.12692 3.0423,6.59219 0.5976,6.08939 -2.6267,-5.01516 z m 329.1923,77.596159 8.7021,-6.02 -8.7023,6.02 z m -310.6197,-36.2838 0.2665,-10.68951 -6.6665,7.94442 h -1.3516 l -1.3142,3.61862 -1.2119,6.23919 6.9775,-6.57197 z" />
          <path
             inkscape:connector-curvature="0"
             id="path610"
             style="fill:#f9f9f9;fill-rule:evenodd;stroke-width:0.91901451"
             d="m -1795.5159,-127.16101 -4.6211,7.73893 5.6344,-0.0727 2.6266,5.01516 -0.5975,-6.08939 z m -8.987,6.94977 -7.9319,7.73911 -12.4473,7.88129 -0.1119,17.052039 -9.0563,0.71692 -6.2356,10.38891 -10.9868,6.87827 10.3441,4.44169 4.0815,-0.0718 16.2051,7.16519 1.5724,4.9431 8.0984,-1.21769 5.7576,-15.54752 2.0688,-0.64496 8.3531,22.3542 4.7681,-13.82796 -3.5574,1.71948 -1.5916,-16.83745 7.8197,-12.25184 -1.4712,-8.59793 -5.2915,4.15514 -6.5172,1.50516 2.5502,-5.30207 -4.3618,-9.529539 2.9833,-5.37357 -4.9028,-2.22116 z m -53.3585,47.361409 -8.8383,19.69044 -6.4316,7.57093 0.4553,2.17292 8.1301,-2.92164 -0.1223,12.65961 -3.2291,3.23153 16.6732,-5.28203 7.001,-0.42128 2.1403,-10.76451 -3.9201,-7.30865 -0.011,-1.21815 -0.5067,-4.01223 -7.0958,0.35832 z m 40.6164,34.51552 5e-4,-1.8e-4 -5e-4,-2.8e-4 z" />
          <path
             inkscape:connector-curvature="0"
             id="path612"
             style="fill:#f1f1f1;fill-rule:evenodd;stroke-width:0.91901451"
             d="m -1801.0858,-115.6169 2.4638,2.31591 2.5625,-4.13906 z" />
          <path
             inkscape:connector-curvature="0"
             id="path614"
             style="fill:#f1f1f1;fill-rule:evenodd;stroke-width:0.91901451"
             d="m -1799.8043,-108.52092 -2.6399,1.42144 4.3616,9.529359 z" />
          <path
             inkscape:connector-curvature="0"
             id="path616"
             style="fill:#f1f1f1;fill-rule:evenodd;stroke-width:0.91901451"
             d="m -1796.5029,-99.946791 -0.099,-6.012009 2.6118,-2.61174 0.2958,-4.04073 2.2175,1.97129 1.0349,4.68118 3.1042,5.12526 -5.8148,-0.29602 z" />
          <path
             inkscape:connector-curvature="0"
             id="path618"
             style="fill:#f1f1f1;fill-rule:evenodd;stroke-width:0.91901451"
             d="m -1787.4866,-63.776311 10.8408,-9.06727 -8.5742,12.12245 -7.3918,15.76881 z" />
          <path
             inkscape:connector-curvature="0"
             id="path620"
             style="fill:#f0f0f0;fill-rule:evenodd;stroke-width:0.91901451"
             d="m -1719.8925,-67.029621 v 1.9e-4 l -3e-4,2.7e-4 -3.34,5.4652 -4.4522,6.24773 -7.3531,10.26365 3.9825,-9.94493 z" />
          <path
             inkscape:connector-curvature="0"
             id="path622"
             style="fill:#ffffff;fill-rule:evenodd;stroke-width:0.91901451"
             d="m -1755.4763,-18.254391 c 0.6873,-1.09905 17.2377,-22.63533 20.4337,-26.79212 z m 32.2435,-43.30957 8.5451,-13.98262 -5.2051,8.51742 z" />
          <path
             inkscape:connector-curvature="0"
             id="path624"
             style="fill:#ffffff;fill-rule:evenodd;stroke-width:0.91901451"
             d="m -1824.899,-102.02744 -13.815,12.973919 -5.5823,-0.98482 -7.3887,13.62742 -5.2539,-4.43305 -2.6268,-7.22446 -3.4483,-0.4925 -1.8062,9.85156 -0.4925,-7.22447 -0.9443,-0.18546 -5.3981,17.01464 -11.4926,3.94073 -1.9699,8.53811 -11.8215,4.26873 -11.4536,8.12804 12.1919,-3.9253 -2.4834,3.31121 15.3518,-1.50516 5.7947,3.3113 -14.5994,4.36477 7.2245,-0.15053 -0.9999,5.36419 11.8041,-6.59393 7.4087,-2.5237 -2.1982,5.53586 4.2297,3.36295 0.1224,-12.65979 -8.1302,2.92173 -0.4554,-2.17282 c -0.4068,0.56767 -0.4068,-8.62992 -0.4068,-8.62992 l 0.977,-5.29122 1.4286,2.12329 0.1433,-1.42098 h 0.602 l 0.9972,3.1796 1.0347,-0.71508 1.5615,1.42999 1.3032,-0.93676 7.6261,-16.96703 6.5921,3.26149 10.9866,-6.87808 6.2354,-10.38882 9.0567,-0.7172 z m -48.2313,56.437699 3.9763,-4.68064 -0.01,-0.0209 c -1.7149,2.00318 -3.7357,4.37525 -3.9695,4.7015 z m 3.9763,-4.68064 2.4543,-2.88901 z" />
          <path
             inkscape:connector-curvature="0"
             id="path626"
             style="fill:#f9f9f9;fill-rule:evenodd;stroke-width:0.91901451"
             d="m -1781.5644,-78.109531 0.2665,-10.6897 -6.6665,7.94442 h -1.3516 l -1.3144,3.61862 -1.2117,6.23919 6.9775,-6.57197 z" />
          <path
             inkscape:connector-curvature="0"
             id="path628"
             style="fill:#f5f5f5;fill-rule:evenodd;stroke-width:0.91901451"
             d="m -1872.5612,-59.509511 1.4286,2.12339 0.1433,-1.42098 h 0.602 l 0.9972,3.1796 1.0347,-0.71508 1.5615,1.42999 1.3033,-0.93676 -1.2091,2.68996 -2.4543,2.8892 -0.01,-0.0211 c -1.717,2.00548 -3.7405,4.38085 -3.9705,4.70278 -0.4069,0.5697 -0.4069,-8.62964 -0.4069,-8.62964 z" />
          <path
             inkscape:connector-curvature="0"
             id="path630"
             style="fill:#fbfbfb;fill-rule:evenodd;stroke-width:0.91901451"
             d="m -1417.7199,-100.9509 6.0793,5.721319 7.1523,15.97339 9.7746,-3.87419 -10.9034,26.23262 4.5152,-4.81637 6.7729,-4.0637 3.0102,-5.56895 -3.7627,24.83407 4.6658,-2.25756 1.2041,15.20124 -22.2754,6.62241 -2.4081,-8.27793 -5.4183,4.66575 -7.2244,-1.50507 4.8161,-14.44884 -4.3646,4.66574 -18.5126,-2.8596 -17.2282,-3.18668 -8.9456,6.06062 -0.172,0.006 8.7021,-6.02 0.4155,-0.0473 10.7563,-2.30691 7.9807,-4.73651 -1.7487,-2.50532 0.1191,-0.83429 -1.6091,0.17894 -6.1989,-2.92036 1.967,-2.265 -0.1788,-0.59598 -1.192,0.41705 -5.1854,3.27831 7.1521,-7.39035 8.5825,-2.32492 2.3843,-1.54955 10.3709,-4.11268 4.2318,-3.39733 -4.5894,2.44394 4.6492,-4.35126 10.0126,-4.52964 -3.8738,-0.35777 -1.2517,-1.19187 2.6226,-8.28482 -2.7417,2.62259 z" />
          <path
             inkscape:connector-curvature="0"
             id="path632"
             style="fill:#ffffff;fill-rule:evenodd;stroke-width:0.91901451"
             d="m -1417.72,-100.95109 -2.7431,3.607139 -3.8585,2.87366 -0.9853,4.26882 -1.7238,7.47058 -0.6568,-7.22437 -1.5597,0.49241 -2.0524,11.24726 -8.6198,1.14932 -1.642,2.21657 -6.896,5.09006 -2.2165,-3.28401 -2.7914,0.32855 -0.082,4.2691 -6.7318,5.08978 -0.575,4.18684 -1.9699,-6.2391 -1.8062,0.32837 -1.7239,9.52283 -0.8211,-4.67953 -1.2316,-0.16414 -1.8059,12.72486 -5.9115,5.74779 -2.9556,8.70215 8.307,-8.60648 -0.1722,0.006 8.7023,-6.02 0.4155,-0.0473 11.0876,-1.26355 10.6689,-4.64939 -2.5632,-0.4766 -2.2049,-3.1592 0.1191,-0.8341 -1.6092,0.17875 -6.199,-2.92017 1.9671,-2.26537 -0.1788,-0.59571 -1.1918,0.41696 -5.1854,3.27822 7.1521,-7.39017 8.5823,-2.32483 2.3845,-1.54973 10.3705,-4.11278 4.232,-3.39723 -4.3053,2.29295 4.3648,-4.20045 10.0129,-4.52973 -3.8738,-0.35741 -1.2518,-1.19187 2.6227,-8.28473 -2.7419,2.62222 z" />
          <path
             inkscape:connector-curvature="0"
             id="path634"
             style="fill:#ffffff;fill-rule:evenodd;stroke-width:0.91901451"
             d="m -1745.4371,-71.801691 -2.4374,10.91587 0.9031,3.76263 c 0,0 -2.0318,5.19261 -2.0318,5.64413 0,0.45151 -0.9784,7.45008 -0.9784,7.45008 l 8.6037,-16.91685 3.7287,-2.0041 0.7388,0.81967 2.7225,-8.92179 1.2936,-0.26642 -0.2457,8.1886 -1.1887,3.74903 2.9024,-4.20321 2.7438,-0.7274 -12.2319,26.91022 -14.5619,19.14684 -26.709,10.2825804 3.5317,-5.5793404 7.375,-3.61219 -0.3011,-4.59048 7.1492,-9.10578 -11.2881,5.71922 -5.4184,-1.80605 -3.0101,2.63389 -2.0318,-4.59047 -14.843,-1.50517 24.2966,-5.82609 8.5673,-10.32237 1.9214,5.61288 2.9351,1.65561 3.0825,-12.61623 6.8814,-10.48633 z" />
        </g>
        <path
           inkscape:connector-curvature="0"
           id="path637"
           style="fill:none;stroke-width:0.91901451"
           d="M -1910.0088,-178.89252 V 83.745099 h 800 V -178.89252 Z" />
      </g>
    </g>
  </g>
</svg>
