<?xml version="1.0" encoding="UTF-8" standalone="no"?>
<!-- Created with Inkscape (http://www.inkscape.org/) -->

<svg
   xmlns:dc="http://purl.org/dc/elements/1.1/"
   xmlns:cc="http://creativecommons.org/ns#"
   xmlns:rdf="http://www.w3.org/1999/02/22-rdf-syntax-ns#"
   xmlns:svg="http://www.w3.org/2000/svg"
   xmlns="http://www.w3.org/2000/svg"
   xmlns:sodipodi="http://sodipodi.sourceforge.net/DTD/sodipodi-0.dtd"
   xmlns:inkscape="http://www.inkscape.org/namespaces/inkscape"
   width="1560"
   height="510"
   viewBox="0 0 211.66666 69.320835"
   version="1.1"
   id="svg8"
   inkscape:version="0.92.1 r15371"
   sodipodi:docname="00-02.svg">
  <defs
     id="defs2" />
  <sodipodi:namedview
     id="base"
     pagecolor="#ffffff"
     bordercolor="#666666"
     borderopacity="1.0"
     inkscape:pageopacity="0.0"
     inkscape:pageshadow="2"
     inkscape:zoom="0.35"
     inkscape:cx="902.85714"
     inkscape:cy="585.71429"
     inkscape:document-units="mm"
     inkscape:current-layer="g721"
     showgrid="false"
     units="px"
     inkscape:window-width="1039"
     inkscape:window-height="792"
     inkscape:window-x="-9"
     inkscape:window-y="0"
     inkscape:window-maximized="0" />
  <metadata
     id="metadata5">
    <rdf:RDF>
      <cc:Work
         rdf:about="">
        <dc:format>image/svg+xml</dc:format>
        <dc:type
           rdf:resource="http://purl.org/dc/dcmitype/StillImage" />
        <dc:title></dc:title>
      </cc:Work>
    </rdf:RDF>
  </metadata>
  <g
     inkscape:label="Layer 1"
     inkscape:groupmode="layer"
     id="layer1"
     transform="translate(0,-227.67915)">
    <g
       id="g721"
       transform="matrix(0.26458333,0,0,0.26458333,525.51237,134.30147)">
      <g
         id="Layer1003"
         transform="matrix(0.9190145,0,0,0.9190145,-1850.9541,458.98615)">
        <g
           id="Layer1004">
          <path
             inkscape:connector-curvature="0"
             id="path536"
             style="fill:#ffffff;fill-rule:evenodd"
             d="m 140.5233,87.2129 -1.0026,-0.2153 -2.0694,-6.4569 8.385,1.0283 5.5218,-7.4845 11.0921,4.6352 11.442,7.5118 z m -181.3003,-1.6676 4.8872,3.9852 -2.0471,4.0944 12.5899,-2.559 20.7785,5.3226 31.1472,-6.0193 2.8376,-8.2414 -49.1438,-1.5835 49.1438,1.5835 1.328,-3.857 4.1967,-0.5118 0.6423,4.5675 32.5203,1.0478 -32.5203,-1.0478 0.2789,1.9834 4.0862,5.0918 2.6692,1.8684 8.8028,1.6377 5.5272,5.7321 44.6287,-6.8065 -1e-4,-2e-4 1.3416,0.0183 -3e-4,2e-4 9.8147,9.6537 22.3139,13.9206 -6.5507,-13.3067 2.2519,-7.3697 2.6613,9.4168 23.9517,19.8574 5.5272,-7.984 1.4331,-7.3697 1.6377,11.2594 -0.2048,5.9367 35.211,9.417 4.299,-20.6763 8.5981,-5.1179 4.7084,-11.2594 26.6325,-8.5294 -24.1348,-1.3973 -126.2954,-4.0693 126.2953,4.0693 86.3683,5.0003 -8.1885,-3.9305 148.7048,-6.2234 -26.2035,8.5162 151.6529,-0.3276 102.5212,-20.6352 29.2395,-62.565 -8.4089,-0.8079 -0.3528,0.1529 -3.1936,-0.0819 -1.5558,2.4566 -14.9852,-4.4218 -2.0471,1.9652 5.4044,7.5336 3.2755,-1.8834 0.9827,0.5732 1.2282,5.2408 0.737,-3.7668 4.6674,4.6675 -1.5558,2.2109 -6.2232,0.737 -7.206,1.9653 -5.1589,-7.206 -7.0421,-1.7197 1.0645,9.1713 -28.9882,-6.2236 -41.2705,-2.6204 -23.9108,28.1688 -65.7717,21.0696 -36.4633,-8.4721 -31.1088,2.0915 -4.1989,-8.1991 -5.3395,-1.0396 -3.9136,-0.762 -13.6471,-3.5083 -4.438,4.8029 -10.0609,2.4323 -2.593,2.3699 h -8.9921 l 7.2766,-5.9728 -12.4522,2.2048 4.1504,-3.2427 -4.1504,0.9081 0.6484,-3.113 -14.0088,3.6315 -13.2297,5.0588 -2e-4,3e-4 -17.7751,4.698 8.3648,2.6808 -7.51,1.8194 v 0 l 4.187,0.2994 -4.9071,9.0107 -7.5496,0.6247 -3.8993,-2.9397 -5.1737,-1.9042 -4.0145,-6.2907 -2.2762,0.5382 -0.5127,1.61 -0.2223,0.6984 v 1e-4 l -1.0763,3.3798 -0.147,0.4621 -0.2454,0.7703 -11.5127,2.789 2.9835,-0.0624 8.4298,-2.4146 -0.6357,1.9966 -4.6672,1.7604 -23.5028,3.6975 -25.4157,-10.4023 -15.9789,-4.1824 -0.6436,3.4319 -10.2845,7.2271 6.6508,3.1543 26.3235,2.9799 -48.6727,4.8008 h -12.2589 l -6.3829,-1.099 -7.8468,-14.4626 -7.4499,-3.6421 -5.9599,-16.5554 -4.4825,-4.3803 -2.9675,28.5507 -3.4768,-24.6674 -3.4911,10.036 0.745,8.857 3.2286,10.5124 -9.271,-9.1053 3.3107,0.9105 1.0762,-1.9037 -1.5727,-5.0492 -4.387,-1.8216 -3.7253,3.7253 -10.3477,-1.6524 11.023,11.4013 1.9242,1.0752 -4.4981,6.097 -0.002,-3e-4 -11.1651,-4.0262 1.0627,-6.1485 -4.0426,0.1887 -9.1234,-16.5748 3.6592,-5.9413 -6.1254,-25.495 -8.1122,14.2373 -3.3108,-7.2843 -4.1392,3.8078 1.6559,-11.7544 -0.6623,-6.622 -4.0092,-12.3126 -10.617,-24.666 -6.6158,10.1034 v 3e-4 l -4.5176,8.7694 -3.2282,2.7316 -2.0095,-3.8027 -3.0579,-0.1433 -1.9701,12.2235 -0.6517,4.846 1.7726,-6.6281 3.0212,-2.7317 0.0826,-2.6899 1.283,-0.3313 2.7317,-0.2484 2.8837,-2.4123 0.2202,-0.3188 -0.2202,0.3188 -0.4984,2.0428 9.7384,-17.3421 L 80.1014,6.3761 76.4591,28.5604 74.6,40.583 l 6.991,-7.5525 -5.9599,15.7278 7.1187,2.9798 -18.5415,20.3632 -31.2901,4.1386 -52.6456,4.3044 -40.4221,3.7512 19.3728,1.2498 z m 335.6544,-23.5503 -6.657,-3.5749 0.8855,0.9812 3.5466,3.3599 2.0692,0.2898 2.6075,3.1871 2.9799,0.3309 1.2259,-0.9992 z m -67.7437,11.2379 0.6648,-2.7921 -4.0622,1.1807 z m 38.2516,-4.7553 -0.004,-0.0016 8.9768,2.7472 8.404,0.5197 0.041,-1.3245 1.9042,0.952 -1.5318,-4.0977 -3.232,-3.143 -2.3672,-3.3219 -2.7646,-3.8798 -3.3939,3.2286 2.0692,-7.7813 -1.9877,-6.8682 -3.8078,6.4563 -8.6089,5.629 -3.4018,7.9153 2e-4,2e-4 z m -27.6987,0.3158 -2.525,2.8144 -0.4139,3.8076 2.1939,-3.8903 z M 100.2203,7.6576 102.0438,14.3063 98.9334,13.234 97.6469,28.2475 85.4213,37.2556 94.5365,25.781 95.2875,7.9791 98.0754,9.6951 97.754,2.0807 Z M 66.5083,31.144 67.605,36.5879 71.5247,31.444 70.0022,37.997 55.268,50.7446 65.6979,37.1691 Z" />
          <path
             inkscape:connector-curvature="0"
             id="path538"
             style="fill:#f4f4f4;fill-rule:evenodd"
             d="m 192.9586,86.6754 114.4773,6.6278 -8.1885,-3.9305 37.08,-1.5518 -75.8475,-2.8243 9.99,-3.7666 -9.1505,-1.2883 -48.6727,4.8008 h -18.0456 l -4.2214,-7.7806 z m 168.7452,0.0835 86.2484,-3.6096 -26.2035,8.5162 151.6529,-0.3276 102.5212,-20.6352 29.2395,-62.565 -8.4089,-0.8079 -0.3528,0.1529 -3.1936,-0.0819 -1.5558,2.4566 -14.9852,-4.4218 -2.0471,1.9652 5.4044,7.5336 3.2755,-1.8834 0.9827,0.5732 1.2282,5.2408 0.737,-3.7668 4.6674,4.6675 -1.5558,2.2109 -6.2232,0.737 -7.206,1.9653 -5.1589,-7.206 -7.0421,-1.7197 1.0645,9.1713 -28.9882,-6.2236 -41.2705,-2.6204 -23.9108,28.1688 -65.7717,21.0696 -36.4633,-8.4721 -20.7103,1.3924 -10e-5,2e-4 -34.5626,9.07 30.6254,0.3276 21.4541,-3.2755 -37.1762,12.1192 z" />
          <path
             inkscape:connector-curvature="0"
             id="path540"
             style="fill:#ebebeb;fill-rule:evenodd"
             d="m 501.884,-42.7084 4.4746,-2.0101 3.8916,-3.8917 -3.5024,0.7135 z m 158.0771,16.7815 7.206,6.0597 37.9952,28.0049 -6.3051,-1.7195 -2.4566,1.0645 -3.1936,-0.0819 -1.5558,2.4566 -14.9852,-4.4218 -2.0471,1.9652 5.4044,7.5336 3.2755,-1.8834 0.9827,0.5732 1.2282,5.2408 0.737,-3.7668 4.6674,4.6675 -1.5558,2.2109 -6.2232,0.737 -7.206,1.9653 -5.1589,-7.206 -7.0421,-1.7197 1.0645,9.1713 -28.9882,-6.2236 -41.2705,-2.6204 -23.9108,28.1688 -65.7717,21.0696 -36.4633,-8.4721 -31.1088,2.0915 8.9007,-0.7505 16.8696,-4.7553 20.9298,-9.7867 5e-4,-3e-4 -0.0138,-0.3299 7.6772,-6.1873 6.5509,4.0944 -4.5037,4.995 5.2407,-4.0124 6.2232,1.0645 -6.7964,9.8263 14.0024,-7.4516 2.9479,1.3919 c 0,0 10.1539,-6.1413 10.3997,-6.6326 0.2457,-0.4914 3.8486,-5.6502 3.8486,-5.6502 l 36.9305,1.0645 -30.0521,-6.0596 -9.0075,-20.5533 15.5584,5.1587 -2.2109,1.556 21.1266,7.2878 -4.4219,4.9132 24.4021,-8.3525 -16.541,1.9652 -37.2581,-20.4715 0.4093,-8.3524 5.6502,-5.4863 22.6005,7.3698 -33.2457,-16.7866 -3.1116,-2.2929 -0.3577,-1.5377 1.0206,-0.6705 10.6362,-2.3346 14.9162,3.6318 -6e-4,-3e-4 7e-4,2e-4 -10.3118,-5.8418 -2.8534,-1.6165 5.1233,-0.8432 -16.5377,-4.2154 -6.6152,-4.021 -10.0196,-1.1668 -2e-4,2e-4 -18.2887,9.8575 -7.7829,1.6861 2.984,-3.5023 9.3389,-16.4728 13.9109,2.0097 -5.837,-3.566 8.1068,-1.3623 7.9766,3.6964 -2.0106,-2.5937 9.7285,4.6044 3.5021,0.8428 13.295,-0.3891 -4.41,-1.6211 -11.285,-8.5606 -4.4746,-5.837 -0.1945,2.1404 -8.0735,-2.9835 -2.5943,-5.8369 -0.9085,-15.8238 3.4692,7.1331 0.9734,-3.696 4.7335,6.0954 1.0378,-4.734 4.4753,8.7553 1.3617,-2.5291 1.9456,7.8472 0.8434,-2.3997 5.253,4.475 3.761,8.6908 20.4389,25.8336 7.2681,9.2322 5.8744,7.462 14.2209,-10.3162 -2.4306,5.1435 5.9778,-1.8014 3.6848,2.2927 -5.4863,14.7397 17.4418,-10.6453 3.1934,-6.2233 -0.8187,6.0595 -7.206,8.0249 3.1934,1.0645 1.474,-0.1637 -0.4913,2.0471 2.0472,2.7023 20.5534,-16.0497 3.3574,-12.6923 -0.4144,-3.0112 12.0826,4.4862 23.3376,23.2555 -2.0472,-12.4466 3.9306,3.8487 z m -190.9854,72.9083 1.3404,-6.0059 -6.4343,8.3112 -5.3084,0.697 0.965,-6.6488 -8.2577,11.6356 -4.91,-1.3066 4.5694,-8.2993 -3.6312,0.5184 2.4645,-4.799 3.0481,-4.9294 -7.6532,2.5937 -17.4274,10.9513 -3.9136,-0.762 -13.6471,-3.5083 20.6239,-6.0962 -3.0813,6.3555 20.5588,-12.1931 8.5608,-3.0477 11.2198,-2.3996 10.5067,-8.8853 -10.8307,4.2802 -7.7182,0.7135 -0.3241,-3.2423 -8.0422,3.0478 -3.4693,0.9732 9.8584,-10.7656 16.6024,-9.4688 23.3473,-9.0797 9.729,-13.3599 h -3e-4 l 2.096,-1.3771 -1.2234,6.2112 3.6029,6.3871 -3.9305,-2.2927 -8.3524,18.8337 8.1887,17.6873 -6.2234,-7.0421 -17.9302,22.2364 -0.0521,-1.2445 -0.4435,-10.6048 -5.4695,12.6546 z m -41.2348,2.7182 z m 79.9803,-67.4383 -10.8955,3.2427 10.8953,-3.2427 z m -28.6336,32.7185 -4.1183,4.0534 -3.5669,1.0377 0.7782,-2.724 2.5616,-0.8107 1.8808,-0.1297 z m 18.7104,-18.1268 -7.7824,4.2804 -7.2638,6.4205 -4.3452,1.2971 -4.1507,6.8097 6.3557,-3.6967 7.7177,-1.8808 z m -3.7592,-59.2387 0.6555,-1.1164 9.1027,6.8503 z m 134.6953,19.3813 0.005,0.0031 z" />
          <path
             inkscape:connector-curvature="0"
             id="path542"
             style="fill:#f0f0f0;fill-rule:evenodd"
             d="m 43.2379,29.5314 0.5752,-0.7479 7.4221,-10.415 z m 7.9973,-11.1629 4.8483,-6.8035 -4.8446,6.7983 z" />
          <path
             inkscape:connector-curvature="0"
             id="path544"
             style="fill:#fbfbfb;fill-rule:evenodd"
             d="m 413.5524,-11.9019 15.9546,-30.0926 15.4351,-18.5478 7.5234,4.6693 17.1214,-22.0504 21.4017,-6.226 -2.3346,2.8534 6.4853,-1.4266 7.5233,-7.6528 0.778,2.205 4.929,1.5566 v 4e-4 l -2e-4,-3e-4 0.2974,5.1809 0.6108,10.6433 2.594,5.8369 -12.9707,-5.707 -4.2062,7.1578 -1e-4,-10e-5 4.2063,-7.1579 -17.2516,4.9285 6.6152,0.9729 -14.0088,5.9665 -8.4958,11.1551 -8.4959,7.6527 2.5941,2.4645 -4.2156,2.9185 6.1612,-0.7134 9.0148,-9.9877 8.3662,-3.6319 5.1889,-5.5121 2.0753,0.3893 -4.2159,8.4954 -13.2952,6.2908 -6.7449,11.609 -21.5317,15.5651 6.8097,0.5189 -11.5441,8.2365 -12.5169,15.7595 11.8035,-8.2365 16.2784,-5.9016 10.7011,-7.9124 8.1068,-14.0733 9.0153,-7.6525 10e-5,-10e-5 7.7821,-1.6861 h 2e-4 l 7.1337,0.8424 0.2594,8.95 -11.2846,10.3766 3.8263,0.1945 -8.6904,9.3391 10.4415,-2.9834 -2.9185,-0.7782 3.7616,-4.0858 7.1992,-3.3069 10e-5,-10e-5 10.8952,-3.2426 -15.5004,9.2736 2.7239,1.8808 -5.9995,5.724 -14.2997,5.5611 -16.6024,9.4688 -9.8584,10.7656 8e-4,-2e-4 -3e-4,4e-4 -29.4439,11.5444 12.0626,2.8533 -20.6234,6.0961 -4.438,4.8029 -10.0609,2.4323 -2.593,2.3699 h -8.9921 l 7.2766,-5.9728 -12.4522,2.2048 4.1504,-3.2427 -4.1504,0.9081 0.6484,-3.113 -14.0088,3.6315 -13.2297,5.0588 1.2573,-3.3199 7.8862,-4.0735 4.8641,-0.3892 3.1783,-1.2972 17.5752,-7.2639 -2.9833,5.3831 12.0628,-7.7178 14.1386,-2.5943 -12.1927,-1.8807 -2.7255,-2.0615 -29.8549,16.0346 -23.5097,5.7663 0.0932,-0.5096 16.5462,-6.8295 13.8237,-11.8367 -21.6875,13.6579 -8.8276,2.016 -16.8864,2.3761 17.3186,-9.6632 5.448,-4.0209 -5.3181,-1.8807 4.3454,-3.6967 -11.2198,2.1399 -4.8717,0.1874 9.7339,-6.5947 12.0647,-1.375 11.609,-5.0589 4.1676,-4.0475 11.1365,-14.8213 3.7666,1.6377 3.685,-2.5385 7.4516,0.1637 z m -34.9568,38.0044 8.1718,-4.021 4.6694,-5.5775 6.226,-2.2049 -8.4959,0.389 -5.6423,4.8641 3.4373,-1.0377 -3.3075,2.8536 z m 124.8771,-64.5212 -2.6259,6.1525 -0.2595,11.1551 -2.3981,4.2171 2.3979,-4.2171 0.2594,-11.1549 z m -76.0417,30.2132 4.9289,-5.9665 7.9771,-3.6967 4.0211,-0.2595 -6.1614,4.6047 -3.113,3.9561 z m 62.3741,-44.0896 1.8322,0.9617 v 2e-4 z m -7.5065,17.4345 -2e-4,10e-5 6.3679,-11.2321 z m 9.2089,-23.2175 v 2e-4 l -4.7273,2.4066 z" />
          <path
             inkscape:connector-curvature="0"
             id="path546"
             style="fill:#f4f4f4;fill-rule:evenodd"
             d="m 395.3913,29.2942 2.7256,2.0616 12.1928,1.8809 -14.1384,2.594 -12.063,7.7178 2.9835,-5.383 -17.5752,7.2636 -2e-4,2e-4 -3.1783,1.2972 -4.8641,0.3892 -7.8862,4.0735 -1.2575,3.3202 -17.7751,4.698 8.3648,2.6808 -25.308,6.1309 -1.2811,-2.1928 5.4175,-1.7822 -6.1262,0.7498 -1.5694,-2.2861 -2.2762,0.5382 -0.5127,1.61 -0.2223,0.6984 v 1e-4 l -3.1584,0.3864 -10e-5,2e-4 -3.3521,-0.9517 -2.996,0.7804 -5e-4,3e-4 -13.3141,-7.15 1.305,7.5488 -18.026,-20.4618 -3.8078,6.4563 -8.6089,5.629 -3.4018,7.9153 -5.6907,-1.3097 0.005,7e-4 -5.0463,-1.739 -0.8429,-1.8105 -2.649,-2.4002 -3.1041,0.1652 -0.538,1.5317 -1.3245,-4.8841 -3.4349,0.2484 -1.78,7.16 -3.8439,4.2394 -0.6672,-2.211 -1.2004,0.7864 -3.4825,5.5518 12.9141,6.125 26.3235,2.9799 -48.6727,4.8008 h -18.0456 l -8.443,-15.5616 -7.4499,-3.6421 -5.9599,-16.5554 -4.4825,-4.3803 -2.9675,28.5507 -3.4768,-24.6674 -4.9663,6.126 -5.6138,2.5513 -0.7748,-1.7043 -4.2284,3.9104 -8.851,3.6256 11.023,11.4013 1.9242,1.0752 -4.4981,6.097 -0.002,-3e-4 -11.1651,-4.0262 1.0627,-6.1485 -4.0426,0.1887 -9.1234,-16.5748 3.6592,-5.9413 -6.1254,-25.495 -8.1122,14.2373 -3.3108,-7.2843 -4.1392,3.8078 1.6559,-11.7544 -0.6623,-6.622 -4.0092,-12.3126 -10.617,-24.666 -6.6158,10.1034 -10.0637,7.1144 0.3084,0.5842 -7.8629,-0.3686 0.9409,-1.2459 8.3913,-4.4605 8.4673,-13.6575 5.7841,-2.0403 4.2898,-7.1848 4.397,-4.5044 25.6301,34.5314 5.8984,1.0721 10.2947,8.7937 1.2869,-3.3244 2.7885,0.751 5.5762,13.6191 h 3.539 l 2.6808,4.0754 16.3005,1.1794 7.5063,9.9737 43.007,14.3072 8e-4,2e-4 13.2816,-3.7822 4.6357,-4.6357 6.0424,-2.6486 3.3937,-6.2911 4.3044,3.3109 2.0694,4.9664 5.3807,4.2219 8.443,-2.5665 12.0853,0.6624 7.6156,9.4366 19.0386,1.1587 32.234,-4.5357 8.8276,-2.016 21.6876,-13.6581 -13.8237,11.8369 -16.5462,6.8295 -0.0932,0.5096 23.5097,-5.7663 z m -85.426,39.4401 -3.3241,-1.3785 -1.0991,0.3665 -4.9847,1.6618 -2.3784,0.9065 -10.3356,4.8632 -7e-4,-2e-4 -0.2586,0.1399 21.9888,-5.3268 0.2454,-0.7703 z" />
          <path
             inkscape:connector-curvature="0"
             id="path548"
             style="fill:#f4f4f4;fill-rule:evenodd"
             d="m 378.5956,26.1025 8.1718,-4.021 4.6694,-5.5775 6.226,-2.2049 -8.4959,0.389 -5.6423,4.8641 3.4373,-1.0377 -3.3075,2.8536 z" />
          <path
             inkscape:connector-curvature="0"
             id="path550"
             style="fill:#f1f1f1;fill-rule:evenodd"
             d="m 427.431,-8.2055 4.9289,-5.9665 7.9771,-3.6967 4.0211,-0.2595 -6.1614,4.6047 -3.113,3.9561 z" />
          <path
             inkscape:connector-curvature="0"
             id="path552"
             style="fill:#f1f1f1;fill-rule:evenodd"
             d="m 498.9009,-70.6598 -17.2516,4.9285 6.6152,0.9729 -14.0088,5.9665 -8.4958,11.1551 -8.4959,7.6527 2.5941,2.4645 -4.2156,2.9185 6.1612,-0.7134 9.0148,-9.9877 8.3662,-3.6319 5.1889,-5.5121 7.1339,-3.6319 z" />
          <path
             inkscape:connector-curvature="0"
             id="path554"
             style="fill:#f1f1f1;fill-rule:evenodd"
             d="m 486.4489,-54.057 -4.2159,8.4955 -13.2952,6.2908 -6.7449,11.609 -21.5317,15.5651 6.8097,0.5189 -11.5441,8.2365 -12.5169,15.7595 11.8035,-8.2365 16.2784,-5.9016 10.7011,-7.9124 8.1068,-14.0733 9.0153,-7.6525 2.9833,-3.5022 9.339,-16.473 -4.8522,-2.5474 z" />
          <path
             inkscape:connector-curvature="0"
             id="path556"
             style="fill:#ffffff;fill-rule:evenodd"
             d="m 487.0974,-33.0442 7.1337,0.8424 0.2594,8.95 -11.2846,10.3766 3.8263,0.1945 -8.6904,9.3391 10.4415,-2.9834 -2.9185,-0.7782 3.7616,-4.0858 7.1992,-3.3069 3.7615,-6.6152 0.2594,-11.1549 4.5399,-10.6361 z" />
          <path
             inkscape:connector-curvature="0"
             id="path558"
             style="fill:#e8e8e8;fill-rule:evenodd"
             d="m 501.8839,-42.7082 4.4749,-2.0105 3.8912,-3.8913 -3.5022,0.7135 z" />
          <path
             inkscape:connector-curvature="0"
             id="path560"
             style="fill:#e8e8e8;fill-rule:evenodd"
             d="m 430.8038,39.3331 -3.0811,6.3552 20.5589,-12.1925 8.5608,-3.0482 11.2198,-2.3996 10.5064,-8.8851 -10.8306,4.2804 -7.7177,0.7133 -0.3242,-3.2427 -8.0421,3.0482 -3.4692,0.9734 -29.4438,11.5441 z" />
          <path
             inkscape:connector-curvature="0"
             id="path562"
             style="fill:#e8e8e8;fill-rule:evenodd"
             d="m 491.6373,-51.3332 13.9108,2.01 -5.8368,-3.5671 8.1067,-1.3619 7.977,3.6967 -2.0105,-2.5941 9.7282,4.6047 3.5022,0.8431 13.2951,-0.3892 -4.4101,-1.6213 -11.2846,-8.5608 -4.4751,-5.8368 -0.1945,2.1401 -8.074,-2.9828 -12.9708,-5.7072 -4.2065,7.158 9.1026,6.85 -9.7581,-5.7342 -2.5314,4.3079 -7.1339,3.6319 2.0753,0.3892 z" />
          <path
             inkscape:connector-curvature="0"
             id="path564"
             style="fill:#fefefe;fill-rule:evenodd"
             d="m 469.5868,-77.9235 20.5255,-12.5173 1.5566,-4.6046 14.0734,-9.6634 6.2908,17.7053 -3.6635,0.3895 -4.9288,-1.5564 -0.7784,-2.2051 -7.5231,7.6529 -6.4853,1.4267 2.3346,-2.8536 z" />
          <path
             inkscape:connector-curvature="0"
             id="path566"
             style="fill:#e8e8e8;fill-rule:evenodd"
             d="m 505.7423,-104.7088 13.8139,18.8727 12.9061,20.1698 -5.2532,-4.4751 -0.8432,2.3996 -1.9456,-7.8474 -1.3619,2.5293 -4.4749,-8.7553 -1.0377,4.7344 -4.7343,-6.0963 -0.9729,3.6967 -3.469,-7.1336 3.6635,-0.3895 z" />
          <path
             inkscape:connector-curvature="0"
             id="path568"
             style="fill:#e9e9e9;fill-rule:evenodd"
             d="m 507.7212,-17.7387 -15.5007,9.2737 2.7239,1.8808 -5.9997,5.7241 9.0483,-3.5186 z" />
          <path
             inkscape:connector-curvature="0"
             id="path570"
             style="fill:#ffffff;fill-rule:evenodd"
             d="m 479.0876,14.9798 -4.1183,4.0534 -3.5669,1.0377 0.7782,-2.724 2.5616,-0.8107 1.8808,-0.1297 z" />
          <path
             inkscape:connector-curvature="0"
             id="path572"
             style="fill:#ffffff;fill-rule:evenodd"
             d="m 497.798,-3.147 -7.7824,4.2804 -7.2638,6.4205 -4.3452,1.2971 -4.1507,6.8097 6.3557,-3.6967 7.7177,-1.8808 z" />
          <path
             inkscape:connector-curvature="0"
             id="path574"
             style="fill:#fbfbfb;fill-rule:evenodd"
             d="m 334.6899,73.0177 4.9071,-9.0107 -4.187,-0.2994 -17.798,4.3116 0.4553,0.7793 5.1737,1.9042 3.8993,2.9397 z m -25.2164,-2.739 -8.4298,2.4146 -2.984,0.0624 -10.4756,2.5378 0.2586,-0.1399 -10.8334,-2.0036 -11.6235,-4.6723 -9.7047,-2.9698 -0.002,-6e-4 -5.6887,-1.3093 0.005,7e-4 -5.0463,-1.739 -0.8429,-1.8105 -2.649,-2.4001 -3.1039,0.1651 -0.5382,1.5318 -1.3245,-4.8842 -3.4349,0.2482 -1.78,7.1604 -3.844,4.2392 -0.6671,-2.211 -1.2005,0.7863 -3.4824,5.5519 1.6545,0.7847 4.0622,-1.1807 -0.6648,2.7921 1.2114,0.5746 10.2845,-7.2271 0.6436,-3.4319 15.9789,4.1824 25.4157,10.4023 23.5028,-3.6975 4.6672,-1.7604 z m -71.7869,-1.4853 -2.525,2.8144 -0.4139,3.8076 2.1939,-3.8903 z" />
          <path
             inkscape:connector-curvature="0"
             id="path576"
             style="fill:#f5f5f5;fill-rule:evenodd"
             d="m 100.2203,7.6576 1.8235,6.6487 -3.1104,-1.0723 -1.2865,15.0135 -12.2256,9.0081 9.1152,-11.4746 0.751,-17.8019 2.7879,1.716 -0.3214,-7.6144 z" />
          <path
             inkscape:connector-curvature="0"
             id="path578"
             style="fill:#f1f1f1;fill-rule:evenodd"
             d="m 271.4994,45.5071 1.9877,6.8682 -2.0692,7.7813 3.3939,-3.2286 5.1318,7.2017 3.232,3.143 1.5318,4.0977 -1.9042,-0.952 -0.041,1.3245 -8.404,-0.5197 -8.9768,-2.7472 11.6279,4.674 10.8341,2.0038 10.3365,-4.8637 2.3775,-0.906 6.0838,-2.0283 3.3241,1.3785 1.0763,-3.3799 -3.1584,0.3865 -3.3524,-0.9515 -2.9958,0.7804 -1.2259,0.9992 -2.9799,-0.3309 -2.6075,-3.1871 -2.0692,-0.2898 -3.5466,-3.3599 10e-5,7e-4 -0.8856,-0.9819 1.305,7.5488 z m 44.8315,20.3192 5.4175,-1.7822 -6.1262,0.7498 0.7086,1.0321 z" />
          <path
             inkscape:connector-curvature="0"
             id="path580"
             style="fill:#f1f1f1;fill-rule:evenodd"
             d="m 318.0673,68.7985 -1.7364,-2.9725 -2.2781,-3.3182 z" />
          <path
             inkscape:connector-curvature="0"
             id="path582"
             style="fill:#ffffff;fill-rule:evenodd"
             d="m 74.225,-3.8049 2.3182,4.3869 3.2282,-2.7316 4.5176,-8.7694 z" />
          <path
             inkscape:connector-curvature="0"
             id="path584"
             style="fill:#f0f0f0;fill-rule:evenodd"
             d="m 59.7181,5.6179 -2.6276,8.6222 -0.9931,2.0693 -2.4007,2.0694 -1.9667,0.3104 -1.5928,5.2358 -6.8993,5.6064 8.001,-11.1681 4.8446,-6.7983 3.6343,-5.9468 z" />
          <path
             inkscape:connector-curvature="0"
             id="path586"
             style="fill:#ffffff;fill-rule:evenodd"
             d="m 68.854,13.7055 1.7726,-6.6281 3.0212,-2.7317 0.0826,-2.6899 1.283,-0.3313 2.7317,-0.2484 2.8837,-2.4123 0.2202,-0.3188 -0.2202,0.3188 -0.4984,2.0428 9.7384,-17.3421 -9.7675,23.0116 -3.6423,22.1843 -1.8591,12.0226 6.991,-7.5525 -5.9599,15.7278 7.1187,2.9798 -18.5415,20.3632 -31.2901,4.1386 -52.6456,4.3044 33.9384,-18.0454 6.7877,-3.8078 22.2344,-29.1531 0.5801,-0.7545 7.4221,-10.415 4.8483,-6.8035 3.6343,-5.9468 6.9532,-9.2077 4.8048,0.225 -1.9701,12.224 z M 66.5083,31.144 67.605,36.5879 71.5247,31.444 70.0022,37.997 55.268,50.7446 65.6979,37.1691 Z" />
          <path
             inkscape:connector-curvature="0"
             id="path588"
             style="fill:#fbfbfb;fill-rule:evenodd"
             d="m 161.8215,48.4864 -3.4911,10.036 0.745,8.857 3.2286,10.5124 -9.271,-9.1053 3.3107,0.9105 1.0762,-1.9037 -1.5727,-5.0492 -4.387,-1.8216 -3.7253,3.7253 -10.3477,-1.6524 8.851,-3.6256 4.2284,-3.9104 0.7748,1.7043 5.6138,-2.5513 z" />
          <path
             inkscape:connector-curvature="0"
             id="path590"
             style="fill:#ffffff;fill-rule:evenodd"
             d="m 321.7519,42.4 -17.687,5.8956 -12.5955,-1.2502 -8.3828,-5.512 7.6155,9.437 19.0385,1.1587 15.3473,-2.1598 17.3191,-9.6632 5.4481,-4.021 -5.3184,-1.8806 4.3455,-3.6966 -11.2196,2.14 -4.8717,0.1872 z" />
          <path
             inkscape:connector-curvature="0"
             id="path592"
             style="fill:#ffffff;fill-rule:evenodd"
             d="m 137.4513,80.5407 8.385,1.0283 5.5218,-7.4845 11.0921,4.6352 29.8823,19.6183 -52.8118,-11.3404 z" />
          <path
             inkscape:connector-curvature="0"
             id="path594"
             style="fill:#f5f5f5;fill-rule:evenodd"
             d="m 615.8324,-47.9768 0.3186,3.4629 11.1365,5.3226 0.8138,5.9145 12.0828,4.4862 23.3376,23.2555 -2.0472,-12.4466 3.9306,3.8487 -5.444,-11.7939 -1.9652,-3.1116 -5.7321,6.3871 -23.5245,-20.3499 -0.005,-0.0029 -31.308,-21.8732 10.8274,11.0791 7.4437,5.7407 z" />
          <path
             inkscape:connector-curvature="0"
             id="path596"
             style="fill:#ffffff;fill-rule:evenodd"
             d="m 608.2536,-53.7983 7.336,3.182 0.5614,6.1024 11.1365,5.3226 1.2284,8.9257 -3.3574,12.6923 -20.5534,16.0497 -2.0472,-2.7023 0.4913,-2.0471 -1.474,0.1637 -3.1934,-1.0645 7.206,-8.0249 0.8187,-6.0595 -3.1934,6.2233 -17.4418,10.6453 5.4863,-14.7397 -3.6848,-2.2927 -5.9778,1.8014 2.4306,-5.1435 -4.2601,-2.1918 -1.7141,-0.8821 8.8633,-5.6205 v -10e-5 c 10e-4,-0.0064 5.4693,-22.0913 5.4693,-22.8421 0,-0.0111 -0.002,-0.0179 -0.006,-0.0221 l 10e-5,-5e-4 3.2121,-2.8878 1.836,-5.6665 z" />
          <path
             inkscape:connector-curvature="0"
             id="path598"
             style="fill:#e8e8e8;fill-rule:evenodd"
             d="m 505.3864,-42.9021 10.0196,1.1668 6.6152,4.021 16.5377,4.2154 -5.1234,0.8432 13.1653,7.4583 -14.9164,-3.6319 -10.6361,2.3348 -1.0206,0.6705 0.3577,1.5377 3.1116,2.2929 33.2457,16.7866 -22.6005,-7.3698 -5.6502,5.4863 -0.4093,8.3524 37.2581,20.4715 16.541,-1.9652 -24.4021,8.3525 4.4219,-4.9132 -21.1266,-7.2878 2.2109,-1.556 -15.5584,-5.1587 9.0075,20.5533 30.0521,6.0596 -36.9305,-1.0645 c 0,0 -3.6029,5.1588 -3.8486,5.6502 -0.2458,0.4913 -10.3997,6.6326 -10.3997,6.6326 l -2.9479,-1.3919 -14.0024,7.4516 6.7964,-9.8263 -6.2232,-1.0645 -5.2407,4.0124 4.5037,-4.995 -6.5509,-4.0944 -8.6717,6.9887 18.9075,-23.4483 6.2234,7.0421 -8.1887,-17.6873 8.3524,-18.8337 3.9305,2.2927 -3.6029,-6.3871 1.2234,-6.2112 -2.096,1.3771 -10.8956,3.2428 3.7615,-6.6152 0.2594,-11.1549 z" />
          <path
             inkscape:connector-curvature="0"
             id="path600"
             style="fill:#e8e8e8;fill-rule:evenodd"
             d="m 427.7409,49.6996 17.4274,-10.9513 7.6532,-2.5937 -3.0481,4.9294 -2.4645,4.799 3.6312,-0.5184 -4.5694,8.2993 4.91,1.3068 8.2577,-11.6358 -0.965,6.6488 5.3084,-0.697 6.4343,-8.3112 -1.3406,6.0059 9.0083,-3.271 5.4695,-12.6546 0.4435,10.6048 0.0831,1.9849 -5e-4,3e-4 -20.9298,9.7867 -16.8696,4.7553 -8.9007,0.7505 -4.1989,-8.1991 z" />
          <path
             inkscape:connector-curvature="0"
             id="path602"
             style="fill:#f9f9f9;fill-rule:evenodd"
             d="m 565.5573,-26.689 18.1404,-14.8122 c 0,0 8.6863,-15.5505 8.6863,-14.7995 0,0.751 -5.4693,22.8422 -5.4693,22.8422 l -8.8633,5.6205 v 2e-4 l 5.9742,3.0737 -14.2209,10.3162 -13.2059,-16.7748 z" />
        </g>
        <path
           inkscape:connector-curvature="0"
           id="path605"
           style="fill:none"
           d="M -147.1516,-116.1028 V 169.6789 H 723.3461 V -116.1028 Z" />
      </g>
    </g>
  </g>
</svg>
