<?xml version="1.0" encoding="UTF-8" standalone="no"?>
<!-- Created with Inkscape (http://www.inkscape.org/) -->

<svg
   xmlns:dc="http://purl.org/dc/elements/1.1/"
   xmlns:cc="http://creativecommons.org/ns#"
   xmlns:rdf="http://www.w3.org/1999/02/22-rdf-syntax-ns#"
   xmlns:svg="http://www.w3.org/2000/svg"
   xmlns="http://www.w3.org/2000/svg"
   xmlns:sodipodi="http://sodipodi.sourceforge.net/DTD/sodipodi-0.dtd"
   xmlns:inkscape="http://www.inkscape.org/namespaces/inkscape"
   width="1560"
   height="510"
   viewBox="0 0 211.66666 69.320835"
   version="1.1"
   id="svg8"
   inkscape:version="0.92.1 r15371"
   sodipodi:docname="00-01.svg">
  <defs
     id="defs2" />
  <sodipodi:namedview
     id="base"
     pagecolor="#ffffff"
     bordercolor="#666666"
     borderopacity="1.0"
     inkscape:pageopacity="0.0"
     inkscape:pageshadow="2"
     inkscape:zoom="0.35"
     inkscape:cx="902.85714"
     inkscape:cy="585.71429"
     inkscape:document-units="mm"
     inkscape:current-layer="g721"
     showgrid="false"
     units="px"
     inkscape:window-width="1039"
     inkscape:window-height="792"
     inkscape:window-x="-9"
     inkscape:window-y="0"
     inkscape:window-maximized="0" />
  <metadata
     id="metadata5">
    <rdf:RDF>
      <cc:Work
         rdf:about="">
        <dc:format>image/svg+xml</dc:format>
        <dc:type
           rdf:resource="http://purl.org/dc/dcmitype/StillImage" />
        <dc:title></dc:title>
      </cc:Work>
    </rdf:RDF>
  </metadata>
  <g
     inkscape:label="Layer 1"
     inkscape:groupmode="layer"
     id="layer1"
     transform="translate(0,-227.67915)">
    <g
       id="g721"
       transform="matrix(0.26458333,0,0,0.26458333,525.51237,134.30147)">
      <g
         id="Layer1000"
         transform="matrix(0.9190145,0,0,0.9190145,-1850.9541,-312.18474)">
        <g
           id="Layer1001">
          <g
             id="Layer1002">
            <path
               inkscape:connector-curvature="0"
               id="path501"
               style="fill:#ebebeb;fill-rule:evenodd"
               d="m 524.5228,858.8499 -2e-4,-2e-4 -10e-5,2e-4 4e-4,3e-4 z m -77.0932,28.2667 -3.9137,-0.7619 -13.6471,-3.5084 -4.4379,4.803 -10.0609,2.4323 -7.9358,7.2923 -0.6355,0.5025 -3.6786,4.7641 14.9731,-7.4646 3.5254,-1.0182 -3.2244,-0.2423 7.1566,-2.8201 3e-4,2e-4 4.8685,-4.3586 3.1784,-2.7237 -0.1951,2.7893 1.4917,-0.4542 -0.9931,4.2617 3.8706,-1.118 2.1449,-0.7504 2.359,0.5359 0.415,0.8169 z m 77.0929,-28.2669 v 2e-4 z" />
            <path
               inkscape:connector-curvature="0"
               id="path503"
               style="fill:#fbfbfb;fill-rule:evenodd"
               d="m 415.37,890.0816 -2.579,2.3699 h -0.0141 z" />
            <path
               inkscape:connector-curvature="0"
               id="path505"
               style="fill:#f4f4f4;fill-rule:evenodd"
               d="m 329.507,906.6134 -0.2454,0.7704 h 1e-4 z" />
            <path
               inkscape:connector-curvature="0"
               id="path507"
               style="fill:#e8e8e8;fill-rule:evenodd"
               d="m 425.5511,891.0955 4.8685,-4.3586 3.1784,-2.7237 -0.1951,2.7893 1.4917,-0.4542 -0.9933,4.2617 -12.2827,3.5477 -3.2244,-0.2423 7.1566,-2.8201 z m 78.117,-10.0326 -20.9299,9.7867 -0.001,7e-4 20.9316,-9.7877 v 10e-5 z m -46.7002,15.2925 -4.1988,-8.1992 -5.3395,-1.0396 -4.7386,2.9778 2.9094,5.725 0.4289,-5.5769 6.8599,1.0122 z" />
            <path
               inkscape:connector-curvature="0"
               id="path509"
               style="fill:#fbfbfb;fill-rule:evenodd"
               d="m 354.1744,910.52 0.2041,-0.0853 -7.5495,0.6247 z m -25.6479,-0.8276 -4.6672,1.7604 -23.5029,3.6974 -4.408,4.025 4.3511,-1.1222 14.9824,-1.4488 5.9603,-3.6004 4.2218,-1.2004 z" />
            <path
               inkscape:connector-curvature="0"
               id="path511"
               style="fill:#ffffff;fill-rule:evenodd"
               d="m 524.5226,858.8499 3.2285,5.7076 -0.2145,4.1284 8.0433,3.7533 -6.6492,1.2871 -6.0054,9.4906 -14.156,5.3624 5.5233,-4.1824 -4.017,-2.7865 4.6604,-8.7422 z" />
            <path
               inkscape:connector-curvature="0"
               id="path513"
               style="fill:#ffffff;fill-rule:evenodd"
               d="m 554.9397,846.203 5.8424,5.2169 -1.2334,4.1825 3.9142,2.6814 -9.8122,1.9838 -9.9201,5.6838 7.0782,-7.1853 -2.8419,-5.3082 6.9722,-7.2543 z" />
            <path
               inkscape:connector-curvature="0"
               id="path515"
               style="fill:#ffffff;fill-rule:evenodd"
               d="m 560.0836,845.8358 4.2899,3.3847 6.5953,0.6435 2.3594,2.1449 -0.59,-3.7534 5.6304,-10.3491 -5.4159,0.7509 1.7758,-7.5568 -1.4379,-0.87 -9.2717,15.3241 v 2e-4 z" />
            <path
               inkscape:connector-curvature="0"
               id="path517"
               style="fill:#f5f5f5;fill-rule:evenodd"
               d="m 627.9422,783.6187 3e-4,3e-4 7.4434,5.7405 z" />
            <path
               inkscape:connector-curvature="0"
               id="path519"
               style="fill:#f1f1f1;fill-rule:evenodd"
               d="m 333.7414,899.9249 2.8968,11.6302 0.6237,6.0318 0.7013,-5.9494 1.2423,-0.9499 0.4521,-1.0788 1.3684,1.8652 1.9037,-1.4071 4.1829,4.0907 9.1883,-1.1173 3.808,-1.5312 -2.8644,-0.2078 5.4102,-3.1946 -5.4021,1.5396 -3.078,0.8737 -7.3456,0.5394 -3.8993,-2.9397 -5.1737,-1.9041 z" />
            <path
               inkscape:connector-curvature="0"
               id="path521"
               style="fill:#ffffff;fill-rule:evenodd"
               d="m 603.8738,809.9785 6.2728,5.9849 7.0733,17.8727 -1e-4,2e-4 -25.0119,5.3072 v 2e-4 h -2e-4 l -1.9292,10.509 v 2e-4 l -3e-4,10e-5 -28.7756,36.6418 35.7314,8.5766 26.084,22.1533 6.2531,-26.6197 6.9677,-4.2875 3.5733,-8.2184 6.6104,4.2875 10.5406,22.1538 14.8288,4.2881 21.975,10.3619 -7.1463,-62.3519 10.3624,8.04 6.9675,-1.7869 -27.5133,-35.7317 28.9427,13.3994 -32.3722,-32.8455 -18.868,0.9266 5.4634,9.3689 -10.1883,-9.0084 7.7214,33.8879 -20.1601,-36.0322 7.507,-6.0056 -16.8401,-17.2316 -8e-4,-7e-4 -1.6867,4.1031 -8.1478,5.3639 -2.3747,10.2358 z" />
            <path
               inkscape:connector-curvature="0"
               id="path523"
               style="fill:#ffffff;fill-rule:evenodd"
               d="m 406.7988,897.8761 -5.8693,0.882 -3.6419,-1.3244 -2.1525,-5.0498 -1.4783,2.1846 -10.9118,1.6747 -25.5,15.0581 2.8639,0.2078 -3.808,1.5312 -9.1883,1.1173 -4.1829,-4.0907 -1.9037,1.4071 -1.3682,-1.8649 -0.4523,1.0785 -1.2423,0.9499 -0.7013,5.9494 -0.6237,-6.0318 -2.8968,-11.6302 -2.2761,0.5382 -2.9388,9.2293 -3.0625,2.1109 -4.2218,1.2005 -5.9603,3.6004 -14.9826,1.4488 -9.1468,2.3592 -4.4286,3.2286 11.7535,10.2647 23.84,-2.732 27.3149,-6.5396 5.2473,-0.1748 -2.7039,3.3535 59.765,-8.5262 -7.1187,-9.4368 -5.8793,-4.3039 3.772,-2.3801 z" />
            <path
               inkscape:connector-curvature="0"
               id="path525"
               style="fill:#f5f5f5;fill-rule:evenodd"
               d="m 627.9424,783.6189 16.8407,17.2322 -7.5068,6.0054 20.1599,36.0323 -7.7212,-33.8879 10.1881,9.0082 -5.4634,-9.3686 18.868,-0.9266 -13.0433,-11.8296 -11.8364,-1.4679 -1.9466,1.5759 -11.0955,-6.6328 z" />
            <path
               inkscape:connector-curvature="0"
               id="path527"
               style="fill:#f9f9f9;fill-rule:evenodd"
               d="m 524.5225,858.8497 -0.002,0.003 z m 79.1918,-46.1968 -14.2209,10.3162 -16.1354,7.1502 -0.0674,0.1111 1.4379,0.87 -1.7758,7.5568 5.4159,-0.751 -5.6304,10.3492 0.59,3.7533 -2.3594,-2.1449 -6.5953,-0.6434 -4.2897,-3.3846 -5.1439,0.3672 5.8422,5.2168 -1.2334,4.1824 3.9142,2.6814 -9.8122,1.9839 -9.9201,5.6838 7.0782,-7.1853 -2.2258,-4.1577 -3.882,3.7312 -10.6698,7.3132 -2.54,-4.8798 -2.4293,1.0598 -4.5391,-2.9827 3.2283,5.7073 -0.2145,4.1285 8.0433,3.7533 -6.6492,1.287 -6.0054,9.4907 -14.156,5.3623 5.5233,-4.1824 -4.017,-2.7865 -22.1988,12.6543 15.5918,-13.2019 -20.9316,9.7877 10e-4,-7e-4 -16.8695,4.7553 -8.9008,0.7505 -4.0787,-5.1007 -6.8599,-1.0122 -0.4289,5.5769 -3.3244,-6.5419 -2.359,-0.5359 -2.1449,0.7504 -19.6789,5.6839 -14.9734,7.4648 -0.4051,0.5247 -2.9609,1.8684 13.2557,6.3891 13.5472,-5.1231 3.6366,1.2184 0.9684,2.7915 0.97,-4.4684 62.3808,1.8281 -6.5417,-3.7533 15.6574,-10.4023 11.6891,0.429 35.4965,-28.0965 -19.732,19.7319 -4.8259,10.0807 -5.0402,-1.8229 -5.8984,5.2548 -7.9356,2.5734 -14.0486,14.9065 14.2629,-10.6166 -1.8229,8.1502 17.051,4.2892 -11.4746,-15.6569 h 13.1906 l -2.0374,-5.4688 4.9328,2.5734 26.9171,-19.196 -5.8982,-0.4289 41.8241,-30.5634 1.9294,-10.5094 25.012,-5.3074 -7.0733,-17.8727 -6.2728,-5.9849 z" />
          </g>
          <path
             inkscape:connector-curvature="0"
             id="path530"
             style="fill:#ffffff;fill-rule:evenodd"
             d="m 322.3174,931.1735 20.2536,2.7151 -11.4641,7.8611 7.6972,-1.474 17.6875,2.129 4.5855,6.8784 65.1812,-4.4218 -3.9305,-6.8784 -10.8089,-7.3698 24.7295,6.5509 12.938,12.1191 49.1315,-3.2755 -17.0323,10.3178 48.6402,12.774 18.9976,30.1342 23.9106,-39.6329 27.8412,-10.8089 11.1366,-18.0149 9.1711,12.7742 79.2656,38.6501 4.5856,-64.8536 13.7568,3.603 -12.119,-19.9801 10.8089,-1.6378 -17.0324,-30.9529 18.0149,5.4045 -12.5834,-33.225 -28.9427,-13.3994 27.5133,35.7317 -6.9675,1.7869 -10.3624,-8.04 7.1463,62.3519 -21.975,-10.3619 -14.8288,-4.2881 -10.5406,-22.1538 -6.6104,-4.2875 -3.5733,8.2184 -6.9677,4.2875 -6.2531,26.6197 -26.084,-22.1533 -35.7314,-8.5766 28.7756,-36.6418 -41.8238,30.5633 5.8982,0.4289 -26.9171,19.196 -4.9328,-2.5734 2.0374,5.4688 h -13.1906 l 11.4746,15.6569 -17.051,-4.2892 1.8229,-8.1502 -14.2629,10.6166 14.0486,-14.9065 7.9356,-2.5734 5.8984,-5.2548 5.0402,1.8229 4.8259,-10.0807 19.732,-19.7319 -35.4965,28.0965 -11.6891,-0.429 -15.6574,10.4023 6.5417,3.7533 -62.3808,-1.8281 -0.97,4.4684 -0.9684,-2.7915 -3.6366,-1.2184 -13.5472,5.1231 -13.2557,-6.3891 -0.8111,0.5119 5.8793,4.3039 7.1187,9.4368 -59.765,8.5262 2.7039,-3.3535 -5.2473,0.1748 z" />
        </g>
        <path
           inkscape:connector-curvature="0"
           id="path533"
           style="fill:none"
           d="M -147.1516,723.0253 V 1008.807 H 723.3461 V 723.0253 Z" />
      </g>
    </g>
  </g>
</svg>
