<?xml version="1.0" encoding="UTF-8" standalone="no"?>
<!-- Created with Inkscape (http://www.inkscape.org/) -->

<svg
   xmlns:dc="http://purl.org/dc/elements/1.1/"
   xmlns:cc="http://creativecommons.org/ns#"
   xmlns:rdf="http://www.w3.org/1999/02/22-rdf-syntax-ns#"
   xmlns:svg="http://www.w3.org/2000/svg"
   xmlns="http://www.w3.org/2000/svg"
   xmlns:sodipodi="http://sodipodi.sourceforge.net/DTD/sodipodi-0.dtd"
   xmlns:inkscape="http://www.inkscape.org/namespaces/inkscape"
   width="160"
   height="160"
   viewBox="0 0 42.333332 42.333335"
   version="1.1"
   id="svg8"
   inkscape:version="0.92.1 r15371"
   sodipodi:docname="Grayman.svg">
  <defs
     id="defs2" />
  <sodipodi:namedview
     id="base"
     pagecolor="#ffffff"
     bordercolor="#666666"
     borderopacity="1.0"
     inkscape:pageopacity="0.0"
     inkscape:pageshadow="2"
     inkscape:zoom="1.2717043"
     inkscape:cx="108.75774"
     inkscape:cy="174.71405"
     inkscape:document-units="mm"
     inkscape:current-layer="layer1"
     showgrid="false"
     units="px"
     inkscape:window-width="1600"
     inkscape:window-height="837"
     inkscape:window-x="-8"
     inkscape:window-y="-8"
     inkscape:window-maximized="1" />
  <metadata
     id="metadata5">
    <rdf:RDF>
      <cc:Work
         rdf:about="">
        <dc:format>image/svg+xml</dc:format>
        <dc:type
           rdf:resource="http://purl.org/dc/dcmitype/StillImage" />
        <dc:title></dc:title>
      </cc:Work>
    </rdf:RDF>
  </metadata>
  <g
     inkscape:label="Layer 1"
     inkscape:groupmode="layer"
     id="layer1"
     transform="translate(0,-254.66665)">
    <g
       id="g115"
       transform="matrix(1.1024219,0,0,1.1024219,1.1024219e-4,254.66676)">
      <path
         inkscape:connector-curvature="0"
         id="path98"
         style="fill:none"
         d="M 1e-4,1e-4 V 38.4002 H 38.4002 V 1e-4 Z" />
      <path
         inkscape:connector-curvature="0"
         id="path100"
         style="fill:none"
         d="M 1e-4,1e-4 V 38.4002 H 38.4002 V 1e-4 Z" />
      <path
         inkscape:connector-curvature="0"
         id="path102"
         style="fill:#1a1a1a;fill-rule:evenodd"
         d="m 11.5889,16.5728 c -1.424,-0.874 -2.1982,-4.6864 -0.8389,-5.656 0.2283,-13.6747 16.6716,-13.6747 16.8999,0 1.3593,0.9696 0.5852,4.782 -0.8389,5.656 -3.0669,9.1752 -12.1551,9.1752 -15.2221,0 z m 15.4823,5.7876 9.874,3.1444 1.4549,3.5618 c -10.2553,11.537 -28.1205,11.5646 -38.4002,0 l 1.4548,-3.5618 c 1.5335,-0.4885 9.1434,-2.6718 9.9229,-3.1444 3.6085,5.6092 12.0606,5.5901 15.6936,0 z" />
    </g>
  </g>
</svg>
